<?xml version="1.0" encoding="UTF-8" standalone="no"?>
<!-- Created with Inkscape (http://www.inkscape.org/) -->

<svg
   width="500mm"
   height="700mm"
   viewBox="0 0 500 700"
   version="1.1"
   id="svg5"
   inkscape:version="1.1.1 (1:1.1+202109281949+c3084ef5ed)"
   sodipodi:docname="kdo-011.svg"
   xmlns:inkscape="http://www.inkscape.org/namespaces/inkscape"
   xmlns:sodipodi="http://sodipodi.sourceforge.net/DTD/sodipodi-0.dtd"
   xmlns="http://www.w3.org/2000/svg"
   xmlns:svg="http://www.w3.org/2000/svg"
   xmlns:rdf="http://www.w3.org/1999/02/22-rdf-syntax-ns#"
   xmlns:cc="http://creativecommons.org/ns#">
  <sodipodi:namedview
     id="namedview7"
     pagecolor="#ffffff"
     bordercolor="#999999"
     borderopacity="1"
     inkscape:pageshadow="0"
     inkscape:pageopacity="0"
     inkscape:pagecheckerboard="0"
     inkscape:document-units="mm"
     showgrid="false"
     height="706mm"
     inkscape:zoom="3.2523437"
     inkscape:cx="691.65508"
     inkscape:cy="746.69231"
     inkscape:window-width="1848"
     inkscape:window-height="1016"
     inkscape:window-x="72"
     inkscape:window-y="27"
     inkscape:window-maximized="1"
     inkscape:current-layer="layer2" />
  <defs
     id="defs2" />
  <g
     inkscape:label="Layer 1"
     inkscape:groupmode="layer"
     id="layer1"
     style="display:inline">
    <text
       xml:space="preserve"
       style="font-style:normal;font-weight:normal;font-size:10.5833px;line-height:1.25;font-family:sans-serif;fill:#000000;fill-opacity:1;stroke:none;stroke-width:0.264583"
       x="23.486336"
       y="178.73631"
       id="text1643"><tspan
         sodipodi:role="line"
         id="tspan1641"
         style="font-style:normal;font-variant:normal;font-weight:bold;font-stretch:normal;font-size:14.8167px;font-family:'Liberation Mono';-inkscape-font-specification:'Liberation Mono, Bold';font-variant-ligatures:normal;font-variant-caps:normal;font-variant-numeric:normal;font-variant-east-asian:normal;stroke-width:0.264583"
         x="23.486336"
         y="178.73631">42] { :: } [08.02.2022</tspan></text>
  </g>
  <g
     inkscape:groupmode="layer"
     id="layer2"
     inkscape:label="text"
     style="display:inline">
    <path
       style="fill:#3a86ff;fill-opacity:1;stroke:#3a86ff;stroke-width:2.13543;stroke-opacity:1"
       id="path107479"
       sodipodi:type="arc"
       sodipodi:cx="28.559984"
       sodipodi:cy="28.322235"
       sodipodi:rx="20.476685"
       sodipodi:ry="20.254499"
       sodipodi:start="4.7016552"
       sodipodi:end="3.1241045"
       sodipodi:arc-type="slice"
       d="M 28.340196,8.0689025 A 20.476685,20.254499 0 0 1 49.034942,28.059233 20.476685,20.254499 0 0 1 28.87197,48.574383 20.476685,20.254499 0 0 1 8.0864308,28.676432 L 28.559984,28.322235 Z" />
    <path
       style="display:inline;fill:#3a86ff;fill-opacity:1;stroke:#3a86ff;stroke-width:2.13543;stroke-opacity:1"
       id="path107479-6"
       sodipodi:type="arc"
       sodipodi:cx="71.117241"
       sodipodi:cy="28.869415"
       sodipodi:rx="20.476685"
       sodipodi:ry="20.254499"
       sodipodi:start="4.7016552"
       sodipodi:end="4.6983914"
       sodipodi:arc-type="arc"
       d="M 70.897453,8.6160826 A 20.476685,20.254499 0 0 1 91.59256,28.635486 20.476685,20.254499 0 0 1 71.370443,49.122366 20.476685,20.254499 0 0 1 50.642335,29.136395 20.476685,20.254499 0 0 1 70.830626,8.6169001"
       sodipodi:open="true" />
    <path
       style="display:inline;fill:#3a86ff;fill-opacity:1;stroke:#3a86ff;stroke-width:2.13543;stroke-opacity:1"
       id="path107479-9"
       sodipodi:type="arc"
       sodipodi:cx="113.11724"
       sodipodi:cy="28.869415"
       sodipodi:rx="20.476685"
       sodipodi:ry="20.254499"
       sodipodi:start="0.73303829"
       sodipodi:end="3.1241045"
       sodipodi:arc-type="slice"
       d="M 128.33438,42.422321 A 20.476685,20.254499 0 0 1 105.94649,47.841365 20.476685,20.254499 0 0 1 92.643688,29.223611 l 20.473552,-0.354196 z" />
    <path
       style="display:inline;fill:none;fill-opacity:1;stroke:#fb5607;stroke-width:2.13543;stroke-opacity:1"
       id="path107479-6-1"
       sodipodi:type="arc"
       sodipodi:cx="155.6745"
       sodipodi:cy="29.416595"
       sodipodi:rx="20.476685"
       sodipodi:ry="20.254499"
       sodipodi:start="4.7016552"
       sodipodi:end="4.5216774"
       sodipodi:arc-type="arc"
       sodipodi:open="true"
       d="M 155.45471,9.1632628 A 20.476685,20.254499 0 0 1 176.1194,28.288432 20.476685,20.254499 0 0 1 157.73348,49.56844 20.476685,20.254499 0 0 1 135.41483,32.357589 20.476685,20.254499 0 0 1 151.79299,9.5293182" />
    <path
       style="display:inline;fill:none;fill-opacity:1;stroke:#fb5607;stroke-width:2.13543;stroke-opacity:1"
       id="path107479-0"
       sodipodi:type="arc"
       sodipodi:cx="197.11723"
       sodipodi:cy="28.869415"
       sodipodi:rx="20.476685"
       sodipodi:ry="20.254499"
       sodipodi:start="1.1484725"
       sodipodi:end="1.0934091"
       sodipodi:arc-type="arc"
       d="m 205.51024,47.344332 a 20.476685,20.254499 0 0 1 -26.95328,-9.91945 20.476685,20.254499 0 0 1 9.65629,-26.794845 20.476685,20.254499 0 0 1 27.21913,9.181766 20.476685,20.254499 0 0 1 -8.90693,27.047627"
       sodipodi:open="true" />
    <path
       style="display:inline;fill:none;fill-opacity:1;stroke:#fb5607;stroke-width:2.13543;stroke-opacity:1"
       id="path107479-6-4"
       sodipodi:type="arc"
       sodipodi:cx="239.6745"
       sodipodi:cy="29.416595"
       sodipodi:rx="20.476685"
       sodipodi:ry="20.254499"
       sodipodi:start="4.9001179"
       sodipodi:end="4.8771177"
       sodipodi:arc-type="arc"
       sodipodi:open="true"
       d="M 243.49603,9.5179551 A 20.476685,20.254499 0 0 1 259.81306,33.082176 20.476685,20.254499 0 0 1 236.08457,49.35739 20.476685,20.254499 0 0 1 219.49465,25.980335 20.476685,20.254499 0 0 1 243.03236,9.4362837" />
    <path
       style="display:inline;fill:#3a86ff;fill-opacity:1;stroke:#3a86ff;stroke-width:2.13543;stroke-opacity:1"
       id="path107479-9-2"
       sodipodi:type="arc"
       sodipodi:cx="281.67447"
       sodipodi:cy="29.416595"
       sodipodi:rx="20.476685"
       sodipodi:ry="20.254499"
       sodipodi:start="3.451661"
       sodipodi:end="2.7855392"
       sodipodi:arc-type="slice"
       d="M 262.17426,23.236467 A 20.476685,20.254499 0 0 1 284.60357,9.370391 20.476685,20.254499 0 0 1 302.14574,28.950934 20.476685,20.254499 0 0 1 285.53208,49.308422 20.476685,20.254499 0 0 1 262.48209,36.476867 l 19.19238,-7.060272 z" />
    <path
       style="display:inline;fill:none;fill-opacity:1;stroke:#fb5607;stroke-width:2.13543;stroke-opacity:1"
       id="path107479-6-1-7"
       sodipodi:type="arc"
       sodipodi:cx="324.23175"
       sodipodi:cy="29.963779"
       sodipodi:rx="20.476685"
       sodipodi:ry="20.254499"
       sodipodi:start="4.7016552"
       sodipodi:end="4.6983914"
       sodipodi:arc-type="arc"
       sodipodi:open="true"
       d="M 324.01196,9.7104468 A 20.476685,20.254499 0 0 1 344.70707,29.729851 20.476685,20.254499 0 0 1 324.48495,50.21673 20.476685,20.254499 0 0 1 303.75684,30.230759 20.476685,20.254499 0 0 1 323.94514,9.7112642" />
    <path
       style="display:inline;fill:#3a86ff;fill-opacity:1;stroke:#3a86ff;stroke-width:2.13543;stroke-opacity:1"
       id="path107479-0-4"
       sodipodi:type="arc"
       sodipodi:cx="365.11725"
       sodipodi:cy="28.869415"
       sodipodi:rx="20.476685"
       sodipodi:ry="20.254499"
       sodipodi:start="4.7016552"
       sodipodi:end="1.2372549"
       sodipodi:arc-type="slice"
       d="M 364.89746,8.6160826 A 20.476685,20.254499 0 0 1 385.29131,25.400047 20.476685,20.254499 0 0 1 371.82114,48.007666 L 365.11725,28.869415 Z" />
    <path
       style="display:inline;fill:#fb5607;fill-opacity:1;stroke:#fb5607;stroke-width:2.13543;stroke-opacity:1"
       id="path107479-6-4-0"
       sodipodi:type="arc"
       sodipodi:cx="407.67453"
       sodipodi:cy="29.416595"
       sodipodi:rx="20.476685"
       sodipodi:ry="20.254499"
       sodipodi:start="4.7016552"
       sodipodi:end="4.6983914"
       sodipodi:arc-type="arc"
       sodipodi:open="true"
       d="M 407.45474,9.1632628 A 20.476685,20.254499 0 0 1 428.14985,29.182667 20.476685,20.254499 0 0 1 407.92773,49.669546 20.476685,20.254499 0 0 1 387.19962,29.683575 20.476685,20.254499 0 0 1 407.38792,9.1640802" />
    <path
       style="display:inline;fill:none;fill-opacity:1;stroke:#fb5607;stroke-width:2.13543;stroke-opacity:1"
       id="path107479-9-2-3"
       sodipodi:type="arc"
       sodipodi:cx="449.6745"
       sodipodi:cy="29.416595"
       sodipodi:rx="20.476685"
       sodipodi:ry="20.254499"
       sodipodi:start="3.7456902"
       sodipodi:end="2.6572944"
       sodipodi:arc-type="arc"
       d="m 432.82188,17.911643 a 20.476685,20.254499 0 0 1 23.52665,-7.643506 20.476685,20.254499 0 0 1 13.76593,20.36097 20.476685,20.254499 0 0 1 -16.12736,18.587681 20.476685,20.254499 0 0 1 -22.43451,-10.369952"
       sodipodi:open="true" />
    <path
       style="display:inline;fill:none;fill-opacity:1;stroke:#fb5607;stroke-width:2.13543;stroke-opacity:1"
       id="path107479-6-1-7-2"
       sodipodi:type="arc"
       sodipodi:cx="492.23178"
       sodipodi:cy="29.963783"
       sodipodi:rx="20.476685"
       sodipodi:ry="20.254499"
       sodipodi:start="1.5723946"
       sodipodi:end="4.7104671"
       sodipodi:arc-type="slice"
       d="M 492.19905,50.218257 A 20.476685,20.254499 0 0 1 471.7551,29.967061 20.476685,20.254499 0 0 1 492.19243,9.7093212 l 0.0394,20.2544618 z" />
    <path
       style="display:inline;fill:#fb5607;fill-opacity:1;stroke:#fb5607;stroke-width:2.13543;stroke-opacity:1"
       id="path107479-6-1-7-2-9"
       sodipodi:type="arc"
       sodipodi:cx="491.5444"
       sodipodi:cy="280.32422"
       sodipodi:rx="20.476685"
       sodipodi:ry="20.254499"
       sodipodi:start="1.5723946"
       sodipodi:end="4.7104671"
       sodipodi:arc-type="slice"
       d="m 491.51168,300.57869 a 20.476685,20.254499 0 0 1 -20.44396,-20.25119 20.476685,20.254499 0 0 1 20.43733,-20.25774 l 0.0394,20.25446 z" />
    <path
       style="display:inline;fill:#3a86ff;fill-opacity:1;stroke:#3a86ff;stroke-width:2.13543;stroke-opacity:1"
       id="path107479-6-8"
       sodipodi:type="arc"
       sodipodi:cx="71.117233"
       sodipodi:cy="238.32224"
       sodipodi:rx="20.476685"
       sodipodi:ry="20.254499"
       sodipodi:start="4.7016552"
       sodipodi:end="4.6983914"
       sodipodi:arc-type="arc"
       sodipodi:open="true"
       d="M 70.897445,218.0689 A 20.476685,20.254499 0 0 1 91.592552,238.08831 20.476685,20.254499 0 0 1 71.370435,258.57519 20.476685,20.254499 0 0 1 50.642328,238.58921 20.476685,20.254499 0 0 1 70.830619,218.06972" />
    <path
       style="display:inline;fill:#3a86ff;fill-opacity:1;stroke:#3a86ff;stroke-width:2.13543;stroke-opacity:1"
       id="path107479-6-8-9"
       sodipodi:type="arc"
       sodipodi:cx="28.544434"
       sodipodi:cy="280.32224"
       sodipodi:rx="20.476685"
       sodipodi:ry="20.254499"
       sodipodi:start="4.7016552"
       sodipodi:end="4.6983914"
       sodipodi:arc-type="arc"
       sodipodi:open="true"
       d="M 28.324646,260.0689 A 20.476685,20.254499 0 0 1 49.019752,280.08831 20.476685,20.254499 0 0 1 28.797635,300.57519 20.476685,20.254499 0 0 1 8.069528,280.58921 20.476685,20.254499 0 0 1 28.257819,260.06972" />
    <path
       style="display:inline;fill:#3a86ff;fill-opacity:1;stroke:#3a86ff;stroke-width:2.13543;stroke-opacity:1"
       id="path107479-6-8-9-0"
       sodipodi:type="arc"
       sodipodi:cx="112.54443"
       sodipodi:cy="280.32224"
       sodipodi:rx="20.476685"
       sodipodi:ry="20.254499"
       sodipodi:start="4.7016552"
       sodipodi:end="1.9882125"
       sodipodi:arc-type="slice"
       d="m 112.32465,260.0689 a 20.476685,20.254499 0 0 1 19.14625,12.52255 20.476685,20.254499 0 0 1 -4.63525,22.23644 20.476685,20.254499 0 0 1 -22.59246,4.00978 l 8.30124,-18.51543 z" />
    <path
       style="display:inline;fill:#3a86ff;fill-opacity:1;stroke:#3a86ff;stroke-width:2.13543;stroke-opacity:1"
       id="path107479-6-8-9-0-8"
       sodipodi:type="arc"
       sodipodi:cx="70.544441"
       sodipodi:cy="322.32224"
       sodipodi:rx="20.476685"
       sodipodi:ry="20.254499"
       sodipodi:start="0.27586153"
       sodipodi:end="5.9968605"
       sodipodi:arc-type="slice"
       d="M 90.246921,327.83907 A 20.476685,20.254499 0 0 1 67.782088,342.39159 20.476685,20.254499 0 0 1 50.068037,322.4282 20.476685,20.254499 0 0 1 67.569948,302.28257 20.476685,20.254499 0 0 1 90.187486,316.60179 l -19.643045,5.72045 z" />
    <path
       style="display:inline;fill:#fb5607;fill-opacity:1;stroke:#fb5607;stroke-width:2.13543;stroke-opacity:1"
       id="path107479-6-8-9-0-8-9"
       sodipodi:type="arc"
       sodipodi:cx="112.54444"
       sodipodi:cy="322.3233"
       sodipodi:rx="20.476685"
       sodipodi:ry="20.254499"
       sodipodi:start="3.4262187"
       sodipodi:end="2.8672958"
       sodipodi:arc-type="slice"
       d="m 92.891601,316.63587 a 20.476685,20.254499 0 0 1 22.609449,-14.35482 20.476685,20.254499 0 0 1 17.5198,20.14686 20.476685,20.254499 0 0 1 -17.72925,19.96678 20.476685,20.254499 0 0 1 -22.458341,-14.58505 l 19.711181,-5.48634 z" />
    <path
       style="display:inline;fill:#3a86ff;fill-opacity:1;stroke:#3a86ff;stroke-width:2.13543;stroke-opacity:1"
       id="path107479-6-8-9-0-8-3"
       sodipodi:type="arc"
       sodipodi:cx="49.631138"
       sodipodi:cy="503.55319"
       sodipodi:rx="40.505081"
       sodipodi:ry="40.48238"
       sodipodi:start="0.27586153"
       sodipodi:end="5.9968605"
       sodipodi:arc-type="slice"
       d="M 88.604758,514.57962 A 40.505081,40.48238 0 0 1 44.166906,543.66552 40.505081,40.48238 0 0 1 9.126611,503.76498 40.505081,40.48238 0 0 1 43.747271,463.5002 40.505081,40.48238 0 0 1 88.48719,492.11981 l -38.856052,11.43338 z" />
    <path
       style="display:inline;fill:#fb5607;fill-opacity:1;stroke:#fb5607;stroke-width:2.13543;stroke-opacity:1"
       id="path107479-6-8-9-0-8-9-1"
       sodipodi:type="arc"
       sodipodi:cx="130.24298"
       sodipodi:cy="503.55316"
       sodipodi:rx="40.498135"
       sodipodi:ry="40.482388"
       sodipodi:start="3.4262187"
       sodipodi:end="2.8672958"
       sodipodi:arc-type="slice"
       d="m 91.374219,492.18577 a 40.498135,40.482388 0 0 1 44.716241,-28.69078 40.498135,40.482388 0 0 1 34.65012,40.26725 40.498135,40.482388 0 0 1 -35.06435,39.90733 40.498135,40.482388 0 0 1 -44.417397,-29.15094 l 38.984147,-10.96547 z" />
    <path
       style="display:inline;fill:#3a86ff;fill-opacity:1;stroke:#3a86ff;stroke-width:2.13543;stroke-opacity:1"
       id="path107479-6-8-6"
       sodipodi:type="arc"
       sodipodi:cx="112.54443"
       sodipodi:cy="238.32224"
       sodipodi:rx="20.476685"
       sodipodi:ry="20.254499"
       sodipodi:start="4.7016552"
       sodipodi:end="4.6983914"
       sodipodi:arc-type="arc"
       sodipodi:open="true"
       d="m 112.32465,218.0689 a 20.476685,20.254499 0 0 1 20.6951,20.01941 20.476685,20.254499 0 0 1 -20.22211,20.48688 20.476685,20.254499 0 0 1 -20.728112,-19.98598 20.476685,20.254499 0 0 1 20.188292,-20.51949" />
    <path
       style="display:inline;fill:#3a86ff;fill-opacity:1;stroke:#3a86ff;stroke-width:2.13543;stroke-opacity:1"
       id="path107479-6-8-6-4"
       sodipodi:type="arc"
       sodipodi:cx="196.54443"
       sodipodi:cy="238.32224"
       sodipodi:rx="20.476685"
       sodipodi:ry="20.254499"
       sodipodi:start="4.7016552"
       sodipodi:end="4.6983914"
       sodipodi:arc-type="arc"
       sodipodi:open="true"
       d="m 196.32465,218.0689 a 20.476685,20.254499 0 0 1 20.6951,20.01941 20.476685,20.254499 0 0 1 -20.22211,20.48688 20.476685,20.254499 0 0 1 -20.72811,-19.98598 20.476685,20.254499 0 0 1 20.18829,-20.51949" />
    <path
       style="display:inline;fill:none;fill-opacity:1;stroke:#fb5607;stroke-width:2.13543;stroke-opacity:1"
       id="path107479-6-4-5"
       sodipodi:type="arc"
       sodipodi:cx="239.67448"
       sodipodi:cy="239.4166"
       sodipodi:rx="20.476685"
       sodipodi:ry="20.254499"
       sodipodi:start="4.9001179"
       sodipodi:end="4.8771177"
       sodipodi:arc-type="arc"
       sodipodi:open="true"
       d="m 243.49601,219.51796 a 20.476685,20.254499 0 0 1 16.31704,23.56422 20.476685,20.254499 0 0 1 -23.7285,16.27521 20.476685,20.254499 0 0 1 -16.58991,-23.37706 20.476685,20.254499 0 0 1 23.53771,-16.54405" />
    <path
       style="display:inline;fill:#3a86ff;fill-opacity:1;stroke:#3a86ff;stroke-width:2.13543;stroke-opacity:1"
       id="path107479-9-2-2"
       sodipodi:type="arc"
       sodipodi:cx="281.6745"
       sodipodi:cy="239.4166"
       sodipodi:rx="20.476685"
       sodipodi:ry="20.254499"
       sodipodi:start="3.451661"
       sodipodi:end="2.7855392"
       sodipodi:arc-type="slice"
       d="m 262.17429,233.23647 a 20.476685,20.254499 0 0 1 22.42931,-13.86608 20.476685,20.254499 0 0 1 17.54217,19.58054 20.476685,20.254499 0 0 1 -16.61366,20.35749 20.476685,20.254499 0 0 1 -23.04999,-12.83155 l 19.19238,-7.06027 z" />
    <path
       style="display:inline;fill:none;fill-opacity:1;stroke:#fb5607;stroke-width:2.13543;stroke-opacity:1"
       id="path107479-6-1-7-1"
       sodipodi:type="arc"
       sodipodi:cx="324.23175"
       sodipodi:cy="239.96378"
       sodipodi:rx="20.476685"
       sodipodi:ry="20.254499"
       sodipodi:start="4.7016552"
       sodipodi:end="4.6983914"
       sodipodi:arc-type="arc"
       sodipodi:open="true"
       d="m 324.01196,219.71044 a 20.476685,20.254499 0 0 1 20.69511,20.01941 20.476685,20.254499 0 0 1 -20.22212,20.48688 20.476685,20.254499 0 0 1 -20.72811,-19.98597 20.476685,20.254499 0 0 1 20.1883,-20.5195" />
    <path
       style="display:inline;fill:#3a86ff;fill-opacity:1;stroke:#3a86ff;stroke-width:2.13543;stroke-opacity:1"
       id="path107479-0-4-9"
       sodipodi:type="arc"
       sodipodi:cx="365.11725"
       sodipodi:cy="238.86942"
       sodipodi:rx="20.476685"
       sodipodi:ry="20.254499"
       sodipodi:start="4.7016552"
       sodipodi:end="1.2372549"
       sodipodi:arc-type="slice"
       d="m 364.89746,218.61608 a 20.476685,20.254499 0 0 1 20.39385,16.78397 20.476685,20.254499 0 0 1 -13.47017,22.60762 l -6.70389,-19.13825 z" />
    <path
       style="display:inline;fill:#fb5607;fill-opacity:1;stroke:#fb5607;stroke-width:2.13543;stroke-opacity:1"
       id="path107479-6-4-0-9"
       sodipodi:type="arc"
       sodipodi:cx="407.67456"
       sodipodi:cy="238.32224"
       sodipodi:rx="20.476685"
       sodipodi:ry="20.254499"
       sodipodi:start="4.7016552"
       sodipodi:end="4.6983914"
       sodipodi:arc-type="arc"
       sodipodi:open="true"
       d="m 407.45477,218.0689 a 20.476685,20.254499 0 0 1 20.69511,20.01941 20.476685,20.254499 0 0 1 -20.22212,20.48688 20.476685,20.254499 0 0 1 -20.72811,-19.98598 20.476685,20.254499 0 0 1 20.1883,-20.51949" />
    <path
       style="display:inline;fill:none;fill-opacity:1;stroke:#fb5607;stroke-width:2.13543;stroke-opacity:1"
       id="path107479-6-1-7-2-0"
       sodipodi:type="arc"
       sodipodi:cx="492.23181"
       sodipodi:cy="238.32217"
       sodipodi:rx="20.476685"
       sodipodi:ry="20.254499"
       sodipodi:start="1.9686572"
       sodipodi:end="4.7104671"
       sodipodi:arc-type="arc"
       d="m 484.29818,256.99463 a 20.476685,20.254499 0 0 1 -12.1431,-22.65609 20.476685,20.254499 0 0 1 20.03738,-16.27083"
       sodipodi:open="true" />
    <path
       style="display:inline;fill:#fb5607;fill-opacity:1;stroke:#fb5607;stroke-width:2.13543;stroke-opacity:1"
       id="path107479-1"
       sodipodi:type="arc"
       sodipodi:cx="28.559984"
       sodipodi:cy="196.32224"
       sodipodi:rx="20.476685"
       sodipodi:ry="20.254499"
       sodipodi:start="5.585182"
       sodipodi:end="4.4503958"
       sodipodi:arc-type="slice"
       d="m 44.247724,183.30489 a 20.476685,20.254499 0 0 1 1.337457,24.27095 20.476685,20.254499 0 0 1 -23.182016,8.06365 A 20.476685,20.254499 0 0 1 8.0881221,195.88268 20.476685,20.254499 0 0 1 23.256395,176.75891 l 5.303589,19.56333 z" />
    <path
       style="display:inline;fill:none;fill-opacity:1;stroke:#fb5607;stroke-width:2.13543;stroke-opacity:1"
       id="path107479-9-3"
       sodipodi:type="arc"
       sodipodi:cx="113.11723"
       sodipodi:cy="196.86942"
       sodipodi:rx="20.476685"
       sodipodi:ry="20.254499"
       sodipodi:start="5.4982993"
       sodipodi:end="4.4164181"
       sodipodi:arc-type="arc"
       d="m 127.60385,182.55466 a 20.476685,20.254499 0 0 1 3.32965,24.29856 20.476685,20.254499 0 0 1 -22.78241,9.66599 20.476685,20.254499 0 0 1 -15.503884,-19.13335 20.476685,20.254499 0 0 1 14.497624,-19.89027"
       sodipodi:open="true" />
    <path
       style="display:inline;fill:none;fill-opacity:1;stroke:#fb5607;stroke-width:2.13543;stroke-opacity:1"
       id="path107479-6-1-3"
       sodipodi:type="arc"
       sodipodi:cx="155.67448"
       sodipodi:cy="197.4166"
       sodipodi:rx="20.476685"
       sodipodi:ry="20.254499"
       sodipodi:start="5.1035698"
       sodipodi:end="4.4886229"
       sodipodi:arc-type="arc"
       sodipodi:open="true"
       d="m 163.48184,178.69213 a 20.476685,20.254499 0 0 1 12.0948,23.48871 20.476685,20.254499 0 0 1 -21.6142,15.41934 20.476685,20.254499 0 0 1 -18.71445,-18.76633 20.476685,20.254499 0 0 1 15.88265,-21.16678" />
    <path
       style="display:inline;fill:none;fill-opacity:1;stroke:#fb5607;stroke-width:2.13543;stroke-opacity:1"
       id="path107479-0-7"
       sodipodi:type="arc"
       sodipodi:cx="197.1172"
       sodipodi:cy="196.86942"
       sodipodi:rx="20.476685"
       sodipodi:ry="20.254499"
       sodipodi:start="5.2667251"
       sodipodi:end="4.1569888"
       sodipodi:arc-type="arc"
       d="m 207.8957,179.64803 a 20.476685,20.254499 0 0 1 8.91817,22.7585 20.476685,20.254499 0 0 1 -19.68577,14.71738 20.476685,20.254499 0 0 1 -19.7016,-14.69665 20.476685,20.254499 0 0 1 8.89369,-22.76788"
       sodipodi:open="true" />
    <path
       style="display:inline;fill:#3a86ff;fill-opacity:1;stroke:#3a86ff;stroke-width:2.13543;stroke-opacity:1"
       id="path107479-9-2-8"
       sodipodi:type="arc"
       sodipodi:cx="281.67444"
       sodipodi:cy="197.4166"
       sodipodi:rx="20.476685"
       sodipodi:ry="20.254499"
       sodipodi:start="3.451661"
       sodipodi:end="2.7855392"
       sodipodi:arc-type="slice"
       d="m 262.17423,191.23647 a 20.476685,20.254499 0 0 1 22.42931,-13.86608 20.476685,20.254499 0 0 1 17.54217,19.58054 20.476685,20.254499 0 0 1 -16.61366,20.35749 20.476685,20.254499 0 0 1 -23.04999,-12.83155 l 19.19238,-7.06027 z" />
    <path
       style="display:inline;fill:none;fill-opacity:1;stroke:#fb5607;stroke-width:2.13543;stroke-opacity:1"
       id="path107479-6-1-7-6"
       sodipodi:type="arc"
       sodipodi:cx="324.23175"
       sodipodi:cy="197.96378"
       sodipodi:rx="20.476685"
       sodipodi:ry="20.254499"
       sodipodi:start="4.7016552"
       sodipodi:end="4.6983914"
       sodipodi:arc-type="arc"
       sodipodi:open="true"
       d="m 324.01196,177.71044 a 20.476685,20.254499 0 0 1 20.69511,20.01941 20.476685,20.254499 0 0 1 -20.22212,20.48688 20.476685,20.254499 0 0 1 -20.72811,-19.98597 20.476685,20.254499 0 0 1 20.1883,-20.5195" />
    <path
       style="display:inline;fill:#3a86ff;fill-opacity:1;stroke:#3a86ff;stroke-width:2.13543;stroke-opacity:1"
       id="path107479-9-2-3-4"
       sodipodi:type="arc"
       sodipodi:cx="449.6745"
       sodipodi:cy="197.4166"
       sodipodi:rx="20.476685"
       sodipodi:ry="20.254499"
       sodipodi:start="2.4751473"
       sodipodi:end="1.607395"
       sodipodi:arc-type="arc"
       d="m 433.57933,209.93784 a 20.476685,20.254499 0 0 1 0.26894,-25.37353 20.476685,20.254499 0 0 1 25.10851,-5.20163 20.476685,20.254499 0 0 1 10.53979,23.13434 20.476685,20.254499 0 0 1 -20.57132,15.16051"
       sodipodi:open="true" />
    <path
       style="display:inline;fill:#3a86ff;fill-opacity:1;stroke:#3a86ff;stroke-width:2.13543;stroke-opacity:1"
       id="path107479-6-4-7"
       sodipodi:type="arc"
       sodipodi:cx="239.67451"
       sodipodi:cy="155.4166"
       sodipodi:rx="20.476685"
       sodipodi:ry="20.254499"
       sodipodi:start="1.6662429"
       sodipodi:end="5.7187483"
       sodipodi:arc-type="slice"
       d="m 237.72305,175.57891 a 20.476685,20.254499 0 0 1 -18.36669,-17.64684 20.476685,20.254499 0 0 1 13.40311,-21.58007 20.476685,20.254499 0 0 1 24.21559,8.22965 l -17.30055,10.83495 z" />
    <path
       style="display:inline;fill:#3a86ff;fill-opacity:1;stroke:#3a86ff;stroke-width:2.13543;stroke-opacity:1"
       id="path107479-0-4-1"
       sodipodi:type="arc"
       sodipodi:cx="365.11725"
       sodipodi:cy="154.86942"
       sodipodi:rx="20.476685"
       sodipodi:ry="20.254499"
       sodipodi:start="3.517108"
       sodipodi:end="1.6484315"
       sodipodi:arc-type="slice"
       d="m 346.06741,147.44104 a 20.476685,20.254499 0 0 1 24.6343,-12.05833 20.476685,20.254499 0 0 1 14.57256,23.05164 20.476685,20.254499 0 0 1 -21.74514,16.62856 l 1.58812,-20.19349 z" />
    <path
       style="display:inline;fill:none;fill-opacity:1;stroke:#3a86ff;stroke-width:2.13543;stroke-opacity:1"
       id="path107479-9-2-3-9"
       sodipodi:type="arc"
       sodipodi:cx="449.6745"
       sodipodi:cy="155.4166"
       sodipodi:rx="20.476685"
       sodipodi:ry="20.254499"
       sodipodi:start="2.5670812"
       sodipodi:end="1.5676217"
       sodipodi:arc-type="arc"
       d="m 432.48519,166.42339 a 20.476685,20.254499 0 0 1 2.15687,-24.7599 20.476685,20.254499 0 0 1 24.78752,-4.05524 20.476685,20.254499 0 0 1 10.10169,22.75441 20.476685,20.254499 0 0 1 -19.79176,15.30833"
       sodipodi:open="true" />
    <path
       style="display:inline;fill:none;fill-opacity:1;stroke:#fb5607;stroke-width:2.13543;stroke-opacity:1"
       id="path107479-6-1-8"
       sodipodi:type="arc"
       sodipodi:cx="155.67448"
       sodipodi:cy="113.4166"
       sodipodi:rx="20.476685"
       sodipodi:ry="20.254499"
       sodipodi:start="4.7069597"
       sodipodi:end="3.1435772"
       sodipodi:arc-type="arc"
       d="m 155.56331,93.162402 a 20.476685,20.254499 0 0 1 19.00102,12.436278 20.476685,20.254499 0 0 1 -4.38573,22.11533 20.476685,20.254499 0 0 1 -22.34268,4.41429 20.476685,20.254499 0 0 1 -12.63808,-18.75189"
       sodipodi:open="true" />
    <path
       style="display:inline;fill:none;fill-opacity:1;stroke:#fb5607;stroke-width:2.13543;stroke-opacity:1"
       id="path107479-0-6"
       sodipodi:type="arc"
       sodipodi:cx="197.11723"
       sodipodi:cy="112.86942"
       sodipodi:rx="20.476685"
       sodipodi:ry="20.254499"
       sodipodi:start="1.5091472"
       sodipodi:end="0.029995735"
       sodipodi:arc-type="arc"
       sodipodi:open="true"
       d="m 198.3788,133.08544 a 20.476685,20.254499 0 0 1 -19.86189,-11.74606 20.476685,20.254499 0 0 1 3.89379,-22.563595 20.476685,20.254499 0 0 1 22.67645,-4.563698 20.476685,20.254499 0 0 1 12.49756,19.264793" />
    <path
       style="display:inline;fill:none;fill-opacity:1;stroke:#fb5607;stroke-width:2.13543;stroke-opacity:1"
       id="path107479-6-4-08"
       sodipodi:type="arc"
       sodipodi:cx="239.67448"
       sodipodi:cy="113.4166"
       sodipodi:rx="20.476685"
       sodipodi:ry="20.254499"
       sodipodi:start="6.2331617"
       sodipodi:end="4.7148798"
       sodipodi:arc-type="arc"
       sodipodi:open="true"
       d="m 260.12555,112.40382 a 20.476685,20.254499 0 0 1 -11.92249,19.42686 20.476685,20.254499 0 0 1 -22.6596,-3.75568 20.476685,20.254499 0 0 1 -4.86925,-22.20996 20.476685,20.254499 0 0 1 19.05128,-12.702874" />
    <path
       style="display:inline;fill:#3a86ff;fill-opacity:1;stroke:#3a86ff;stroke-width:2.13543;stroke-opacity:1"
       id="path107479-9-2-92"
       sodipodi:type="arc"
       sodipodi:cx="281.6745"
       sodipodi:cy="113.4166"
       sodipodi:rx="20.476685"
       sodipodi:ry="20.254499"
       sodipodi:start="3.1421037"
       sodipodi:end="2.0224492"
       sodipodi:arc-type="slice"
       d="m 261.19782,113.40625 a 20.476685,20.254499 0 0 1 14.82959,-19.458684 20.476685,20.254499 0 0 1 23.0035,8.721864 20.476685,20.254499 0 0 1 -2.11912,24.27791 20.476685,20.254499 0 0 1 -24.17441,4.69278 l 8.93712,-18.22352 z" />
    <path
       style="display:inline;fill:none;fill-opacity:1;stroke:#fb5607;stroke-width:2.13543;stroke-opacity:1"
       id="path107479-6-1-7-23"
       sodipodi:type="arc"
       sodipodi:cx="324.23175"
       sodipodi:cy="113.96378"
       sodipodi:rx="20.476685"
       sodipodi:ry="20.254499"
       sodipodi:start="4.7016552"
       sodipodi:end="4.6983914"
       sodipodi:arc-type="arc"
       sodipodi:open="true"
       d="m 324.01196,93.710451 a 20.476685,20.254499 0 0 1 20.69511,20.019399 20.476685,20.254499 0 0 1 -20.22212,20.48688 20.476685,20.254499 0 0 1 -20.72811,-19.98597 20.476685,20.254499 0 0 1 20.1883,-20.519492" />
    <path
       style="display:inline;fill:none;fill-opacity:1;stroke:#fb5607;stroke-width:2.13543;stroke-opacity:1"
       id="path107479-9-2-3-3"
       sodipodi:type="arc"
       sodipodi:cx="449.6745"
       sodipodi:cy="113.4166"
       sodipodi:rx="20.476685"
       sodipodi:ry="20.254499"
       sodipodi:start="3.192417"
       sodipodi:end="1.1644831"
       sodipodi:arc-type="arc"
       sodipodi:open="true"
       d="m 429.22426,112.38762 a 20.476685,20.254499 0 0 1 18.37431,-19.12116 20.476685,20.254499 0 0 1 21.89596,15.06193 20.476685,20.254499 0 0 1 -11.72712,23.69368" />
    <path
       style="display:inline;fill:#3a86ff;fill-opacity:1;stroke:#3a86ff;stroke-width:2.13543;stroke-opacity:1"
       id="path107479-6-7"
       sodipodi:type="arc"
       sodipodi:cx="71.117264"
       sodipodi:cy="70.869415"
       sodipodi:rx="20.476685"
       sodipodi:ry="20.254499"
       sodipodi:start="4.9361009"
       sodipodi:end="4.4867875"
       sodipodi:arc-type="slice"
       d="M 75.660028,51.119644 A 20.476685,20.254499 0 0 1 91.46706,73.120772 20.476685,20.254499 0 0 1 71.13661,91.123906 20.476685,20.254499 0 0 1 50.771805,73.158803 20.476685,20.254499 0 0 1 66.53678,51.12817 l 4.580484,19.741245 z" />
    <path
       style="display:inline;fill:#3a86ff;fill-opacity:1;stroke:#3a86ff;stroke-width:2.13543;stroke-opacity:1"
       id="path107479-6-1-0"
       sodipodi:type="arc"
       sodipodi:cx="155.67451"
       sodipodi:cy="71.416595"
       sodipodi:rx="20.393986"
       sodipodi:ry="20.254499"
       sodipodi:start="2.9259008"
       sodipodi:end="0.21618914"
       sodipodi:arc-type="slice"
       d="m 135.75309,75.75153 a 20.393986,20.254499 0 0 1 8.48484,-21.104917 20.393986,20.254499 0 0 1 22.88157,0.0056 20.393986,20.254499 0 0 1 8.47427,21.109106 l -19.91926,-4.344774 z" />
    <path
       style="display:inline;fill:#3a86ff;fill-opacity:1;stroke:#3a86ff;stroke-width:2.13543;stroke-opacity:1"
       id="path107479-6-4-4"
       sodipodi:type="arc"
       sodipodi:cx="112.54597"
       sodipodi:cy="364.32272"
       sodipodi:rx="20.476685"
       sodipodi:ry="20.254499"
       sodipodi:start="0.27889649"
       sodipodi:end="6.2768169"
       sodipodi:arc-type="slice"
       d="m 132.23143,369.89868 a 20.476685,20.254499 0 0 1 -23.90556,14.24373 20.476685,20.254499 0 0 1 -16.066777,-22.57111 20.476685,20.254499 0 0 1 21.615857,-17.46037 20.476685,20.254499 0 0 1 19.14729,20.08281 l -20.47627,0.12898 z" />
    <path
       style="display:inline;fill:#3a86ff;fill-opacity:1;stroke:#3a86ff;stroke-width:2.13543;stroke-opacity:1"
       id="path107479-9-2-9"
       sodipodi:type="arc"
       sodipodi:cx="281.67447"
       sodipodi:cy="71.416595"
       sodipodi:rx="20.476685"
       sodipodi:ry="20.254499"
       sodipodi:start="2.3801792"
       sodipodi:end="2.2520778"
       sodipodi:arc-type="arc"
       d="m 266.85218,85.391092 a 20.476685,20.254499 0 0 1 0.22713,-28.18097 20.476685,20.254499 0 0 1 28.48277,-0.677802 20.476685,20.254499 0 0 1 1.5969,28.137564 20.476685,20.254499 0 0 1 -28.3805,2.479724"
       sodipodi:open="true" />
    <path
       style="display:inline;fill:none;fill-opacity:1;stroke:#fb5607;stroke-width:2.13543;stroke-opacity:1"
       id="path107479-0-4-4"
       sodipodi:type="arc"
       sodipodi:cx="365.11728"
       sodipodi:cy="70.869415"
       sodipodi:rx="20.476685"
       sodipodi:ry="20.254499"
       sodipodi:start="4.7016552"
       sodipodi:end="2.6633266"
       sodipodi:arc-type="arc"
       d="m 364.89749,50.616083 a 20.476685,20.254499 0 0 1 20.41303,16.894963 20.476685,20.254499 0 0 1 -13.7049,22.56917 20.476685,20.254499 0 0 1 -24.66742,-9.88886"
       sodipodi:open="true" />
    <path
       style="display:inline;fill:#fb5607;fill-opacity:1;stroke:#fb5607;stroke-width:2.13543;stroke-opacity:1"
       id="path107479-6-4-0-2"
       sodipodi:type="arc"
       sodipodi:cx="407.67453"
       sodipodi:cy="71.416595"
       sodipodi:rx="20.476685"
       sodipodi:ry="20.254499"
       sodipodi:start="4.7016552"
       sodipodi:end="4.6983914"
       sodipodi:arc-type="arc"
       sodipodi:open="true"
       d="M 407.45474,51.163263 A 20.476685,20.254499 0 0 1 428.14985,71.182667 20.476685,20.254499 0 0 1 407.92773,91.669546 20.476685,20.254499 0 0 1 387.19962,71.683575 20.476685,20.254499 0 0 1 407.38792,51.16408" />
    <path
       style="display:inline;fill:#3a86ff;fill-opacity:1;stroke:#3a86ff;stroke-width:2.13543;stroke-opacity:1"
       id="path107479-6-1-7-2-2"
       sodipodi:type="arc"
       sodipodi:cx="492.23178"
       sodipodi:cy="71.963783"
       sodipodi:rx="20.476685"
       sodipodi:ry="20.254499"
       sodipodi:start="1.5723946"
       sodipodi:end="4.7104671"
       sodipodi:arc-type="slice"
       d="M 492.19905,92.218257 A 20.476685,20.254499 0 0 1 471.7551,71.967061 20.476685,20.254499 0 0 1 492.19243,51.709321 l 0.0394,20.254462 z" />
    <path
       style="display:inline;fill:none;fill-opacity:1;stroke:#fb5607;stroke-width:2.13543;stroke-opacity:1"
       id="path107479-0-3"
       sodipodi:type="arc"
       sodipodi:cx="197.11723"
       sodipodi:cy="70.869415"
       sodipodi:rx="20.476685"
       sodipodi:ry="20.254499"
       sodipodi:start="1.1484725"
       sodipodi:end="0.17263008"
       sodipodi:arc-type="arc"
       sodipodi:open="true"
       d="m 205.51024,89.344332 a 20.476685,20.254499 0 0 1 -24.49021,-5.956231 20.476685,20.254499 0 0 1 -0.0723,-24.94588 20.476685,20.254499 0 0 1 24.45528,-6.095015 20.476685,20.254499 0 0 1 11.88654,22.001404" />
    <path
       sodipodi:type="star"
       style="fill:#ffffff;stroke:#ffffff;stroke-width:2.13543;stroke-opacity:1"
       id="path10711"
       inkscape:flatsided="true"
       sodipodi:sides="3"
       sodipodi:cx="349.84225"
       sodipodi:cy="398.40726"
       sodipodi:r1="776.94299"
       sodipodi:r2="101.00259"
       sodipodi:arg1="0.50003232"
       sodipodi:arg2="1.5472299"
       inkscape:rounded="0"
       inkscape:randomized="0"
       d="M 1031.6618,770.91561 -313.66923,802.62616 331.53416,-378.32 Z"
       transform="matrix(0.2519423,0.00523595,-0.00561199,0.23506045,213.99657,162.7148)"
       inkscape:transform-center-x="3.2247568"
       inkscape:transform-center-y="-1.8329194" />
    <path
       style="fill:#3a86ff;fill-opacity:1;stroke:#3a86ff;stroke-width:0.725273;stroke-opacity:1"
       id="path101161"
       d="m 367.20227,640.29994 c 10.98817,-14.01024 20.50243,-29.23031 31.94865,-42.79644 7.1782,-10.88432 15.28877,-23.71085 18.17266,-35.17858 1.52608,-6.60231 1.96719,-30.31426 0.844,-36.8388 -4.8698,-36.53773 -27.35976,-71.84524 -55.99673,-78.34782 0.41241,2.0618 0.61256,47.38928 1.85695,48.62357 3.78198,38.4654 26.54183,19.17141 28.70018,38.66655 -2.56896,21.4641 -1.40565,29.02427 -6.56719,42.97856 -11.42565,13.57547 -18.26466,45.41506 -29.2535,59.41436 -7.23897,8.68985 -23.73149,5.91431 -22.56884,25.22994 17.99202,-2.99344 29.75153,-5.22296 32.86382,-21.75134 z"
       sodipodi:nodetypes="ccccccccccc" />
    <path
       style="fill:#38b000;fill-opacity:1;stroke:#38b000;stroke-width:0.725273;stroke-opacity:1"
       id="path97518"
       d="m 337.90706,656.75613 c 25.99008,-4.77143 62.96131,-95.87089 53.07035,-135.43367 -12.44314,-38.63765 -20.23623,14.8261 -25.78154,-26.7129 -1.29059,-9.46299 -3.87362,-29.87121 -4.08484,-38.73528 -0.061,-2.35553 -0.0319,-1.23801 -0.0875,-3.35271 l -4.16427,2.30683 -6.43711,-8.09574 c -12.81032,6.33457 -5.88487,32.20452 1.25774,67.58123 0.53323,7.58208 20.08721,32.56959 19.23578,40.16895 1.19044,8.14041 -13.69785,7.30508 -15.55019,12.55333 -7.3317,26.66699 -15.45531,54.94768 -22.18972,75.69948 0.0713,9.95142 0.74861,20.35489 4.73126,14.02048 z"
       sodipodi:nodetypes="cccccccccccc" />
    <path
       style="fill:#fb5607;fill-opacity:1;stroke:#fb5607;stroke-width:0.725273;stroke-opacity:1"
       id="path93548"
       d="m 352.22128,574.89288 c 11.01718,-3.68006 37.21252,-19.65599 22.49535,-46.12206 -26.60954,3.22035 -35.41513,-64.8848 -25.82517,-80.81656 0.73385,-1.60227 -0.39076,-1.52906 -3.7272,-7.48498 -9.50098,-7.85076 -9.00639,-4.79816 -14.97688,6.35687 -3.49238,10.58038 2.23819,26.7954 6.67479,37.43314 -3.05652,10.43404 -9.33809,23.37463 -10.50819,26.08925 -10.95268,18.57233 -27.81649,8.97311 -28.99763,26.26842 z"
       sodipodi:nodetypes="ccccccccc" />
    <path
       style="fill:#3a86ff;fill-opacity:1;stroke:#3a86ff;stroke-width:1.41994;stroke-opacity:1"
       id="path90555"
       d="m 297.31832,537.08501 c -2.19891,-22.8981 36.22813,-8.08768 42.58371,-25.31459 5.95688,-22.80065 -9.40674,-35.37131 -9.58287,-55.5582 2.06992,-5.61783 2.32306,-11.55287 4.31732,-16.76028 0.73572,-1.74904 1.34976,-3.56828 2.31785,-5.17658 0.46565,-0.68086 0.91168,-1.38817 1.51228,-1.93088 0.12065,-0.10898 0.50943,-0.39832 0.65009,-0.50444 0.50291,-0.18499 0.76378,-0.59313 1.07537,-1.03602 l -8.58597,4.03013 v 0 c -0.33792,0.33062 -0.76032,0.50995 -1.07598,0.87412 -0.73607,0.77402 -1.3193,1.71366 -1.83369,2.68347 -0.77423,1.657 -1.39636,3.38932 -1.93858,5.15851 -8.24158,9.42703 -15.01839,21.7137 -21.00843,29.83829 -5.54582,4.27991 -13.39148,13.30683 -18.392,18.38504 -15.89621,4.72328 -14.19542,22.21635 -18.76212,29.38146 -6.47353,-0.88302 -15.66645,12.96537 -10.98902,21.44123 10.65824,-2.89594 34.35586,-0.2098 39.71204,-5.51126 z"
       sodipodi:nodetypes="cccccscccscccccccc" />
    <path
       style="fill:#38b000;fill-opacity:1;stroke:#38b000;stroke-width:0.725273;stroke-opacity:1"
       id="path82754"
       d="m 202.74361,563.80342 c 2.59685,-0.76734 4.75783,0.21014 7.34041,-0.6201 0.70882,-0.22787 1.4086,-0.48707 2.11291,-0.73058 0.70161,-0.26583 1.40444,-0.52803 2.10485,-0.79748 2.03835,-0.78416 2.32029,-0.929 4.36698,-1.66868 2.12064,-0.76642 4.25962,-1.43641 6.41689,-2.07108 9.87461,-2.60116 18.12891,-6.48551 26.11613,-11.548 5.20757,-2.69196 6.1193,-3.59039 6.4045,-3.77123 4.71678,-2.50448 3.23085,-0.0804 6.81326,-5.38684 l 0.17767,-1.91126 c -3.40186,1.88679 -0.98105,1.1316 -4.31157,2.92544 -3.54392,2.99768 -9.67066,-1.16279 -14.48725,0.64499 -6.20845,4.48135 -9.45424,7.23089 -17.00394,14.30395 -5.24107,1.93402 -9.39891,1.95312 -14.4287,3.84847 -5.12282,1.17189 -7.63541,3.44568 -11.62214,6.7824 z"
       sodipodi:nodetypes="cscsscccccccccc" />
    <path
       style="fill:#38b000;fill-opacity:1;stroke:#38b000;stroke-width:0.725273;stroke-opacity:1"
       id="path77526"
       d="m 216.03503,555.87521 c 13.74925,1.63393 19.81287,-12.01688 30.02498,-17.74521 11.81518,4.61353 20.30757,-3.22554 26.01333,-12.39472 2.34433,-3.38644 7.02295,-8.23475 0.38364,-4.5572 v 0 c -7.80054,4.46688 -16.19307,1.48054 -20.85166,4.89249 -11.60017,5.61622 -20.27888,12.95559 -30.57214,23.92958 -27.57475,9.82783 -23.43159,18.59336 -4.99815,5.87506 z"
       sodipodi:nodetypes="cccccccc" />
    <path
       style="fill:#ffbe0b;fill-opacity:1;stroke:#ffbe0b;stroke-width:0.725273;stroke-opacity:1"
       id="path73488"
       d="m 196.8434,566.58082 c 11.61609,-5.95634 32.34905,-23.66379 42.63335,-31.39799 14.30245,-20.25857 32.715,-0.39164 57.10367,-33.32114 3.40504,-4.99497 7.91043,-11.67406 11.5757,-15.27835 3.58913,-3.17598 -5.65876,-9.27353 6.08454,-14.21224 -3.46209,-2.87582 8.49894,-20.21736 14.74242,-28.19088 1.87727,-2.7699 3.90487,-5.67875 5.45049,-8.67733 2.42491,-4.22918 -1.27702,-5.60322 -5.82184,-3.36643 v 0 c -1.91841,4.01068 -5.39014,8.97911 -7.99122,12.63909 -14.68393,15.43222 -13.86301,7.72016 -34.77269,33.98684 -11.33915,5.63556 -20.17666,19.9172 -26.61021,27.1237 -12.54736,10.62807 -22.91231,22.79213 -28.65754,29.62224 -7.74877,6.37069 -22.77082,18.22437 -29.90768,27.81433 l -3.82903,3.25822 z"
       sodipodi:nodetypes="cccccccccccccccc" />
    <path
       style="fill:#ffbe0b;fill-opacity:1;stroke:#ffbe0b;stroke-width:0.725273;stroke-opacity:1"
       id="path71271"
       d="m 195.78307,645.53514 c 11.44856,0.82976 18.77902,6.22091 30.16907,7.68559 -6.34594,20.36217 63.68846,5.1488 91.50658,12.25247 13.97171,2.65529 40.53182,4.39383 5.22398,-11.05299 -5.81088,-0.67629 -14.03568,-21.51824 -19.83784,-22.27375 -17.49987,6.53981 -20.5695,6.15923 -29.63747,3.43316 -9.85369,-0.63928 -15.27967,-6.29204 -24.82377,-6.57148 -10.97201,-1.55003 -37.65985,15.34935 -48.59093,13.49045 l -4.00962,3.03657 z"
       sodipodi:nodetypes="sccccccccs" />
    <path
       style="fill:#fb5607;fill-opacity:1;stroke:#fb5607;stroke-width:0.725273;stroke-opacity:1"
       id="path66929"
       d="m 194.81517,644.39444 c 7.27661,-2.94511 23.41209,4.29961 30.4731,0.8154 7.69726,-3.70402 10.08253,-8.55014 17.84503,-12.09535 12.1455,-10.45047 15.32512,1.27728 26.71937,6.74572 7.80039,-10.25681 14.36875,12.33842 16.80164,0.73363 6.41939,2.80312 8.79618,-5.73826 15.55992,-4.21508 9.17082,3.07755 13.42129,16.66297 21.73604,20.26196 13.76612,7.43061 -0.11903,-22.02006 -8.24492,-25.62606 -13.56086,-25.67127 -19.73395,-12.08141 -35.35693,2.30993 -3.59133,-2.06421 -6.0458,-5.50672 -9.70249,-7.43574 -2.43299,-1.1679 -7.60173,-1.19854 -10.26168,-1.62743 -12.31229,2.20236 -16.97673,-9.61468 -37.2282,-2.18666 -17.73436,7.57134 -16.3413,-4.48546 -18.56733,-4.50775 l -9.77355,26.82761 z"
       sodipodi:nodetypes="scccccccccccccs" />
    <path
       style="fill:#3a86ff;fill-opacity:1;stroke:#3a86ff;stroke-width:0.725273;stroke-opacity:1"
       id="path61864"
       d="m 202.43754,616.75607 c 3.91334,-0.006 5.21594,8.67948 9.12402,8.81599 7.75017,-0.33727 16.41578,-6.63056 23.59311,-6.27679 9.05523,0.47985 18.10698,4.68948 26.01611,7.05355 7.98512,-4.69304 17.03316,8.53608 20.0937,8.15648 3.78312,-2.78425 7.72301,-10.05545 10.11093,-11.60381 14.34314,-12.887 31.57892,13.96061 16.56995,-10.78417 -7.01372,-0.90794 -10.48248,-4.36803 -15.0186,-4.37477 -6.82436,1.53854 -6.87404,4.13111 -17.39815,3.73677 -4.19208,-1.23097 -12.91466,-1.47394 -17.00632,-3.05362 -7.12265,-1.27468 -9.58176,-6.77682 -20.34433,-4.51443 -8.82148,1.67736 -23.00264,1.17257 -31.2557,0.50011 l -4.48472,12.34666 z"
       sodipodi:nodetypes="cccccccccccccc" />
    <g
       id="g60348"
       transform="matrix(1.2386161,0,0,1.3303613,-68.486354,-228.93816)">
      <path
         style="fill:#38b000;fill-opacity:1;stroke:#38b000;stroke-width:0.564999;stroke-opacity:1"
         id="path56868"
         d="m 236.32983,629.43144 c 11.36015,0.15351 12.14938,-10.58838 31.07195,3.27239 9.06959,-6.12079 11.45494,3.88593 18.03701,-1.34758 2.05892,-1.80623 2.92281,-2.56824 8.37102,-2.53142 21.76182,7.8848 14.0148,1.3635 5.19757,-1.3464 -6.22352,-1.55925 -16.42143,-8.02889 -23.81689,-9.632 -28.08964,-5.23514 -29.49311,7.85223 -49.96623,8.4311 -12.75391,1.40209 7.31134,3.14366 11.10557,3.15391 z"
         sodipodi:nodetypes="cccccccc" />
    </g>
    <path
       style="fill:#ffbe0b;fill-opacity:1;stroke:#ffbe0b;stroke-width:0.725273;stroke-opacity:1"
       id="path53960"
       d="m 198.87635,607.09121 c 4.60535,-0.81261 9.74212,-1.66927 14.32206,-2.64174 5.58029,-1.07397 10.97906,-2.95807 16.33366,-4.91574 6.00256,-2.15344 12.18285,-3.44617 18.45938,-4.18941 12.23433,-0.69563 23.70439,0.56844 33.47721,2.28837 13.50006,4.00339 37.56796,16.97042 34.61043,9.42272 -9.21715,-19.64456 -46.48846,-31.21245 -62.97085,-28.34467 -81.56938,3.80017 -64.69961,16.95443 -54.23189,28.38047 z"
       sodipodi:nodetypes="cccccccc" />
    <path
       style="fill:#ffbe0b;fill-opacity:1;stroke:#ffbe0b;stroke-width:2.13543;stroke-opacity:1"
       id="path136285"
       sodipodi:type="arc"
       sodipodi:cx="251.63004"
       sodipodi:cy="312.74304"
       sodipodi:rx="57.108047"
       sodipodi:ry="50.757004"
       sodipodi:start="0.030974749"
       sodipodi:end="6.2768149"
       sodipodi:arc-type="slice"
       d="m 308.71069,314.31498 a 57.108047,50.757004 0 0 1 -58.31629,49.17318 57.108047,50.757004 0 0 1 -55.86809,-51.36952 57.108047,50.757004 0 0 1 57.2731,-50.13238 57.108047,50.757004 0 0 1 56.93751,50.43344 l -57.10688,0.32334 z" />
    <path
       style="fill:#ff006e;fill-opacity:1;stroke:#ff006e;stroke-width:0.940494;stroke-opacity:1"
       id="path13072"
       d="M 0.70600311,381.84758 C 22.084633,370.65124 44.758895,363.86834 67.525035,358.66976 c 9.974798,-2.27774 19.971907,-4.50627 30.048822,-5.93629 10.922103,-1.54991 21.927883,-1.99689 32.891833,-2.99536 30.10234,-0.75571 60.56516,-0.27359 89.64717,10.70658 14.67228,5.53968 27.23459,12.34398 38.13879,25.99532 41.38427,-7.5161 48.40306,2.01872 26.6311,48.85162 -26.22477,55.28417 -59.11827,120.87725 -121.90723,122.55638 -13.23292,19.31102 -28.53625,38.92149 -13.87942,46.84309 40.65627,18.08749 50.63955,-31.34681 118.16312,-26.25996 23.5208,3.79918 32.57738,8.68351 39.60649,33.35756 32.26141,88.56207 74.58934,87.21749 131.54656,1.6289 10.11532,-16.6607 -0.31049,-46.14154 15.05479,-67.68216 0.91884,-9.73815 -6.82055,-10.04275 10.7015,-41.17012 3.6229,-19.40079 29.79312,-32.81186 34.83333,-48.54795 -2.60586,2.29946 -14.73085,16.53942 -17.08704,19.2206 -28.14478,33.08461 -26.38614,38.19326 -51.44363,67.40275 -16.0082,16.30886 -74.77641,136.17216 -92.69367,114.67918 -24.85064,-30.21938 72.11958,-106.69165 -29.23216,-119.06022 -30.68435,-5.799 -55.22327,5.49236 -82.78091,17.9092 -52.91572,20.61746 -10.92023,-3.96549 8.69066,-26.13235 17.62182,-18.41399 18.60275,-18.57445 41.62219,-42.39481 67.44715,-70.82219 93.57448,-72.52604 40.2194,-120.61501 -29.39297,-28.2529 -59.84055,-24.85991 -80.40249,-25.59082 -31.20052,-1.10907 -72.64108,5.57634 -103.14854,6.21913 -10.90358,0.92988 -21.84707,1.30696 -32.71072,2.78962 -10.017717,1.3672 -19.950615,3.58772 -29.876351,5.75223 -9.074587,1.97891 -18.134788,4.1038 -27.112037,6.67536 -12.786145,3.66261 -25.432608,8.6609 -37.6896119,14.4645 z"
       sodipodi:nodetypes="csscsccccccccccccccccccscssscc" />
    <ellipse
       id="path24775"
       style="fill:#3a86ff;stroke:#3a86ff;stroke-width:0.339638"
       cx="392.4783"
       cy="501.06018"
       rx="0.20601003"
       ry="0.22126935" />
    <ellipse
       id="path24777"
       style="fill:#3a86ff;stroke:#3a86ff;stroke-width:0.339638"
       cx="392.4783"
       cy="501.06018"
       rx="0.20601003"
       ry="0.22126935" />
    <path
       style="fill:#8338ec;fill-opacity:1;stroke:#ffffff;stroke-width:0.725273;stroke-opacity:1"
       id="path28164"
       d="m 380.05919,343.00186 c -10.01716,-9.2277 -34.25053,-29.91255 -42.06165,-32.10164 -31.23096,-6.94472 -20.46081,0.59278 -36.20954,5.7333 77.20728,134.87673 -43.91359,-0.68716 -58.77456,13.84212 -4.0056,3.98497 -17.95799,42.68485 -19.28547,48.45015 -3.41422,17.72158 -1.43625,37.04289 4.81477,48.48785 22.38943,36.38884 65.20458,-22.99911 152.34423,50.07424 56.11722,56.60508 38.61758,155.98043 11.05425,199.75969 -24.68303,18.9202 -23.33121,21.305 -52.03012,16.56821 -29.54248,-4.77118 -62.50066,-19.35624 -84.64751,-19.78802 19.34685,-26.11051 -45.38686,-19.04524 -57.42422,-30.55515 -4.64004,-4.93721 11.25387,-29.53689 9.04897,-35.64297 0,0 -17.16705,-15.27334 -25.71216,-1.39097 -10.8298,62.11879 4.18813,55.74101 26.60883,61.35044 12.56112,-4.15358 26.38233,0.38875 37.13589,2.06541 44.92401,-25.56424 120.60051,17.03552 167.19653,-17.25566 22.61486,-15.60318 28.35033,-22.17257 36.15239,-65.2673 -0.25086,-30.26677 -0.19493,-63.27879 -7.25743,-91.44938 -11.80896,-28.5743 -15.95961,-45.58807 -65.56341,-62.97685 -79.6108,-25.49286 -101.40107,-2.24301 -123.7979,-18.70568 -21.43561,-26.12472 8.05748,-39.69692 15.08392,-52.80943 -8.00088,-25.56003 8.37986,-17.01025 29.52251,-13.23686 9.24307,-11.41508 6.78913,-23.57223 19.4015,-23.74965 4.17805,0.0246 8.3555,0.34901 12.46185,1.21677 4.65175,1.01937 9.28949,2.12937 13.85607,3.53146 8.37695,2.56591 16.72681,5.31256 24.83264,8.7524 53.67979,38.0067 51.83645,38.71816 13.24962,5.09752 z"
       sodipodi:nodetypes="ccccccccccccccccccccccccccc" />
    <ellipse
       id="path82756"
       style="fill:#38b000;stroke:#38b000;stroke-width:0.339638"
       cx="262.87488"
       cy="538.72516"
       rx="0.041230761"
       ry="0.044284761" />
    <ellipse
       id="path82758"
       style="fill:#38b000;stroke:#3a86ff;stroke-width:0.339638;stroke-opacity:1"
       cx="262.87488"
       cy="538.72516"
       rx="0.041230761"
       ry="0.044284761" />
    <ellipse
       id="path88665"
       style="fill:#3a86ff;stroke:#3a86ff;stroke-width:0.339638"
       cx="294.23404"
       cy="507.99323"
       rx="0.032424688"
       ry="0.034826413" />
    <ellipse
       id="path88667"
       style="fill:#3a86ff;stroke:#3a86ff;stroke-width:0.339638"
       cx="294.23404"
       cy="507.99323"
       rx="0.032424688"
       ry="0.034826413" />
    <ellipse
       id="path88669"
       style="fill:#3a86ff;stroke:#3a86ff;stroke-width:0.339638"
       cx="295.62933"
       cy="510.88022"
       rx="0.032424688"
       ry="0.034826413" />
    <ellipse
       id="path88671"
       style="fill:#3a86ff;stroke:#3a86ff;stroke-width:0.339638"
       cx="295.62933"
       cy="510.88022"
       rx="0.032424688"
       ry="0.034826413" />
    <ellipse
       id="path88673"
       style="fill:#3a86ff;stroke:#3a86ff;stroke-width:0.339638"
       cx="294.29507"
       cy="508.76642"
       rx="0.032424688"
       ry="0.034826413" />
    <path
       style="fill:#8338ec;fill-opacity:1;stroke:none;stroke-width:0.564999;stroke-opacity:1"
       id="path145673"
       d="m 278.71844,266.97364 c 9.2251,-9.97336 5.55302,-10.95082 10.43982,-14.95443 3.87832,-3.06374 4.41583,-7.8965 8.44115,-10.76598 2.07735,-1.53797 3.63085,-1.77053 5.79041,-3.18872 2.60421,-1.5715 4.27779,-2.30426 6.68444,-4.16881 0.97608,-0.75744 -1.3635,-4.34256 -0.54171,-5.27455 0.48678,-0.55208 3.74903,-1.84332 4.19959,-2.42454 0.6259,-0.95133 -2.3447,-3.7182 -1.65983,-4.61162 0.31189,-0.43242 -2.8973,-3.97826 -2.79744,-4.4925 l -4.43862,7.51592 v 0 c -0.12604,0.46363 -0.30003,0.89658 -0.61695,1.26804 -0.74517,0.83869 -1.5983,1.58039 -2.23459,2.51631 -1.15488,1.57317 -2.70458,2.12664 -4.36008,3.21154 -2.4425,1.84681 -5.05888,3.67886 -7.66838,5.27588 -2.13014,1.41145 -3.97994,3.42277 -6.02994,4.94996 -3.97361,2.86775 -8.14616,3.38527 -11.97204,6.44637 -6.93421,1.43859 -16.26341,8.766 -20.98368,13.08164 z"
       sodipodi:nodetypes="cccccsccccscccccccc" />
    <path
       style="fill:#3a86ff;fill-opacity:1;stroke:none;stroke-width:0.564999;stroke-opacity:1"
       id="path142908"
       d="m 220.93963,268.71904 c 3.85694,-0.80764 14.4537,-1.96518 18.26359,-2.98473 0.94246,-0.25222 1.8717,-0.55147 2.80755,-0.82719 11.46848,-4.28138 21.91957,-10.11963 31.92776,-15.49454 0.68893,-0.38055 1.38475,-0.74883 2.06677,-1.14167 1.80266,-1.03836 4.7825,-2.64683 6.73425,-4.11515 1.59758,-1.20189 3.05052,-2.61422 4.51903,-3.96564 3.09015,-2.91589 6.5491,-5.37543 10.13624,-7.63332 1.91744,-1.18831 3.89853,-2.27563 5.70529,-3.6335 1.19306,-0.89666 1.39198,-1.10974 2.50346,-2.08882 1.63418,-1.67658 3.2752,-3.3514 4.88342,-5.05384 0.79571,-0.75301 1.54017,-1.54538 2.21409,-2.40817 0.39139,-0.51431 0.83613,-0.9824 1.2755,-1.45507 l -0.5849,-3.35924 -4.11681,2.53433 c -7.07483,-0.54931 -8.5009,3.53064 -14.05691,3.7938 -6.08344,0.71948 -10.78602,4.58303 -16.40817,11.46892 -9.31024,3.11547 -9.17027,3.53771 -13.34884,6.78004 -9.07015,-0.32907 -17.90009,10.14976 -21.50452,12.76996 -3.71061,1.00716 -7.9272,6.29345 -11.50638,8.52797 z"
       sodipodi:nodetypes="csccssccscccccccccccc" />
    <path
       style="fill:#38b000;fill-opacity:1;stroke:none;stroke-width:0.564999;stroke-opacity:1"
       id="path136552"
       d="m 286.92756,225.94974 c 4.37688,-9.10605 7.95738,6.30629 18.76245,-6.82369 3.74722,-0.57991 4.20536,-4.31748 7.91731,-2.487 -4.27511,9.14631 -12.0703,15.51393 -6.11149,19.10671 -9.40115,-0.69679 -13.78562,7.41843 -17.40667,11.5913 -2.22512,4.15068 -20.62747,26.01131 -9.67375,33.66906 13.18433,4.12905 26.31619,-11.10237 33.3145,-15.24305 5.7067,-3.8223 17.92446,-25.8607 23.88574,-19.45417 1.26909,1.31674 0.0928,6.40747 -0.15038,8.05139 -2.27944,9.80432 -7.8736,12.64344 -15.04774,20.18096 -9.46869,10.61448 -17.25499,28.87457 -17.89678,40.30994 2.01561,-0.61647 3.65325,-1.81768 5.28388,-3.08336 2.69907,-2.09498 4.97722,-6.38488 6.84248,-9.24746 5.65785,-8.9802 7.9341,-16.65135 13.25606,-25.83054 2.09,-3.70898 4.43519,-7.79642 6.40242,-11.57851 2.43173,-4.67516 5.06492,-9.66872 5.92314,-14.94653 0.18521,-1.13905 0.0811,-2.3066 0.12166,-3.4599 -0.72655,-1.62866 -0.78891,-2.80801 -2.70656,-3.39359 -1.8166,-0.55472 -3.09935,0.33609 -4.6148,1.17379 -4.80476,2.65595 -5.29416,3.0318 -9.22661,5.53637 -4.18158,2.71075 -8.37824,5.40188 -12.54966,8.12746 -3.10176,2.02671 0.61672,0.0585 -5.10593,3.09348 -0.86445,0.45844 -1.76779,0.83944 -2.65168,1.25915 -0.42818,0.15499 -0.82921,0.45837 -1.2845,0.46495 -0.16174,0.003 -0.26085,-0.29482 -0.19706,-0.44346 0.53083,-1.2368 2.98188,-3.85075 3.50522,-4.46958 3.68697,-4.35976 2.87661,-3.42096 6.68692,-8.23331 3.02803,-4.2654 4.51607,-6.02927 6.89634,-10.70859 3.27457,-6.43747 4.67702,-12.78803 4.54195,-19.98103 -0.22921,-1.23734 -0.30285,-2.51391 -0.68766,-3.71202 -0.66013,-2.05536 -1.86724,-4.1982 -3.91308,-5.20977 -3.80111,-1.87946 -9.74719,-0.25291 -13.57423,0.38182 -6.67917,1.29064 -13.81197,10.64847 -20.47481,9.2544 -4.15898,-0.8702 -16.83507,-8.20666 -22.32195,-5.37315 -35.44529,18.30453 -41.97011,53.30013 -43.73266,54.24723 7.75442,-4.29415 25.93176,-21.10616 38.11976,-24.8059 15.5929,-13.01062 25.90199,-10.46438 27.86817,-17.9634 z"
       sodipodi:nodetypes="ccccccccccccccsscsscssccsscscsscssccc" />
  </g>
  <metadata
     id="metadata824">
    <rdf:RDF>
      <cc:Work
         rdf:about="">
        <cc:license
           rdf:resource="http://artlibre.org/licence/lal" />
      </cc:Work>
      <cc:License
         rdf:about="http://artlibre.org/licence/lal">
        <cc:permits
           rdf:resource="http://creativecommons.org/ns#Reproduction" />
        <cc:permits
           rdf:resource="http://creativecommons.org/ns#Distribution" />
        <cc:permits
           rdf:resource="http://creativecommons.org/ns#DerivativeWorks" />
        <cc:requires
           rdf:resource="http://creativecommons.org/ns#ShareAlike" />
        <cc:requires
           rdf:resource="http://creativecommons.org/ns#Notice" />
        <cc:requires
           rdf:resource="http://creativecommons.org/ns#Attribution" />
      </cc:License>
    </rdf:RDF>
  </metadata>
</svg>
