<svg version="1.1" xmlns="http://www.w3.org/2000/svg" xmlns:xlink="http://www.w3.org/1999/xlink" width="816" height="1056" viewBox="0 0 816 1056"><defs/><g><rect fill="rgb(25,43,128)" stroke="none" x="0" y="0" width="816" height="1056" transform="matrix(1 0 0 1 0 0)" fill-opacity="1"/><path fill="none" stroke="rgb(255,255,255)" paint-order="fill stroke markers" d=" M 263.46418198682227 423.13366670474477 C 37.6663332952553 423.13366670474477 37.6663332952553 283.62418198682235 37.6663332952553 283.62418198682235 C 37.6663332952553 57.826333295255296 177.17581801317772 57.826333295255296 177.17581801317772 57.826333295255296 C 402.9736667047447 57.826333295255296 402.9736667047447 197.33581801317774 402.9736667047447 197.33581801317774 C 399.16919209975094 423.13366670474477 263.46418198682227 423.13366670474477 263.46418198682227 423.13366670474477" stroke-opacity="1" stroke-miterlimit="10" stroke-dasharray=""/><path fill="none" stroke="rgb(255,255,255)" paint-order="fill stroke markers" d=" M 262.54465551651487 419.2407923077979 C 41.559207692202136 419.2407923077979 41.559207692202136 283.62418198682235 41.559207692202136 283.62418198682235 C 41.559207692202136 61.71920769220213 178.09534448348512 61.71920769220213 178.09534448348512 61.71920769220213 C 402.9736667047447 61.71920769220213 402.9736667047447 197.33581801317774 402.9736667047447 197.33581801317774 C 405.9985053878212 419.2407923077979 262.54465551651487 419.2407923077979 262.54465551651487 419.2407923077979" stroke-opacity="1" stroke-miterlimit="10" stroke-dasharray=""/><path fill="none" stroke="rgb(255,255,255)" paint-order="fill stroke markers" d=" M 261.62512904620746 415.3479179108511 C 45.452082089148945 415.3479179108511 45.452082089148945 283.62418198682235 45.452082089148945 283.62418198682235 C 45.452082089148945 65.61208208914894 179.0148709537925 65.61208208914894 179.0148709537925 65.61208208914894 C 402.9736667047447 65.61208208914894 402.9736667047447 197.33581801317774 402.9736667047447 197.33581801317774 C 405.77406459624274 415.3479179108511 261.62512904620746 415.3479179108511 261.62512904620746 415.3479179108511" stroke-opacity="1" stroke-miterlimit="10" stroke-dasharray=""/><path fill="none" stroke="rgb(255,255,255)" paint-order="fill stroke markers" d=" M 260.7056025759001 411.4550435139043 C 49.344956486095754 411.4550435139043 49.344956486095754 280.8656025759002 49.344956486095754 280.8656025759002 C 49.344956486095754 69.50495648609575 179.93439742409987 69.50495648609575 179.93439742409987 69.50495648609575 C 402.9736667047447 69.50495648609575 402.9736667047447 197.33581801317774 402.9736667047447 197.33581801317774 C 405.552833137418 411.4550435139043 260.7056025759001 411.4550435139043 260.7056025759001 411.4550435139043" stroke-opacity="1" stroke-miterlimit="10" stroke-dasharray=""/><path fill="none" stroke="rgb(255,255,255)" paint-order="fill stroke markers" d=" M 259.7860761055927 407.5621691169574 C 37.6663332952553 407.5621691169574 37.6663332952553 283.62418198682235 37.6663332952553 283.62418198682235 C 37.6663332952553 73.39783088304259 180.85392389440725 73.39783088304259 180.85392389440725 73.39783088304259 C 402.9736667047447 73.39783088304259 402.9736667047447 197.33581801317774 402.9736667047447 197.33581801317774 C 404.4119319704746 407.5621691169574 259.7860761055927 407.5621691169574 259.7860761055927 407.5621691169574" stroke-opacity="1" stroke-miterlimit="10" stroke-dasharray=""/><path fill="none" stroke="rgb(255,255,255)" paint-order="fill stroke markers" d=" M 258.8665496352853 403.6692947200106 C 57.1307052799894 403.6692947200106 57.1307052799894 283.62418198682235 57.1307052799894 283.62418198682235 C 57.1307052799894 77.2907052799894 181.77345036471462 77.2907052799894 181.77345036471462 77.2907052799894 C 402.9736667047447 77.2907052799894 402.9736667047447 197.33581801317774 402.9736667047447 197.33581801317774 C 405.3107971945754 403.6692947200106 258.8665496352853 403.6692947200106 258.8665496352853 403.6692947200106" stroke-opacity="1" stroke-miterlimit="10" stroke-dasharray=""/><path fill="none" stroke="rgb(255,255,255)" paint-order="fill stroke markers" d=" M 257.94702316497796 399.7764203230638 C 61.02357967693621 399.7764203230638 61.02357967693621 278.10702316497805 61.02357967693621 278.10702316497805 C 61.02357967693621 81.1835796769362 182.69297683502202 81.1835796769362 182.69297683502202 81.1835796769362 C 402.9736667047447 81.1835796769362 402.9736667047447 197.33581801317774 402.9736667047447 197.33581801317774 C 397.3868133701375 399.7764203230638 257.94702316497796 399.7764203230638 257.94702316497796 399.7764203230638" stroke-opacity="1" stroke-miterlimit="10" stroke-dasharray=""/><path fill="none" stroke="rgb(255,255,255)" paint-order="fill stroke markers" d=" M 605.9147930641524 427.88072414730414 C 408.27927585269595 427.88072414730414 408.27927585269595 250.71479306415227 408.27927585269595 250.71479306415227 C 408.27927585269595 53.07927585269587 585.4452069358478 53.07927585269587 585.4452069358478 53.07927585269587 C 783.0807241473042 53.07927585269587 783.0807241473042 230.24520693584765 783.0807241473042 230.24520693584765 C 779.6508895961381 427.88072414730414 605.9147930641524 427.88072414730414 605.9147930641524 427.88072414730414" stroke-opacity="1" stroke-miterlimit="10" stroke-dasharray=""/><path fill="none" stroke="rgb(255,255,255)" paint-order="fill stroke markers" d=" M 605.8057266419 425.8837002326909 C 410.2762997673092 425.8837002326909 410.2762997673092 250.71479306415227 410.2762997673092 250.71479306415227 C 410.2762997673092 55.07629976730911 585.5542733581 55.07629976730911 585.5542733581 55.07629976730911 C 783.0807241473042 55.07629976730911 783.0807241473042 230.24520693584765 783.0807241473042 230.24520693584765 C 779.0691764641597 425.8837002326909 605.8057266419 425.8837002326909 605.8057266419 425.8837002326909" stroke-opacity="1" stroke-miterlimit="10" stroke-dasharray=""/><path fill="none" stroke="rgb(255,255,255)" paint-order="fill stroke markers" d=" M 605.6966602196478 423.8866763180777 C 408.27927585269595 423.8866763180777 408.27927585269595 250.49666021964777 408.27927585269595 250.49666021964777 C 408.27927585269595 57.07332368192232 585.6633397803522 57.07332368192232 585.6633397803522 57.07332368192232 C 783.0807241473042 57.07332368192232 783.0807241473042 230.24520693584765 783.0807241473042 230.24520693584765 C 789.5452150502625 423.8866763180777 605.6966602196478 423.8866763180777 605.6966602196478 423.8866763180777" stroke-opacity="1" stroke-miterlimit="10" stroke-dasharray=""/><path fill="none" stroke="rgb(255,255,255)" paint-order="fill stroke markers" d=" M 605.5875937973956 421.88965240346454 C 414.27034759653554 421.88965240346454 414.27034759653554 250.71479306415227 414.27034759653554 250.71479306415227 C 414.27034759653554 59.07034759653553 585.7724062026045 59.07034759653553 585.7724062026045 59.07034759653553 C 783.0807241473042 59.07034759653553 783.0807241473042 230.24520693584765 783.0807241473042 230.24520693584765 C 790.222968456547 421.88965240346454 605.5875937973956 421.88965240346454 605.5875937973956 421.88965240346454" stroke-opacity="1" stroke-miterlimit="10" stroke-dasharray=""/><path fill="none" stroke="rgb(255,255,255)" paint-order="fill stroke markers" d=" M 605.4785273751434 419.8926284888513 C 408.27927585269595 419.8926284888513 408.27927585269595 250.71479306415227 408.27927585269595 250.71479306415227 C 408.27927585269595 61.067371511148735 585.8814726248568 61.067371511148735 585.8814726248568 61.067371511148735 C 783.0807241473042 61.067371511148735 783.0807241473042 230.24520693584765 783.0807241473042 230.24520693584765 C 782.2220557124433 419.8926284888513 605.4785273751434 419.8926284888513 605.4785273751434 419.8926284888513" stroke-opacity="1" stroke-miterlimit="10" stroke-dasharray=""/><path fill="none" stroke="rgb(255,255,255)" paint-order="fill stroke markers" d=" M 605.369460952891 417.89560457423806 C 418.264395425762 417.89560457423806 418.264395425762 250.71479306415227 418.264395425762 250.71479306415227 C 418.264395425762 63.064395425761944 585.990539047109 63.064395425761944 585.990539047109 63.064395425761944 C 783.0807241473042 63.064395425761944 783.0807241473042 230.24520693584765 783.0807241473042 230.24520693584765 C 784.7880799496536 417.89560457423806 605.369460952891 417.89560457423806 605.369460952891 417.89560457423806" stroke-opacity="1" stroke-miterlimit="10" stroke-dasharray=""/><path fill="none" stroke="rgb(255,255,255)" paint-order="fill stroke markers" d=" M 605.2603945306388 415.8985806596248 C 420.26141934037526 415.8985806596248 420.26141934037526 250.71479306415227 420.26141934037526 250.71479306415227 C 420.26141934037526 65.06141934037518 586.0996054693613 65.06141934037518 586.0996054693613 65.06141934037518 C 783.0807241473042 65.06141934037518 783.0807241473042 230.24520693584765 783.0807241473042 230.24520693584765 C 778.5809451330367 415.8985806596248 605.2603945306388 415.8985806596248 605.2603945306388 415.8985806596248" stroke-opacity="1" stroke-miterlimit="10" stroke-dasharray=""/><path fill="none" stroke="rgb(255,255,255)" paint-order="fill stroke markers" d=" M 605.1513281083866 413.90155674501165 C 422.25844325498844 413.90155674501165 422.25844325498844 249.95132810838643 422.25844325498844 249.95132810838643 C 422.25844325498844 67.05844325498839 586.2086718916136 67.05844325498839 586.2086718916136 67.05844325498839 C 783.0807241473042 67.05844325498839 783.0807241473042 230.24520693584765 783.0807241473042 230.24520693584765 C 779.8676280055107 413.90155674501165 605.1513281083866 413.90155674501165 605.1513281083866 413.90155674501165" stroke-opacity="1" stroke-miterlimit="10" stroke-dasharray=""/><path fill="none" stroke="rgb(255,255,255)" paint-order="fill stroke markers" d=" M 605.0422616861342 411.90453283039847 C 408.27927585269595 411.90453283039847 408.27927585269595 250.71479306415227 408.27927585269595 250.71479306415227 C 408.27927585269595 69.0554671696016 586.3177383138658 69.0554671696016 586.3177383138658 69.0554671696016 C 783.0807241473042 69.0554671696016 783.0807241473042 230.24520693584765 783.0807241473042 230.24520693584765 C 783.714966865477 411.90453283039847 605.0422616861342 411.90453283039847 605.0422616861342 411.90453283039847" stroke-opacity="1" stroke-miterlimit="10" stroke-dasharray=""/><path fill="none" stroke="rgb(255,255,255)" paint-order="fill stroke markers" d=" M 604.933195263882 409.90750891578523 C 426.25249108421485 409.90750891578523 426.25249108421485 249.73319526388192 426.25249108421485 249.73319526388192 C 426.25249108421485 71.05249108421481 586.4268047361181 71.05249108421481 586.4268047361181 71.05249108421481 C 783.0807241473042 71.05249108421481 783.0807241473042 230.24520693584765 783.0807241473042 230.24520693584765 C 778.3075436055539 409.90750891578523 604.933195263882 409.90750891578523 604.933195263882 409.90750891578523" stroke-opacity="1" stroke-miterlimit="10" stroke-dasharray=""/><path fill="none" stroke="rgb(255,255,255)" paint-order="fill stroke markers" d=" M 604.8241288416298 407.910485001172 C 408.27927585269595 407.910485001172 408.27927585269595 249.62412884162967 408.27927585269595 249.62412884162967 C 408.27927585269595 73.04951499882804 586.5358711583704 73.04951499882804 586.5358711583704 73.04951499882804 C 783.0807241473042 73.04951499882804 783.0807241473042 230.24520693584765 783.0807241473042 230.24520693584765 C 775.3067670707378 407.910485001172 604.8241288416298 407.910485001172 604.8241288416298 407.910485001172" stroke-opacity="1" stroke-miterlimit="10" stroke-dasharray=""/><path fill="none" stroke="rgb(255,255,255)" paint-order="fill stroke markers" d=" M 604.7150624193774 405.91346108655875 C 408.27927585269595 405.91346108655875 408.27927585269595 249.5150624193774 408.27927585269595 249.5150624193774 C 408.27927585269595 75.04653891344125 586.6449375806226 75.04653891344125 586.6449375806226 75.04653891344125 C 783.0807241473042 75.04653891344125 783.0807241473042 230.24520693584765 783.0807241473042 230.24520693584765 C 787.2216261482343 405.91346108655875 604.7150624193774 405.91346108655875 604.7150624193774 405.91346108655875" stroke-opacity="1" stroke-miterlimit="10" stroke-dasharray=""/><path fill="none" stroke="rgb(255,255,255)" paint-order="fill stroke markers" d=" M 604.6059959971252 403.9164371719456 C 432.2435628280545 403.9164371719456 432.2435628280545 250.71479306415227 432.2435628280545 250.71479306415227 C 432.2435628280545 77.04356282805446 586.7540040028748 77.04356282805446 586.7540040028748 77.04356282805446 C 783.0807241473042 77.04356282805446 783.0807241473042 230.24520693584765 783.0807241473042 230.24520693584765 C 789.8849888372156 403.9164371719456 604.6059959971252 403.9164371719456 604.6059959971252 403.9164371719456" stroke-opacity="1" stroke-miterlimit="10" stroke-dasharray=""/><path fill="none" stroke="rgb(255,255,255)" paint-order="fill stroke markers" d=" M 604.496929574873 401.9194132573324 C 408.27927585269595 401.9194132573324 408.27927585269595 249.29692957487288 408.27927585269595 249.29692957487288 C 408.27927585269595 79.04058674266767 586.8630704251271 79.04058674266767 586.8630704251271 79.04058674266767 C 783.0807241473042 79.04058674266767 783.0807241473042 230.24520693584765 783.0807241473042 230.24520693584765 C 782.0279567166348 401.9194132573324 604.496929574873 401.9194132573324 604.496929574873 401.9194132573324" stroke-opacity="1" stroke-miterlimit="10" stroke-dasharray=""/><path fill="none" stroke="rgb(255,255,255)" paint-order="fill stroke markers" d=" M 604.3878631526206 399.92238934271916 C 408.27927585269595 399.92238934271916 408.27927585269595 250.71479306415227 408.27927585269595 250.71479306415227 C 408.27927585269595 81.03761065728091 586.9721368473794 81.03761065728091 586.9721368473794 81.03761065728091 C 783.0807241473042 81.03761065728091 783.0807241473042 230.24520693584765 783.0807241473042 230.24520693584765 C 779.9303409961985 399.92238934271916 604.3878631526206 399.92238934271916 604.3878631526206 399.92238934271916" stroke-opacity="1" stroke-miterlimit="10" stroke-dasharray=""/><path fill="none" stroke="rgb(255,255,255)" paint-order="fill stroke markers" d=" M 604.2787967303684 397.9253654281059 C 438.23463457189416 397.9253654281059 438.23463457189416 250.71479306415227 438.23463457189416 250.71479306415227 C 438.23463457189416 83.03463457189412 587.0812032696316 83.03463457189412 587.0812032696316 83.03463457189412 C 783.0807241473042 83.03463457189412 783.0807241473042 230.24520693584765 783.0807241473042 230.24520693584765 C 777.8187259359381 397.9253654281059 604.2787967303684 397.9253654281059 604.2787967303684 397.9253654281059" stroke-opacity="1" stroke-miterlimit="10" stroke-dasharray=""/><path fill="none" stroke="rgb(255,255,255)" paint-order="fill stroke markers" d=" M 604.1697303081162 395.9283415134927 C 408.27927585269595 395.9283415134927 408.27927585269595 248.96973030811608 408.27927585269595 248.96973030811608 C 408.27927585269595 85.03165848650733 587.1902696918839 85.03165848650733 587.1902696918839 85.03165848650733 C 783.0807241473042 85.03165848650733 783.0807241473042 230.24520693584765 783.0807241473042 230.24520693584765 C 784.4529299200954 395.9283415134927 604.1697303081162 395.9283415134927 604.1697303081162 395.9283415134927" stroke-opacity="1" stroke-miterlimit="10" stroke-dasharray=""/><path fill="none" stroke="rgb(255,255,255)" paint-order="fill stroke markers" d=" M 266.1980995645643 797.8262148085507 C 38.33378519144944 797.8262148085507 38.33378519144944 661.7180995645643 38.33378519144944 661.7180995645643 C 38.33378519144944 433.8537851914494 174.4419004354358 433.8537851914494 174.4419004354358 433.8537851914494 C 402.3062148085507 433.8537851914494 402.3062148085507 569.9619004354357 402.3062148085507 569.9619004354357 C 403.00408168962883 797.8262148085507 266.1980995645643 797.8262148085507 266.1980995645643 797.8262148085507" stroke-opacity="1" stroke-miterlimit="10" stroke-dasharray=""/><path fill="none" stroke="rgb(255,255,255)" paint-order="fill stroke markers" d=" M 265.2203054561976 793.9475657290845 C 42.212434270915566 793.9475657290845 42.212434270915566 661.7180995645643 42.212434270915566 661.7180995645643 C 42.212434270915566 437.7324342709155 175.41969454380245 437.7324342709155 175.41969454380245 437.7324342709155 C 402.3062148085507 437.7324342709155 402.3062148085507 569.9619004354357 402.3062148085507 569.9619004354357 C 398.1823347166582 793.9475657290845 265.2203054561976 793.9475657290845 265.2203054561976 793.9475657290845" stroke-opacity="1" stroke-miterlimit="10" stroke-dasharray=""/><path fill="none" stroke="rgb(255,255,255)" paint-order="fill stroke markers" d=" M 264.24251134783094 790.0689166496184 C 38.33378519144944 790.0689166496184 38.33378519144944 659.762511347831 38.33378519144944 659.762511347831 C 38.33378519144944 441.61108335038165 176.39748865216913 441.61108335038165 176.39748865216913 441.61108335038165 C 402.3062148085507 441.61108335038165 402.3062148085507 569.9619004354357 402.3062148085507 569.9619004354357 C 409.7280702065194 790.0689166496184 264.24251134783094 790.0689166496184 264.24251134783094 790.0689166496184" stroke-opacity="1" stroke-miterlimit="10" stroke-dasharray=""/><path fill="none" stroke="rgb(255,255,255)" paint-order="fill stroke markers" d=" M 263.2647172394643 786.1902675701523 C 49.969732429847824 786.1902675701523 49.969732429847824 658.7847172394644 49.969732429847824 658.7847172394644 C 49.969732429847824 445.4897324298478 177.3752827605358 445.4897324298478 177.3752827605358 445.4897324298478 C 402.3062148085507 445.4897324298478 402.3062148085507 569.9619004354357 402.3062148085507 569.9619004354357 C 402.49488368837217 786.1902675701523 263.2647172394643 786.1902675701523 263.2647172394643 786.1902675701523" stroke-opacity="1" stroke-miterlimit="10" stroke-dasharray=""/><path fill="none" stroke="rgb(255,255,255)" paint-order="fill stroke markers" d=" M 262.2869231310976 782.3116184906862 C 53.848381509313924 782.3116184906862 53.848381509313924 661.7180995645643 53.848381509313924 661.7180995645643 C 53.848381509313924 449.3683815093139 178.3530768689025 449.3683815093139 178.3530768689025 449.3683815093139 C 402.3062148085507 449.3683815093139 402.3062148085507 569.9619004354357 402.3062148085507 569.9619004354357 C 396.1842546585072 782.3116184906862 262.2869231310976 782.3116184906862 262.2869231310976 782.3116184906862" stroke-opacity="1" stroke-miterlimit="10" stroke-dasharray=""/><path fill="none" stroke="rgb(255,255,255)" paint-order="fill stroke markers" d=" M 261.30912902273093 778.43296941122 C 38.33378519144944 778.43296941122 38.33378519144944 656.829129022731 38.33378519144944 656.829129022731 C 38.33378519144944 453.24703058878004 179.33087097726914 453.24703058878004 179.33087097726914 453.24703058878004 C 402.3062148085507 453.24703058878004 402.3062148085507 569.9619004354357 402.3062148085507 569.9619004354357 C 403.2157761362096 778.43296941122 261.30912902273093 778.43296941122 261.30912902273093 778.43296941122" stroke-opacity="1" stroke-miterlimit="10" stroke-dasharray=""/><path fill="none" stroke="rgb(255,255,255)" paint-order="fill stroke markers" d=" M 260.3313349143643 774.5543203317538 C 61.60567966824618 774.5543203317538 61.60567966824618 655.8513349143643 61.60567966824618 655.8513349143643 C 61.60567966824618 457.12567966824616 180.30866508563582 457.12567966824616 180.30866508563582 457.12567966824616 C 402.3062148085507 457.12567966824616 402.3062148085507 569.9619004354357 402.3062148085507 569.9619004354357 C 407.0700380318942 774.5543203317538 260.3313349143643 774.5543203317538 260.3313349143643 774.5543203317538" stroke-opacity="1" stroke-miterlimit="10" stroke-dasharray=""/><path fill="none" stroke="rgb(255,255,255)" paint-order="fill stroke markers" d=" M 259.35354080599757 770.6756712522878 C 38.33378519144944 770.6756712522878 38.33378519144944 654.8735408059977 38.33378519144944 654.8735408059977 C 38.33378519144944 461.0043287477123 181.2864591940025 461.0043287477123 181.2864591940025 461.0043287477123 C 402.3062148085507 461.0043287477123 402.3062148085507 569.9619004354357 402.3062148085507 569.9619004354357 C 405.0975063596346 770.6756712522878 259.35354080599757 770.6756712522878 259.35354080599757 770.6756712522878" stroke-opacity="1" stroke-miterlimit="10" stroke-dasharray=""/><path fill="none" stroke="rgb(255,255,255)" paint-order="fill stroke markers" d=" M 258.3757466976309 766.7970221728217 C 38.33378519144944 766.7970221728217 38.33378519144944 653.895746697631 38.33378519144944 653.895746697631 C 38.33378519144944 464.88297782717837 182.26425330236918 464.88297782717837 182.26425330236918 464.88297782717837 C 402.3062148085507 464.88297782717837 402.3062148085507 569.9619004354357 402.3062148085507 569.9619004354357 C 398.481385730384 766.7970221728217 258.3757466976309 766.7970221728217 258.3757466976309 766.7970221728217" stroke-opacity="1" stroke-miterlimit="10" stroke-dasharray=""/><path fill="none" stroke="rgb(255,255,255)" paint-order="fill stroke markers" d=" M 257.39795258926426 762.9183730933555 C 73.24162690664457 762.9183730933555 73.24162690664457 661.7180995645643 73.24162690664457 661.7180995645643 C 73.24162690664457 468.76162690664455 183.24204741073584 468.76162690664455 183.24204741073584 468.76162690664455 C 402.3062148085507 468.76162690664455 402.3062148085507 569.9619004354357 402.3062148085507 569.9619004354357 C 400.70223304417095 762.9183730933555 257.39795258926426 762.9183730933555 257.39795258926426 762.9183730933555" stroke-opacity="1" stroke-miterlimit="10" stroke-dasharray=""/><path fill="none" stroke="rgb(255,255,255)" paint-order="fill stroke markers" d=" M 256.42015848089756 759.0397240138894 C 38.33378519144944 759.0397240138894 38.33378519144944 661.7180995645643 38.33378519144944 661.7180995645643 C 38.33378519144944 472.6402759861106 184.21984151910252 472.6402759861106 184.21984151910252 472.6402759861106 C 402.3062148085507 472.6402759861106 402.3062148085507 569.9619004354357 402.3062148085507 569.9619004354357 C 408.6387286673026 759.0397240138894 256.42015848089756 759.0397240138894 256.42015848089756 759.0397240138894" stroke-opacity="1" stroke-miterlimit="10" stroke-dasharray=""/><path fill="none" stroke="rgb(255,255,255)" paint-order="fill stroke markers" d=" M 255.4423643725309 755.1610749344233 C 80.99892506557683 755.1610749344233 80.99892506557683 650.9623643725309 80.99892506557683 650.9623643725309 C 80.99892506557683 476.5189250655768 185.1976356274692 476.5189250655768 185.1976356274692 476.5189250655768 C 402.3062148085507 476.5189250655768 402.3062148085507 569.9619004354357 402.3062148085507 569.9619004354357 C 398.1788524654704 755.1610749344233 255.4423643725309 755.1610749344233 255.4423643725309 755.1610749344233" stroke-opacity="1" stroke-miterlimit="10" stroke-dasharray=""/><path fill="none" stroke="rgb(255,255,255)" paint-order="fill stroke markers" d=" M 254.46457026416422 751.2824258549572 C 84.87757414504293 751.2824258549572 84.87757414504293 649.9845702641643 84.87757414504293 649.9845702641643 C 84.87757414504293 480.3975741450429 186.17542973583585 480.3975741450429 186.17542973583585 480.3975741450429 C 402.3062148085507 480.3975741450429 402.3062148085507 569.9619004354357 402.3062148085507 569.9619004354357 C 394.725959695619 751.2824258549572 254.46457026416422 751.2824258549572 254.46457026416422 751.2824258549572" stroke-opacity="1" stroke-miterlimit="10" stroke-dasharray=""/><path fill="none" stroke="rgb(255,255,255)" paint-order="fill stroke markers" d=" M 253.48677615579754 747.403776775491 C 38.33378519144944 747.403776775491 38.33378519144944 661.7180995645643 38.33378519144944 661.7180995645643 C 38.33378519144944 484.27622322450907 187.15322384420253 484.27622322450907 187.15322384420253 484.27622322450907 C 402.3062148085507 484.27622322450907 402.3062148085507 569.9619004354357 402.3062148085507 569.9619004354357 C 401.18917187709314 747.403776775491 253.48677615579754 747.403776775491 253.48677615579754 747.403776775491" stroke-opacity="1" stroke-miterlimit="10" stroke-dasharray=""/><path fill="none" stroke="rgb(255,255,255)" paint-order="fill stroke markers" d=" M 252.5089820474309 743.5251276960249 C 38.33378519144944 743.5251276960249 38.33378519144944 661.7180995645643 38.33378519144944 661.7180995645643 C 38.33378519144944 488.15487230397514 188.1310179525692 488.15487230397514 188.1310179525692 488.15487230397514 C 402.3062148085507 488.15487230397514 402.3062148085507 569.9619004354357 402.3062148085507 569.9619004354357 C 408.0089168954838 743.5251276960249 252.5089820474309 743.5251276960249 252.5089820474309 743.5251276960249" stroke-opacity="1" stroke-miterlimit="10" stroke-dasharray=""/><path fill="none" stroke="rgb(255,255,255)" paint-order="fill stroke markers" d=" M 251.5311879390642 739.6464786165587 C 96.51352138344132 739.6464786165587 96.51352138344132 661.7180995645643 96.51352138344132 661.7180995645643 C 96.51352138344132 492.03352138344127 189.10881206093586 492.03352138344127 189.10881206093586 492.03352138344127 C 402.3062148085507 492.03352138344127 402.3062148085507 569.9619004354357 402.3062148085507 569.9619004354357 C 404.7810980071881 739.6464786165587 251.5311879390642 739.6464786165587 251.5311879390642 739.6464786165587" stroke-opacity="1" stroke-miterlimit="10" stroke-dasharray=""/><path fill="none" stroke="rgb(255,255,255)" paint-order="fill stroke markers" d=" M 250.55339383069753 735.7678295370927 C 100.39217046290744 735.7678295370927 100.39217046290744 661.7180995645643 100.39217046290744 661.7180995645643 C 100.39217046290744 495.9121704629074 190.08660616930254 495.9121704629074 190.08660616930254 495.9121704629074 C 402.3062148085507 495.9121704629074 402.3062148085507 569.9619004354357 402.3062148085507 569.9619004354357 C 397.7619360314677 735.7678295370927 250.55339383069753 735.7678295370927 250.55339383069753 735.7678295370927" stroke-opacity="1" stroke-miterlimit="10" stroke-dasharray=""/><path fill="none" stroke="rgb(255,255,255)" paint-order="fill stroke markers" d=" M 249.57559972233088 731.8891804576265 C 104.27081954237357 731.8891804576265 104.27081954237357 645.0955997223309 104.27081954237357 645.0955997223309 C 104.27081954237357 499.7908195423735 191.06440027766922 499.7908195423735 191.06440027766922 499.7908195423735 C 402.3062148085507 499.7908195423735 402.3062148085507 569.9619004354357 402.3062148085507 569.9619004354357 C 394.7071784287656 731.8891804576265 249.57559972233088 731.8891804576265 249.57559972233088 731.8891804576265" stroke-opacity="1" stroke-miterlimit="10" stroke-dasharray=""/><path fill="none" stroke="rgb(255,255,255)" paint-order="fill stroke markers" d=" M 248.5978056139642 728.0105313781604 C 38.33378519144944 728.0105313781604 38.33378519144944 661.7180995645643 38.33378519144944 661.7180995645643 C 38.33378519144944 503.66946862183966 192.0421943860359 503.66946862183966 192.0421943860359 503.66946862183966 C 402.3062148085507 503.66946862183966 402.3062148085507 569.9619004354357 402.3062148085507 569.9619004354357 C 397.76054313343633 728.0105313781604 248.5978056139642 728.0105313781604 248.5978056139642 728.0105313781604" stroke-opacity="1" stroke-miterlimit="10" stroke-dasharray=""/><path fill="none" stroke="rgb(255,255,255)" paint-order="fill stroke markers" d=" M 247.62001150559752 724.1318822986943 C 38.33378519144944 724.1318822986943 38.33378519144944 643.1400115055976 38.33378519144944 643.1400115055976 C 38.33378519144944 507.5481177013058 193.01998849440255 507.5481177013058 193.01998849440255 507.5481177013058 C 402.3062148085507 507.5481177013058 402.3062148085507 569.9619004354357 402.3062148085507 569.9619004354357 C 403.6454124158849 724.1318822986943 247.62001150559752 724.1318822986943 247.62001150559752 724.1318822986943" stroke-opacity="1" stroke-miterlimit="10" stroke-dasharray=""/><path fill="none" stroke="rgb(255,255,255)" paint-order="fill stroke markers" d=" M 246.64221739723087 720.2532332192282 C 38.33378519144944 720.2532332192282 38.33378519144944 661.7180995645643 38.33378519144944 661.7180995645643 C 38.33378519144944 511.4267667807719 193.99778260276923 511.4267667807719 193.99778260276923 511.4267667807719 C 402.3062148085507 511.4267667807719 402.3062148085507 569.9619004354357 402.3062148085507 569.9619004354357 C 404.70939762268665 720.2532332192282 246.64221739723087 720.2532332192282 246.64221739723087 720.2532332192282" stroke-opacity="1" stroke-miterlimit="10" stroke-dasharray=""/><path fill="none" stroke="rgb(255,255,255)" paint-order="fill stroke markers" d=" M 245.66442328886419 716.374584139762 C 119.78541586023807 716.374584139762 119.78541586023807 661.7180995645643 119.78541586023807 661.7180995645643 C 119.78541586023807 515.3054158602381 194.97557671113591 515.3054158602381 194.97557671113591 515.3054158602381 C 402.3062148085507 515.3054158602381 402.3062148085507 569.9619004354357 402.3062148085507 569.9619004354357 C 406.4385846813959 716.374584139762 245.66442328886419 716.374584139762 245.66442328886419 716.374584139762" stroke-opacity="1" stroke-miterlimit="10" stroke-dasharray=""/><path fill="none" stroke="rgb(255,255,255)" paint-order="fill stroke markers" d=" M 244.6866291804975 712.4959350602959 C 38.33378519144944 712.4959350602959 38.33378519144944 640.2066291804975 38.33378519144944 640.2066291804975 C 38.33378519144944 519.1840649397042 195.95337081950257 519.1840649397042 195.95337081950257 519.1840649397042 C 402.3062148085507 519.1840649397042 402.3062148085507 569.9619004354357 402.3062148085507 569.9619004354357 C 407.75953141040407 712.4959350602959 244.6866291804975 712.4959350602959 244.6866291804975 712.4959350602959" stroke-opacity="1" stroke-miterlimit="10" stroke-dasharray=""/><path fill="none" stroke="rgb(255,255,255)" paint-order="fill stroke markers" d=" M 243.70883507213082 708.6172859808298 C 127.54271401917032 708.6172859808298 127.54271401917032 661.7180995645643 127.54271401917032 661.7180995645643 C 127.54271401917032 523.0627140191702 196.93116492786925 523.0627140191702 196.93116492786925 523.0627140191702 C 402.3062148085507 523.0627140191702 402.3062148085507 569.9619004354357 402.3062148085507 569.9619004354357 C 405.53818899840445 708.6172859808298 243.70883507213082 708.6172859808298 243.70883507213082 708.6172859808298" stroke-opacity="1" stroke-miterlimit="10" stroke-dasharray=""/><path fill="none" stroke="rgb(255,255,255)" paint-order="fill stroke markers" d=" M 242.73104096376417 704.7386369013636 C 131.42136309863645 704.7386369013636 131.42136309863645 638.2510409637642 131.42136309863645 638.2510409637642 C 131.42136309863645 526.9413630986364 197.90895903623593 526.9413630986364 197.90895903623593 526.9413630986364 C 402.3062148085507 526.9413630986364 402.3062148085507 569.9619004354357 402.3062148085507 569.9619004354357 C 394.56035376317845 704.7386369013636 242.73104096376417 704.7386369013636 242.73104096376417 704.7386369013636" stroke-opacity="1" stroke-miterlimit="10" stroke-dasharray=""/><path fill="none" stroke="rgb(255,255,255)" paint-order="fill stroke markers" d=" M 241.7532468553975 700.8599878218976 C 135.30001217810258 700.8599878218976 135.30001217810258 637.2732468553975 135.30001217810258 637.2732468553975 C 135.30001217810258 530.8200121781025 198.8867531446026 530.8200121781025 198.8867531446026 530.8200121781025 C 402.3062148085507 530.8200121781025 402.3062148085507 569.9619004354357 402.3062148085507 569.9619004354357 C 404.6559823028405 700.8599878218976 241.7532468553975 700.8599878218976 241.7532468553975 700.8599878218976" stroke-opacity="1" stroke-miterlimit="10" stroke-dasharray=""/><path fill="none" stroke="rgb(255,255,255)" paint-order="fill stroke markers" d=" M 240.7754527470308 696.9813387424314 C 139.1786612575687 696.9813387424314 139.1786612575687 636.2954527470308 139.1786612575687 636.2954527470308 C 139.1786612575687 534.6986612575687 199.86454725296926 534.6986612575687 199.86454725296926 534.6986612575687 C 402.3062148085507 534.6986612575687 402.3062148085507 569.9619004354357 402.3062148085507 569.9619004354357 C 396.14447722508305 696.9813387424314 240.7754527470308 696.9813387424314 240.7754527470308 696.9813387424314" stroke-opacity="1" stroke-miterlimit="10" stroke-dasharray=""/><path fill="none" stroke="rgb(255,255,255)" paint-order="fill stroke markers" d=" M 239.79765863866416 693.1026896629653 C 38.33378519144944 693.1026896629653 38.33378519144944 661.7180995645643 38.33378519144944 661.7180995645643 C 38.33378519144944 538.5773103370348 200.84234136133594 538.5773103370348 200.84234136133594 538.5773103370348 C 402.3062148085507 538.5773103370348 402.3062148085507 569.9619004354357 402.3062148085507 569.9619004354357 C 404.27371949250585 693.1026896629653 239.79765863866416 693.1026896629653 239.79765863866416 693.1026896629653" stroke-opacity="1" stroke-miterlimit="10" stroke-dasharray=""/><path fill="none" stroke="rgb(255,255,255)" paint-order="fill stroke markers" d=" M 238.81986453029748 689.2240405834991 C 146.93595941650096 689.2240405834991 146.93595941650096 634.3398645302975 146.93595941650096 634.3398645302975 C 146.93595941650096 542.455959416501 201.82013546970262 542.455959416501 201.82013546970262 542.455959416501 C 402.3062148085507 542.455959416501 402.3062148085507 569.9619004354357 402.3062148085507 569.9619004354357 C 397.38881668505485 689.2240405834991 238.81986453029748 689.2240405834991 238.81986453029748 689.2240405834991" stroke-opacity="1" stroke-miterlimit="10" stroke-dasharray=""/><path fill="none" stroke="rgb(255,255,255)" paint-order="fill stroke markers" d=" M 237.8420704219308 685.345391504033 C 150.8146084959671 685.345391504033 150.8146084959671 661.7180995645643 150.8146084959671 661.7180995645643 C 150.8146084959671 546.334608495967 202.79792957806927 546.334608495967 202.79792957806927 546.334608495967 C 402.3062148085507 546.334608495967 402.3062148085507 569.9619004354357 402.3062148085507 569.9619004354357 C 400.42316739987416 685.345391504033 237.8420704219308 685.345391504033 237.8420704219308 685.345391504033" stroke-opacity="1" stroke-miterlimit="10" stroke-dasharray=""/><path fill="none" stroke="rgb(255,255,255)" paint-order="fill stroke markers" d=" M 236.86427631356412 681.4667424245669 C 38.33378519144944 681.4667424245669 38.33378519144944 661.7180995645643 38.33378519144944 661.7180995645643 C 38.33378519144944 550.2132575754332 203.77572368643595 550.2132575754332 203.77572368643595 550.2132575754332 C 402.3062148085507 550.2132575754332 402.3062148085507 569.9619004354357 402.3062148085507 569.9619004354357 C 397.58665464992504 681.4667424245669 236.86427631356412 681.4667424245669 236.86427631356412 681.4667424245669" stroke-opacity="1" stroke-miterlimit="10" stroke-dasharray=""/><path fill="none" stroke="rgb(255,255,255)" paint-order="fill stroke markers" d=" M 235.88648220519747 677.5880933451008 C 38.33378519144944 677.5880933451008 38.33378519144944 661.7180995645643 38.33378519144944 661.7180995645643 C 38.33378519144944 554.0919066548993 204.75351779480263 554.0919066548993 204.75351779480263 554.0919066548993 C 402.3062148085507 554.0919066548993 402.3062148085507 569.9619004354357 402.3062148085507 569.9619004354357 C 408.7265296940807 677.5880933451008 235.88648220519747 677.5880933451008 235.88648220519747 677.5880933451008" stroke-opacity="1" stroke-miterlimit="10" stroke-dasharray=""/><path fill="none" stroke="rgb(255,255,255)" paint-order="fill stroke markers" d=" M 234.9086880968308 673.7094442656346 C 162.45055573436545 673.7094442656346 162.45055573436545 661.7180995645643 162.45055573436545 661.7180995645643 C 162.45055573436545 557.9705557343655 205.7313119031693 557.9705557343655 205.7313119031693 557.9705557343655 C 402.3062148085507 557.9705557343655 402.3062148085507 569.9619004354357 402.3062148085507 569.9619004354357 C 407.5282046054026 673.7094442656346 234.9086880968308 673.7094442656346 234.9086880968308 673.7094442656346" stroke-opacity="1" stroke-miterlimit="10" stroke-dasharray=""/><path fill="none" stroke="rgb(255,255,255)" paint-order="fill stroke markers" d=" M 233.9308939884641 669.8307951861685 C 166.32920481383158 669.8307951861685 166.32920481383158 629.4508939884641 166.32920481383158 629.4508939884641 C 166.32920481383158 561.8492048138315 206.70910601153597 561.8492048138315 206.70910601153597 561.8492048138315 C 402.3062148085507 561.8492048138315 402.3062148085507 569.9619004354357 402.3062148085507 569.9619004354357 C 403.3314897511223 669.8307951861685 233.9308939884641 669.8307951861685 233.9308939884641 669.8307951861685" stroke-opacity="1" stroke-miterlimit="10" stroke-dasharray=""/><path fill="none" stroke="rgb(255,255,255)" paint-order="fill stroke markers" d=" M 232.95309988009745 665.9521461067023 C 38.33378519144944 665.9521461067023 38.33378519144944 628.4730998800975 38.33378519144944 628.4730998800975 C 38.33378519144944 565.7278538932977 207.68690011990265 565.7278538932977 207.68690011990265 565.7278538932977 C 402.3062148085507 565.7278538932977 402.3062148085507 569.9619004354357 402.3062148085507 569.9619004354357 C 397.6917669795798 665.9521461067023 232.95309988009745 665.9521461067023 232.95309988009745 665.9521461067023" stroke-opacity="1" stroke-miterlimit="10" stroke-dasharray=""/><path fill="none" stroke="rgb(255,255,255)" paint-order="fill stroke markers" d=" M 231.97530577173077 662.0734970272363 C 38.33378519144944 662.0734970272363 38.33378519144944 661.7180995645643 38.33378519144944 661.7180995645643 C 38.33378519144944 569.6065029727638 208.66469422826933 569.6065029727638 208.66469422826933 569.6065029727638 C 402.3062148085507 569.6065029727638 402.3062148085507 569.9619004354357 402.3062148085507 569.9619004354357 C 405.49877041709874 662.0734970272363 231.97530577173077 662.0734970272363 231.97530577173077 662.0734970272363" stroke-opacity="1" stroke-miterlimit="10" stroke-dasharray=""/><path fill="none" stroke="rgb(255,255,255)" paint-order="fill stroke markers" d=" M 230.9975116633641 658.1948479477701 C 177.96515205222994 658.1948479477701 177.96515205222994 626.5175116633641 177.96515205222994 626.5175116633641 C 177.96515205222994 573.48515205223 209.64248833663598 573.48515205223 209.64248833663598 573.48515205223 C 402.3062148085507 573.48515205223 402.3062148085507 569.9619004354357 402.3062148085507 569.9619004354357 C 402.0312587138544 658.1948479477701 230.9975116633641 658.1948479477701 230.9975116633641 658.1948479477701" stroke-opacity="1" stroke-miterlimit="10" stroke-dasharray=""/><path fill="none" stroke="rgb(255,255,255)" paint-order="fill stroke markers" d=" M 230.01971755499744 654.316198868304 C 38.33378519144944 654.316198868304 38.33378519144944 661.7180995645643 38.33378519144944 661.7180995645643 C 38.33378519144944 577.363801131696 210.62028244500266 577.363801131696 210.62028244500266 577.363801131696 C 402.3062148085507 577.363801131696 402.3062148085507 569.9619004354357 402.3062148085507 569.9619004354357 C 405.2452875550416 654.316198868304 230.01971755499744 654.316198868304 230.01971755499744 654.316198868304" stroke-opacity="1" stroke-miterlimit="10" stroke-dasharray=""/><path fill="none" stroke="rgb(255,255,255)" paint-order="fill stroke markers" d=" M 229.04192344663076 650.4375497888379 C 38.33378519144944 650.4375497888379 38.33378519144944 624.5619234466308 38.33378519144944 624.5619234466308 C 38.33378519144944 581.2424502111621 211.59807655336934 581.2424502111621 211.59807655336934 581.2424502111621 C 402.3062148085507 581.2424502111621 402.3062148085507 569.9619004354357 402.3062148085507 569.9619004354357 C 403.9369652753629 650.4375497888379 229.04192344663076 650.4375497888379 229.04192344663076 650.4375497888379" stroke-opacity="1" stroke-miterlimit="10" stroke-dasharray=""/><path fill="none" stroke="rgb(255,255,255)" paint-order="fill stroke markers" d=" M 228.06412933826408 646.5589007093718 C 38.33378519144944 646.5589007093718 38.33378519144944 661.7180995645643 38.33378519144944 661.7180995645643 C 38.33378519144944 585.1210992906283 212.57587066173602 585.1210992906283 212.57587066173602 585.1210992906283 C 402.3062148085507 585.1210992906283 402.3062148085507 569.9619004354357 402.3062148085507 569.9619004354357 C 400.4914217102438 646.5589007093718 228.06412933826408 646.5589007093718 228.06412933826408 646.5589007093718" stroke-opacity="1" stroke-miterlimit="10" stroke-dasharray=""/><path fill="none" stroke="rgb(255,255,255)" paint-order="fill stroke markers" d=" M 227.08633522989743 642.6802516299057 C 193.47974837009446 642.6802516299057 193.47974837009446 622.6063352298975 193.47974837009446 622.6063352298975 C 193.47974837009446 588.9997483700944 213.55366477010267 588.9997483700944 213.55366477010267 588.9997483700944 C 402.3062148085507 588.9997483700944 402.3062148085507 569.9619004354357 402.3062148085507 569.9619004354357 C 406.52698726542224 642.6802516299057 227.08633522989743 642.6802516299057 227.08633522989743 642.6802516299057" stroke-opacity="1" stroke-miterlimit="10" stroke-dasharray=""/><path fill="none" stroke="rgb(255,255,255)" paint-order="fill stroke markers" d=" M 226.10854112153075 638.8016025504395 C 38.33378519144944 638.8016025504395 38.33378519144944 621.6285411215307 38.33378519144944 621.6285411215307 C 38.33378519144944 592.8783974495606 214.53145887846935 592.8783974495606 214.53145887846935 592.8783974495606 C 402.3062148085507 592.8783974495606 402.3062148085507 569.9619004354357 402.3062148085507 569.9619004354357 C 407.58203308281065 638.8016025504395 226.10854112153075 638.8016025504395 226.10854112153075 638.8016025504395" stroke-opacity="1" stroke-miterlimit="10" stroke-dasharray=""/><path fill="none" stroke="rgb(255,255,255)" paint-order="fill stroke markers" d=" M 605.7807043926173 803.2479992176774 C 408.2720007823227 803.2479992176774 408.2720007823227 625.9407043926174 408.2720007823227 625.9407043926174 C 408.2720007823227 428.4320007823227 585.5792956073828 428.4320007823227 585.5792956073828 428.4320007823227 C 783.0879992176774 428.4320007823227 783.0879992176774 605.7392956073828 783.0879992176774 605.7392956073828 C 786.497868626237 803.2479992176774 605.7807043926173 803.2479992176774 605.7807043926173 803.2479992176774" stroke-opacity="1" stroke-miterlimit="10" stroke-dasharray=""/><path fill="none" stroke="rgb(255,255,255)" paint-order="fill stroke markers" d=" M 605.5654293629367 799.2537963358002 C 412.26620366419985 799.2537963358002 412.26620366419985 625.7254293629367 412.26620366419985 625.7254293629367 C 412.26620366419985 432.4262036641998 585.7945706370635 432.4262036641998 585.7945706370635 432.4262036641998 C 783.0879992176774 432.4262036641998 783.0879992176774 605.7392956073828 783.0879992176774 605.7392956073828 C 790.8154305997843 799.2537963358002 605.5654293629367 799.2537963358002 605.5654293629367 799.2537963358002" stroke-opacity="1" stroke-miterlimit="10" stroke-dasharray=""/><path fill="none" stroke="rgb(255,255,255)" paint-order="fill stroke markers" d=" M 605.350154333256 795.2595934539231 C 408.2720007823227 795.2595934539231 408.2720007823227 625.510154333256 408.2720007823227 625.510154333256 C 408.2720007823227 436.420406546077 586.0098456667442 436.420406546077 586.0098456667442 436.420406546077 C 783.0879992176774 436.420406546077 783.0879992176774 605.7392956073828 783.0879992176774 605.7392956073828 C 782.2281279783349 795.2595934539231 605.350154333256 795.2595934539231 605.350154333256 795.2595934539231" stroke-opacity="1" stroke-miterlimit="10" stroke-dasharray=""/><path fill="none" stroke="rgb(255,255,255)" paint-order="fill stroke markers" d=" M 605.1348793035753 791.2653905720458 C 420.2546094279542 791.2653905720458 420.2546094279542 625.2948793035753 420.2546094279542 625.2948793035753 C 420.2546094279542 440.4146094279542 586.2251206964248 440.4146094279542 586.2251206964248 440.4146094279542 C 783.0879992176774 440.4146094279542 783.0879992176774 605.7392956073828 783.0879992176774 605.7392956073828 C 782.8070120946268 791.2653905720458 605.1348793035753 791.2653905720458 605.1348793035753 791.2653905720458" stroke-opacity="1" stroke-miterlimit="10" stroke-dasharray=""/><path fill="none" stroke="rgb(255,255,255)" paint-order="fill stroke markers" d=" M 604.9196042738946 787.2711876901687 C 424.2488123098314 787.2711876901687 424.2488123098314 625.9407043926174 424.2488123098314 625.9407043926174 C 424.2488123098314 444.4088123098314 586.4403957261055 444.4088123098314 586.4403957261055 444.4088123098314 C 783.0879992176774 444.4088123098314 783.0879992176774 605.7392956073828 783.0879992176774 605.7392956073828 C 790.0251907115935 787.2711876901687 604.9196042738946 787.2711876901687 604.9196042738946 787.2711876901687" stroke-opacity="1" stroke-miterlimit="10" stroke-dasharray=""/><path fill="none" stroke="rgb(255,255,255)" paint-order="fill stroke markers" d=" M 604.7043292442139 783.2769848082914 C 428.2430151917086 783.2769848082914 428.2430151917086 624.864329244214 428.2430151917086 624.864329244214 C 428.2430151917086 448.40301519170856 586.6556707557862 448.40301519170856 586.6556707557862 448.40301519170856 C 783.0879992176774 448.40301519170856 783.0879992176774 605.7392956073828 783.0879992176774 605.7392956073828 C 777.3489283986589 783.2769848082914 604.7043292442139 783.2769848082914 604.7043292442139 783.2769848082914" stroke-opacity="1" stroke-miterlimit="10" stroke-dasharray=""/><path fill="none" stroke="rgb(255,255,255)" paint-order="fill stroke markers" d=" M 604.4890542145333 779.2827819264144 C 408.2720007823227 779.2827819264144 408.2720007823227 625.9407043926174 408.2720007823227 625.9407043926174 C 408.2720007823227 452.39721807358575 586.8709457854669 452.39721807358575 586.8709457854669 452.39721807358575 C 783.0879992176774 452.39721807358575 783.0879992176774 605.7392956073828 783.0879992176774 605.7392956073828 C 778.1829844208046 779.2827819264144 604.4890542145333 779.2827819264144 604.4890542145333 779.2827819264144" stroke-opacity="1" stroke-miterlimit="10" stroke-dasharray=""/><path fill="none" stroke="rgb(255,255,255)" paint-order="fill stroke markers" d=" M 604.2737791848526 775.2885790445371 C 436.23142095546297 775.2885790445371 436.23142095546297 625.9407043926174 436.23142095546297 625.9407043926174 C 436.23142095546297 456.39142095546293 587.0862208151476 456.39142095546293 587.0862208151476 456.39142095546293 C 783.0879992176774 456.39142095546293 783.0879992176774 605.7392956073828 783.0879992176774 605.7392956073828 C 788.745610179579 775.2885790445371 604.2737791848526 775.2885790445371 604.2737791848526 775.2885790445371" stroke-opacity="1" stroke-miterlimit="10" stroke-dasharray=""/><path fill="none" stroke="rgb(255,255,255)" paint-order="fill stroke markers" d=" M 604.0585041551719 771.29437616266 C 408.2720007823227 771.29437616266 408.2720007823227 625.9407043926174 408.2720007823227 625.9407043926174 C 408.2720007823227 460.38562383734006 587.3014958448282 460.38562383734006 587.3014958448282 460.38562383734006 C 783.0879992176774 460.38562383734006 783.0879992176774 605.7392956073828 783.0879992176774 605.7392956073828 C 776.3992098853905 771.29437616266 604.0585041551719 771.29437616266 604.0585041551719 771.29437616266" stroke-opacity="1" stroke-miterlimit="10" stroke-dasharray=""/><path fill="none" stroke="rgb(255,255,255)" paint-order="fill stroke markers" d=" M 603.8432291254912 767.3001732807828 C 444.2198267192173 767.3001732807828 444.2198267192173 624.0032291254912 444.2198267192173 624.0032291254912 C 444.2198267192173 464.37982671921725 587.5167708745089 464.37982671921725 587.5167708745089 464.37982671921725 C 783.0879992176774 464.37982671921725 783.0879992176774 605.7392956073828 783.0879992176774 605.7392956073828 C 786.9517572925022 767.3001732807828 603.8432291254912 767.3001732807828 603.8432291254912 767.3001732807828" stroke-opacity="1" stroke-miterlimit="10" stroke-dasharray=""/><path fill="none" stroke="rgb(255,255,255)" paint-order="fill stroke markers" d=" M 603.6279540958105 763.3059703989056 C 408.2720007823227 763.3059703989056 408.2720007823227 623.7879540958105 408.2720007823227 623.7879540958105 C 408.2720007823227 468.37402960109443 587.7320459041896 468.37402960109443 587.7320459041896 468.37402960109443 C 783.0879992176774 468.37402960109443 783.0879992176774 605.7392956073828 783.0879992176774 605.7392956073828 C 783.6788635068901 763.3059703989056 603.6279540958105 763.3059703989056 603.6279540958105 763.3059703989056" stroke-opacity="1" stroke-miterlimit="10" stroke-dasharray=""/><path fill="none" stroke="rgb(255,255,255)" paint-order="fill stroke markers" d=" M 603.41267906613 759.3117675170284 C 408.2720007823227 759.3117675170284 408.2720007823227 625.9407043926174 408.2720007823227 625.9407043926174 C 408.2720007823227 472.3682324829716 587.9473209338703 472.3682324829716 587.9473209338703 472.3682324829716 C 783.0879992176774 472.3682324829716 783.0879992176774 605.7392956073828 783.0879992176774 605.7392956073828 C 788.6364984557571 759.3117675170284 603.41267906613 759.3117675170284 603.41267906613 759.3117675170284" stroke-opacity="1" stroke-miterlimit="10" stroke-dasharray=""/><path fill="none" stroke="rgb(255,255,255)" paint-order="fill stroke markers" d=" M 603.1974040364493 755.3175646351513 C 456.20243536484884 755.3175646351513 456.20243536484884 625.9407043926174 456.20243536484884 625.9407043926174 C 456.20243536484884 476.3624353648488 588.162595963551 476.3624353648488 588.162595963551 476.3624353648488 C 783.0879992176774 476.3624353648488 783.0879992176774 605.7392956073828 783.0879992176774 605.7392956073828 C 782.2616714565806 755.3175646351513 603.1974040364493 755.3175646351513 603.1974040364493 755.3175646351513" stroke-opacity="1" stroke-miterlimit="10" stroke-dasharray=""/><path fill="none" stroke="rgb(255,255,255)" paint-order="fill stroke markers" d=" M 602.9821290067686 751.3233617532741 C 460.196638246726 751.3233617532741 460.196638246726 625.9407043926174 460.196638246726 625.9407043926174 C 460.196638246726 480.356638246726 588.3778709932316 480.356638246726 588.3778709932316 480.356638246726 C 783.0879992176774 480.356638246726 783.0879992176774 605.7392956073828 783.0879992176774 605.7392956073828 C 776.1127902644839 751.3233617532741 602.9821290067686 751.3233617532741 602.9821290067686 751.3233617532741" stroke-opacity="1" stroke-miterlimit="10" stroke-dasharray=""/><path fill="none" stroke="rgb(255,255,255)" paint-order="fill stroke markers" d=" M 602.7668539770879 747.3291588713969 C 464.1908411286032 747.3291588713969 464.1908411286032 622.9268539770878 464.1908411286032 622.9268539770878 C 464.1908411286032 484.3508411286032 588.5931460229123 484.3508411286032 588.5931460229123 484.3508411286032 C 783.0879992176774 484.3508411286032 783.0879992176774 605.7392956073828 783.0879992176774 605.7392956073828 C 786.6280424016165 747.3291588713969 602.7668539770879 747.3291588713969 602.7668539770879 747.3291588713969" stroke-opacity="1" stroke-miterlimit="10" stroke-dasharray=""/><path fill="none" stroke="rgb(255,255,255)" paint-order="fill stroke markers" d=" M 602.5515789474072 743.3349559895197 C 408.2720007823227 743.3349559895197 408.2720007823227 622.7115789474071 408.2720007823227 622.7115789474071 C 408.2720007823227 488.34504401048036 588.808421052593 488.34504401048036 588.808421052593 488.34504401048036 C 783.0879992176774 488.34504401048036 783.0879992176774 605.7392956073828 783.0879992176774 605.7392956073828 C 780.7297310904032 743.3349559895197 602.5515789474072 743.3349559895197 602.5515789474072 743.3349559895197" stroke-opacity="1" stroke-miterlimit="10" stroke-dasharray=""/><path fill="none" stroke="rgb(255,255,255)" paint-order="fill stroke markers" d=" M 602.3363039177266 739.3407531076425 C 408.2720007823227 739.3407531076425 408.2720007823227 625.9407043926174 408.2720007823227 625.9407043926174 C 408.2720007823227 492.33924689235755 589.0236960822737 492.33924689235755 589.0236960822737 492.33924689235755 C 783.0879992176774 492.33924689235755 783.0879992176774 605.7392956073828 783.0879992176774 605.7392956073828 C 781.3723811600883 739.3407531076425 602.3363039177266 739.3407531076425 602.3363039177266 739.3407531076425" stroke-opacity="1" stroke-miterlimit="10" stroke-dasharray=""/><path fill="none" stroke="rgb(255,255,255)" paint-order="fill stroke markers" d=" M 602.1210288880459 735.3465502257653 C 408.2720007823227 735.3465502257653 408.2720007823227 625.9407043926174 408.2720007823227 625.9407043926174 C 408.2720007823227 496.33344977423474 589.2389711119544 496.33344977423474 589.2389711119544 496.33344977423474 C 783.0879992176774 496.33344977423474 783.0879992176774 605.7392956073828 783.0879992176774 605.7392956073828 C 778.868572587235 735.3465502257653 602.1210288880459 735.3465502257653 602.1210288880459 735.3465502257653" stroke-opacity="1" stroke-miterlimit="10" stroke-dasharray=""/><path fill="none" stroke="rgb(255,255,255)" paint-order="fill stroke markers" d=" M 601.9057538583652 731.3523473438881 C 408.2720007823227 731.3523473438881 408.2720007823227 622.0657538583652 408.2720007823227 622.0657538583652 C 408.2720007823227 500.3276526561119 589.4542461416349 500.3276526561119 589.4542461416349 500.3276526561119 C 783.0879992176774 500.3276526561119 783.0879992176774 605.7392956073828 783.0879992176774 605.7392956073828 C 786.3164024946439 731.3523473438881 601.9057538583652 731.3523473438881 601.9057538583652 731.3523473438881" stroke-opacity="1" stroke-miterlimit="10" stroke-dasharray=""/><path fill="none" stroke="rgb(255,255,255)" paint-order="fill stroke markers" d=" M 601.6904788286845 727.358144462011 C 484.16185553798914 727.358144462011 484.16185553798914 625.9407043926174 484.16185553798914 625.9407043926174 C 484.16185553798914 504.3218555379891 589.6695211713156 504.3218555379891 589.6695211713156 504.3218555379891 C 783.0879992176774 504.3218555379891 783.0879992176774 605.7392956073828 783.0879992176774 605.7392956073828 C 787.8153702648642 727.358144462011 601.6904788286845 727.358144462011 601.6904788286845 727.358144462011" stroke-opacity="1" stroke-miterlimit="10" stroke-dasharray=""/><path fill="none" stroke="rgb(255,255,255)" paint-order="fill stroke markers" d=" M 601.4752037990038 723.3639415801338 C 408.2720007823227 723.3639415801338 408.2720007823227 621.6352037990038 408.2720007823227 621.6352037990038 C 408.2720007823227 508.3160584198663 589.8847962009963 508.3160584198663 589.8847962009963 508.3160584198663 C 783.0879992176774 508.3160584198663 783.0879992176774 605.7392956073828 783.0879992176774 605.7392956073828 C 786.5844614099026 723.3639415801338 601.4752037990038 723.3639415801338 601.4752037990038 723.3639415801338" stroke-opacity="1" stroke-miterlimit="10" stroke-dasharray=""/><path fill="none" stroke="rgb(255,255,255)" paint-order="fill stroke markers" d=" M 601.2599287693232 719.3697386982566 C 408.2720007823227 719.3697386982566 408.2720007823227 625.9407043926174 408.2720007823227 625.9407043926174 C 408.2720007823227 512.3102613017435 590.100071230677 512.3102613017435 590.100071230677 512.3102613017435 C 783.0879992176774 512.3102613017435 783.0879992176774 605.7392956073828 783.0879992176774 605.7392956073828 C 785.7212343111619 719.3697386982566 601.2599287693232 719.3697386982566 601.2599287693232 719.3697386982566" stroke-opacity="1" stroke-miterlimit="10" stroke-dasharray=""/><path fill="none" stroke="rgb(255,255,255)" paint-order="fill stroke markers" d=" M 601.0446537396425 715.3755358163794 C 496.1444641836207 715.3755358163794 496.1444641836207 625.9407043926174 496.1444641836207 625.9407043926174 C 496.1444641836207 516.3044641836207 590.3153462603577 516.3044641836207 590.3153462603577 516.3044641836207 C 783.0879992176774 516.3044641836207 783.0879992176774 605.7392956073828 783.0879992176774 605.7392956073828 C 783.3692730591195 715.3755358163794 601.0446537396425 715.3755358163794 601.0446537396425 715.3755358163794" stroke-opacity="1" stroke-miterlimit="10" stroke-dasharray=""/><path fill="none" stroke="rgb(255,255,255)" paint-order="fill stroke markers" d=" M 600.8293787099618 711.3813329345022 C 408.2720007823227 711.3813329345022 408.2720007823227 625.9407043926174 408.2720007823227 625.9407043926174 C 408.2720007823227 520.2986670654979 590.5306212900383 520.2986670654979 590.5306212900383 520.2986670654979 C 783.0879992176774 520.2986670654979 783.0879992176774 605.7392956073828 783.0879992176774 605.7392956073828 C 784.7135122010966 711.3813329345022 600.8293787099618 711.3813329345022 600.8293787099618 711.3813329345022" stroke-opacity="1" stroke-miterlimit="10" stroke-dasharray=""/><path fill="none" stroke="rgb(255,255,255)" paint-order="fill stroke markers" d=" M 600.6141036802811 707.387130052625 C 408.2720007823227 707.387130052625 408.2720007823227 625.9407043926174 408.2720007823227 625.9407043926174 C 408.2720007823227 524.292869947375 590.745896319719 524.292869947375 590.745896319719 524.292869947375 C 783.0879992176774 524.292869947375 783.0879992176774 605.7392956073828 783.0879992176774 605.7392956073828 C 780.7707820296035 707.387130052625 600.6141036802811 707.387130052625 600.6141036802811 707.387130052625" stroke-opacity="1" stroke-miterlimit="10" stroke-dasharray=""/><path fill="none" stroke="rgb(255,255,255)" paint-order="fill stroke markers" d=" M 600.3988286506004 703.3929271707478 C 408.2720007823227 703.3929271707478 408.2720007823227 625.9407043926174 408.2720007823227 625.9407043926174 C 408.2720007823227 528.2870728292522 590.9611713493997 528.2870728292522 590.9611713493997 528.2870728292522 C 783.0879992176774 528.2870728292522 783.0879992176774 605.7392956073828 783.0879992176774 605.7392956073828 C 775.967022862533 703.3929271707478 600.3988286506004 703.3929271707478 600.3988286506004 703.3929271707478" stroke-opacity="1" stroke-miterlimit="10" stroke-dasharray=""/><path fill="none" stroke="rgb(255,255,255)" paint-order="fill stroke markers" d=" M 600.1835536209198 699.3987242888707 C 512.1212757111294 699.3987242888707 512.1212757111294 620.3435536209198 512.1212757111294 620.3435536209198 C 512.1212757111294 532.2812757111294 591.1764463790804 532.2812757111294 591.1764463790804 532.2812757111294 C 783.0879992176774 532.2812757111294 783.0879992176774 605.7392956073828 783.0879992176774 605.7392956073828 C 783.503617146921 699.3987242888707 600.1835536209198 699.3987242888707 600.1835536209198 699.3987242888707" stroke-opacity="1" stroke-miterlimit="10" stroke-dasharray=""/><path fill="none" stroke="rgb(255,255,255)" paint-order="fill stroke markers" d=" M 599.9682785912391 695.4045214069935 C 408.2720007823227 695.4045214069935 408.2720007823227 625.9407043926174 408.2720007823227 625.9407043926174 C 408.2720007823227 536.2754785930066 591.3917214087611 536.2754785930066 591.3917214087611 536.2754785930066 C 783.0879992176774 536.2754785930066 783.0879992176774 605.7392956073828 783.0879992176774 605.7392956073828 C 786.409377990142 695.4045214069935 599.9682785912391 695.4045214069935 599.9682785912391 695.4045214069935" stroke-opacity="1" stroke-miterlimit="10" stroke-dasharray=""/><path fill="none" stroke="rgb(255,255,255)" paint-order="fill stroke markers" d=" M 599.7530035615584 691.4103185251163 C 408.2720007823227 691.4103185251163 408.2720007823227 619.9130035615584 408.2720007823227 619.9130035615584 C 408.2720007823227 540.2696814748838 591.6069964384417 540.2696814748838 591.6069964384417 540.2696814748838 C 783.0879992176774 540.2696814748838 783.0879992176774 605.7392956073828 783.0879992176774 605.7392956073828 C 784.6433367316755 691.4103185251163 599.7530035615584 691.4103185251163 599.7530035615584 691.4103185251163" stroke-opacity="1" stroke-miterlimit="10" stroke-dasharray=""/><path fill="none" stroke="rgb(255,255,255)" paint-order="fill stroke markers" d=" M 599.5377285318777 687.4161156432391 C 408.2720007823227 687.4161156432391 408.2720007823227 625.9407043926174 408.2720007823227 625.9407043926174 C 408.2720007823227 544.263884356761 591.8222714681224 544.263884356761 591.8222714681224 544.263884356761 C 783.0879992176774 544.263884356761 783.0879992176774 605.7392956073828 783.0879992176774 605.7392956073828 C 777.813962187611 687.4161156432391 599.5377285318777 687.4161156432391 599.5377285318777 687.4161156432391" stroke-opacity="1" stroke-miterlimit="10" stroke-dasharray=""/><path fill="none" stroke="rgb(255,255,255)" paint-order="fill stroke markers" d=" M 599.322453502197 683.4219127613619 C 528.0980872386382 683.4219127613619 528.0980872386382 625.9407043926174 528.0980872386382 625.9407043926174 C 528.0980872386382 548.2580872386382 592.0375464978031 548.2580872386382 592.0375464978031 548.2580872386382 C 783.0879992176774 548.2580872386382 783.0879992176774 605.7392956073828 783.0879992176774 605.7392956073828 C 788.7129373494697 683.4219127613619 599.322453502197 683.4219127613619 599.322453502197 683.4219127613619" stroke-opacity="1" stroke-miterlimit="10" stroke-dasharray=""/><path fill="none" stroke="rgb(255,255,255)" paint-order="fill stroke markers" d=" M 599.1071784725164 679.4277098794847 C 408.2720007823227 679.4277098794847 408.2720007823227 619.2671784725164 408.2720007823227 619.2671784725164 C 408.2720007823227 552.2522901205153 592.2528215274838 552.2522901205153 592.2528215274838 552.2522901205153 C 783.0879992176774 552.2522901205153 783.0879992176774 605.7392956073828 783.0879992176774 605.7392956073828 C 780.4890814972293 679.4277098794847 599.1071784725164 679.4277098794847 599.1071784725164 679.4277098794847" stroke-opacity="1" stroke-miterlimit="10" stroke-dasharray=""/><path fill="none" stroke="rgb(255,255,255)" paint-order="fill stroke markers" d=" M 598.8919034428358 675.4335069976075 C 536.0864930023924 675.4335069976075 536.0864930023924 619.0519034428357 536.0864930023924 619.0519034428357 C 536.0864930023924 556.2464930023925 592.4680965571644 556.2464930023925 592.4680965571644 556.2464930023925 C 783.0879992176774 556.2464930023925 783.0879992176774 605.7392956073828 783.0879992176774 605.7392956073828 C 788.3402790432663 675.4335069976075 598.8919034428358 675.4335069976075 598.8919034428358 675.4335069976075" stroke-opacity="1" stroke-miterlimit="10" stroke-dasharray=""/><path fill="none" stroke="rgb(255,255,255)" paint-order="fill stroke markers" d=" M 598.6766284131551 671.4393041157305 C 540.0806958842697 671.4393041157305 540.0806958842697 618.836628413155 540.0806958842697 618.836628413155 C 540.0806958842697 560.2406958842696 592.683371586845 560.2406958842696 592.683371586845 560.2406958842696 C 783.0879992176774 560.2406958842696 783.0879992176774 605.7392956073828 783.0879992176774 605.7392956073828 C 778.4544108502475 671.4393041157305 598.6766284131551 671.4393041157305 598.6766284131551 671.4393041157305" stroke-opacity="1" stroke-miterlimit="10" stroke-dasharray=""/><path fill="none" stroke="rgb(255,255,255)" paint-order="fill stroke markers" d=" M 598.4613533834744 667.4451012338533 C 408.2720007823227 667.4451012338533 408.2720007823227 625.9407043926174 408.2720007823227 625.9407043926174 C 408.2720007823227 564.2348987661468 592.8986466165258 564.2348987661468 592.8986466165258 564.2348987661468 C 783.0879992176774 564.2348987661468 783.0879992176774 605.7392956073828 783.0879992176774 605.7392956073828 C 778.8988696319432 667.4451012338533 598.4613533834744 667.4451012338533 598.4613533834744 667.4451012338533" stroke-opacity="1" stroke-miterlimit="10" stroke-dasharray=""/><path fill="none" stroke="rgb(255,255,255)" paint-order="fill stroke markers" d=" M 598.2460783537937 663.4508983519761 C 408.2720007823227 663.4508983519761 408.2720007823227 618.4060783537936 408.2720007823227 618.4060783537936 C 408.2720007823227 568.229101648024 593.1139216462064 568.229101648024 593.1139216462064 568.229101648024 C 783.0879992176774 568.229101648024 783.0879992176774 605.7392956073828 783.0879992176774 605.7392956073828 C 790.8832088368512 663.4508983519761 598.2460783537937 663.4508983519761 598.2460783537937 663.4508983519761" stroke-opacity="1" stroke-miterlimit="10" stroke-dasharray=""/><path fill="none" stroke="rgb(255,255,255)" paint-order="fill stroke markers" d=" M 598.030803324113 659.4566954700989 C 552.0633045299012 659.4566954700989 552.0633045299012 618.190803324113 552.0633045299012 618.190803324113 C 552.0633045299012 572.2233045299012 593.3291966758871 572.2233045299012 593.3291966758871 572.2233045299012 C 783.0879992176774 572.2233045299012 783.0879992176774 605.7392956073828 783.0879992176774 605.7392956073828 C 790.3162032028602 659.4566954700989 598.030803324113 659.4566954700989 598.030803324113 659.4566954700989" stroke-opacity="1" stroke-miterlimit="10" stroke-dasharray=""/><path fill="none" stroke="rgb(255,255,255)" paint-order="fill stroke markers" d=" M 597.8155282944324 655.4624925882217 C 556.0575074117784 655.4624925882217 556.0575074117784 617.9755282944324 556.0575074117784 617.9755282944324 C 556.0575074117784 576.2175074117783 593.5444717055677 576.2175074117783 593.5444717055677 576.2175074117783 C 783.0879992176774 576.2175074117783 783.0879992176774 605.7392956073828 783.0879992176774 605.7392956073828 C 775.8233054388398 655.4624925882217 597.8155282944324 655.4624925882217 597.8155282944324 655.4624925882217" stroke-opacity="1" stroke-miterlimit="10" stroke-dasharray=""/><path fill="none" stroke="rgb(255,255,255)" paint-order="fill stroke markers" d=" M 597.6002532647517 651.4682897063445 C 408.2720007823227 651.4682897063445 408.2720007823227 617.7602532647517 408.2720007823227 617.7602532647517 C 408.2720007823227 580.2117102936555 593.7597467352484 580.2117102936555 593.7597467352484 580.2117102936555 C 783.0879992176774 580.2117102936555 783.0879992176774 605.7392956073828 783.0879992176774 605.7392956073828 C 777.7166381683826 651.4682897063445 597.6002532647517 651.4682897063445 597.6002532647517 651.4682897063445" stroke-opacity="1" stroke-miterlimit="10" stroke-dasharray=""/><path fill="none" stroke="rgb(255,255,255)" paint-order="fill stroke markers" d=" M 597.384978235071 647.4740868244673 C 408.2720007823227 647.4740868244673 408.2720007823227 625.9407043926174 408.2720007823227 625.9407043926174 C 408.2720007823227 584.2059131755327 593.9750217649291 584.2059131755327 593.9750217649291 584.2059131755327 C 783.0879992176774 584.2059131755327 783.0879992176774 605.7392956073828 783.0879992176774 605.7392956073828 C 776.2764296512563 647.4740868244673 597.384978235071 647.4740868244673 597.384978235071 647.4740868244673" stroke-opacity="1" stroke-miterlimit="10" stroke-dasharray=""/><path fill="none" stroke="rgb(255,255,255)" paint-order="fill stroke markers" d=" M 597.1697032053903 643.4798839425902 C 408.2720007823227 643.4798839425902 408.2720007823227 617.3297032053903 408.2720007823227 617.3297032053903 C 408.2720007823227 588.2001160574099 594.1902967946098 588.2001160574099 594.1902967946098 588.2001160574099 C 783.0879992176774 588.2001160574099 783.0879992176774 605.7392956073828 783.0879992176774 605.7392956073828 C 777.0463409871488 643.4798839425902 597.1697032053903 643.4798839425902 597.1697032053903 643.4798839425902" stroke-opacity="1" stroke-miterlimit="10" stroke-dasharray=""/><path fill="none" stroke="rgb(255,255,255)" paint-order="fill stroke markers" d=" M 596.9544281757096 639.485681060713 C 572.0343189392871 639.485681060713 572.0343189392871 617.1144281757096 572.0343189392871 617.1144281757096 C 572.0343189392871 592.1943189392871 594.4055718242905 592.1943189392871 594.4055718242905 592.1943189392871 C 783.0879992176774 592.1943189392871 783.0879992176774 605.7392956073828 783.0879992176774 605.7392956073828 C 779.0253045276947 639.485681060713 596.9544281757096 639.485681060713 596.9544281757096 639.485681060713" stroke-opacity="1" stroke-miterlimit="10" stroke-dasharray=""/><path fill="none" stroke="rgb(255,255,255)" paint-order="fill stroke markers" d=" M 596.739153146029 635.4914781788358 C 408.2720007823227 635.4914781788358 408.2720007823227 625.9407043926174 408.2720007823227 625.9407043926174 C 408.2720007823227 596.1885218211643 594.6208468539711 596.1885218211643 594.6208468539711 596.1885218211643 C 783.0879992176774 596.1885218211643 783.0879992176774 605.7392956073828 783.0879992176774 605.7392956073828 C 789.1206990082449 635.4914781788358 596.739153146029 635.4914781788358 596.739153146029 635.4914781788358" stroke-opacity="1" stroke-miterlimit="10" stroke-dasharray=""/><path fill="none" stroke="rgb(255,255,255)" paint-order="fill stroke markers" d=" M 596.5238781163483 631.4972752969586 C 408.2720007823227 631.4972752969586 408.2720007823227 616.6838781163483 408.2720007823227 616.6838781163483 C 408.2720007823227 600.1827247030415 594.8361218836518 600.1827247030415 594.8361218836518 600.1827247030415 C 783.0879992176774 600.1827247030415 783.0879992176774 605.7392956073828 783.0879992176774 605.7392956073828 C 787.917234779097 631.4972752969586 596.5238781163483 631.4972752969586 596.5238781163483 631.4972752969586" stroke-opacity="1" stroke-miterlimit="10" stroke-dasharray=""/><path fill="none" stroke="rgb(255,255,255)" paint-order="fill stroke markers" d=" M 596.3086030866676 627.5030724150814 C 584.0169275849187 627.5030724150814 584.0169275849187 616.4686030866676 584.0169275849187 616.4686030866676 C 584.0169275849187 604.1769275849186 595.0513969133325 604.1769275849186 595.0513969133325 604.1769275849186 C 783.0879992176774 604.1769275849186 783.0879992176774 605.7392956073828 783.0879992176774 605.7392956073828 C 785.0922040106262 627.5030724150814 596.3086030866676 627.5030724150814 596.3086030866676 627.5030724150814" stroke-opacity="1" stroke-miterlimit="10" stroke-dasharray=""/><path fill="none" stroke="rgb(255,255,255)" paint-order="fill stroke markers" d=" M 596.0933280569869 623.5088695332042 C 588.0111304667959 623.5088695332042 588.0111304667959 625.9407043926174 588.0111304667959 625.9407043926174 C 588.0111304667959 608.1711304667958 595.2666719430132 608.1711304667958 595.2666719430132 608.1711304667958 C 783.0879992176774 608.1711304667958 783.0879992176774 605.7392956073828 783.0879992176774 605.7392956073828 C 778.6315002033001 623.5088695332042 596.0933280569869 623.5088695332042 596.0933280569869 623.5088695332042" stroke-opacity="1" stroke-miterlimit="10" stroke-dasharray=""/><path fill="none" stroke="rgb(255,255,255)" paint-order="fill stroke markers" d=" M 595.8780530273062 619.514666651327 C 408.2720007823227 619.514666651327 408.2720007823227 616.0380530273062 408.2720007823227 616.0380530273062 C 408.2720007823227 612.165333348673 595.4819469726939 612.165333348673 595.4819469726939 612.165333348673 C 783.0879992176774 612.165333348673 783.0879992176774 605.7392956073828 783.0879992176774 605.7392956073828 C 779.9853246881031 619.514666651327 595.8780530273062 619.514666651327 595.8780530273062 619.514666651327" stroke-opacity="1" stroke-miterlimit="10" stroke-dasharray=""/><path fill="none" stroke="rgb(255,255,255)" paint-order="fill stroke markers" d=" M 595.6627779976257 615.5204637694499 C 408.2720007823227 615.5204637694499 408.2720007823227 625.9407043926174 408.2720007823227 625.9407043926174 C 408.2720007823227 616.1595362305502 595.6972220023745 616.1595362305502 595.6972220023745 616.1595362305502 C 783.0879992176774 616.1595362305502 783.0879992176774 605.7392956073828 783.0879992176774 605.7392956073828 C 782.7149265442149 615.5204637694499 595.6627779976257 615.5204637694499 595.6627779976257 615.5204637694499" stroke-opacity="1" stroke-miterlimit="10" stroke-dasharray=""/><path fill="none" stroke="rgb(255,255,255)" paint-order="fill stroke markers" d=" M 595.447502967945 611.5262608875727 C 599.9937391124274 611.5262608875727 599.9937391124274 615.6075029679449 599.9937391124274 615.6075029679449 C 599.9937391124274 620.1537391124274 595.9124970320552 620.1537391124274 595.9124970320552 620.1537391124274 C 783.0879992176774 620.1537391124274 783.0879992176774 605.7392956073828 783.0879992176774 605.7392956073828 C 790.9497353185682 611.5262608875727 595.447502967945 611.5262608875727 595.447502967945 611.5262608875727" stroke-opacity="1" stroke-miterlimit="10" stroke-dasharray=""/><path fill="none" stroke="rgb(255,255,255)" paint-order="fill stroke markers" d=" M 595.2322279382643 607.5320580056955 C 603.9879419943046 607.5320580056955 603.9879419943046 625.9407043926174 603.9879419943046 625.9407043926174 C 603.9879419943046 624.1479419943046 596.1277720617359 624.1479419943046 596.1277720617359 624.1479419943046 C 783.0879992176774 624.1479419943046 783.0879992176774 605.7392956073828 783.0879992176774 605.7392956073828 C 779.9018927257054 607.5320580056955 595.2322279382643 607.5320580056955 595.2322279382643 607.5320580056955" stroke-opacity="1" stroke-miterlimit="10" stroke-dasharray=""/><path fill="none" stroke="rgb(255,255,255)" paint-order="fill stroke markers" d=" M 595.0169529085836 603.5378551238183 C 607.9821448761818 603.5378551238183 607.9821448761818 615.1769529085835 607.9821448761818 615.1769529085835 C 607.9821448761818 628.1421448761818 596.3430470914166 628.1421448761818 596.3430470914166 628.1421448761818 C 783.0879992176774 628.1421448761818 783.0879992176774 605.7392956073828 783.0879992176774 605.7392956073828 C 781.9762164928502 603.5378551238183 595.0169529085836 603.5378551238183 595.0169529085836 603.5378551238183" stroke-opacity="1" stroke-miterlimit="10" stroke-dasharray=""/><path fill="none" stroke="rgb(255,255,255)" paint-order="fill stroke markers" d=" M 594.8016778789029 599.5436522419411 C 408.2720007823227 599.5436522419411 408.2720007823227 614.9616778789028 408.2720007823227 614.9616778789028 C 408.2720007823227 632.136347758059 596.5583221210973 632.136347758059 596.5583221210973 632.136347758059 C 783.0879992176774 632.136347758059 783.0879992176774 605.7392956073828 783.0879992176774 605.7392956073828 C 778.4215972904044 599.5436522419411 594.8016778789029 599.5436522419411 594.8016778789029 599.5436522419411" stroke-opacity="1" stroke-miterlimit="10" stroke-dasharray=""/><path fill="none" stroke="rgb(255,255,255)" paint-order="fill stroke markers" d=" M 594.5864028492223 595.5494493600639 C 615.9705506399362 595.5494493600639 615.9705506399362 614.7464028492222 615.9705506399362 614.7464028492222 C 615.9705506399362 636.1305506399361 596.7735971507778 636.1305506399361 596.7735971507778 636.1305506399361 C 783.0879992176774 636.1305506399361 783.0879992176774 605.7392956073828 783.0879992176774 605.7392956073828 C 782.9810857402322 595.5494493600639 594.5864028492223 595.5494493600639 594.5864028492223 595.5494493600639" stroke-opacity="1" stroke-miterlimit="10" stroke-dasharray=""/><path fill="none" stroke="rgb(255,255,255)" paint-order="fill stroke markers" d=" M 594.3711278195416 591.5552464781867 C 619.9647535218133 591.5552464781867 619.9647535218133 625.9407043926174 619.9647535218133 625.9407043926174 C 619.9647535218133 640.1247535218133 596.9888721804585 640.1247535218133 596.9888721804585 640.1247535218133 C 783.0879992176774 640.1247535218133 783.0879992176774 605.7392956073828 783.0879992176774 605.7392956073828 C 783.4996624474019 591.5552464781867 594.3711278195416 591.5552464781867 594.3711278195416 591.5552464781867" stroke-opacity="1" stroke-miterlimit="10" stroke-dasharray=""/><path fill="none" stroke="rgb(255,255,255)" paint-order="fill stroke markers" d=" M 594.1558527898609 587.5610435963096 C 408.2720007823227 587.5610435963096 408.2720007823227 614.3158527898609 408.2720007823227 614.3158527898609 C 408.2720007823227 644.1189564036905 597.2041472101392 644.1189564036905 597.2041472101392 644.1189564036905 C 783.0879992176774 644.1189564036905 783.0879992176774 605.7392956073828 783.0879992176774 605.7392956073828 C 789.7629548777057 587.5610435963096 594.1558527898609 587.5610435963096 594.1558527898609 587.5610435963096" stroke-opacity="1" stroke-miterlimit="10" stroke-dasharray=""/><path fill="none" stroke="rgb(255,255,255)" paint-order="fill stroke markers" d=" M 593.9405777601802 583.5668407144324 C 627.9531592855677 583.5668407144324 627.9531592855677 625.9407043926174 627.9531592855677 625.9407043926174 C 627.9531592855677 648.1131592855677 597.4194222398199 648.1131592855677 597.4194222398199 648.1131592855677 C 783.0879992176774 648.1131592855677 783.0879992176774 605.7392956073828 783.0879992176774 605.7392956073828 C 782.8353277681472 583.5668407144324 593.9405777601802 583.5668407144324 593.9405777601802 583.5668407144324" stroke-opacity="1" stroke-miterlimit="10" stroke-dasharray=""/><path fill="none" stroke="rgb(255,255,255)" paint-order="fill stroke markers" d=" M 593.7253027304995 579.5726378325552 C 631.9473621674449 579.5726378325552 631.9473621674449 613.8853027304995 631.9473621674449 613.8853027304995 C 631.9473621674449 652.1073621674449 597.6346972695006 652.1073621674449 597.6346972695006 652.1073621674449 C 783.0879992176774 652.1073621674449 783.0879992176774 605.7392956073828 783.0879992176774 605.7392956073828 C 781.2732811070907 579.5726378325552 593.7253027304995 579.5726378325552 593.7253027304995 579.5726378325552" stroke-opacity="1" stroke-miterlimit="10" stroke-dasharray=""/><path fill="none" stroke="rgb(255,255,255)" paint-order="fill stroke markers" d=" M 593.5100277008189 575.578434950678 C 408.2720007823227 575.578434950678 408.2720007823227 613.6700277008189 408.2720007823227 613.6700277008189 C 408.2720007823227 656.1015650493221 597.8499722991812 656.1015650493221 597.8499722991812 656.1015650493221 C 783.0879992176774 656.1015650493221 783.0879992176774 605.7392956073828 783.0879992176774 605.7392956073828 C 789.6272914953124 575.578434950678 593.5100277008189 575.578434950678 593.5100277008189 575.578434950678" stroke-opacity="1" stroke-miterlimit="10" stroke-dasharray=""/><path fill="none" stroke="rgb(255,255,255)" paint-order="fill stroke markers" d=" M 593.2947526711382 571.5842320688008 C 408.2720007823227 571.5842320688008 408.2720007823227 613.4547526711382 408.2720007823227 613.4547526711382 C 408.2720007823227 660.0957679311992 598.0652473288619 660.0957679311992 598.0652473288619 660.0957679311992 C 783.0879992176774 660.0957679311992 783.0879992176774 605.7392956073828 783.0879992176774 605.7392956073828 C 789.1895576205127 571.5842320688008 593.2947526711382 571.5842320688008 593.2947526711382 571.5842320688008" stroke-opacity="1" stroke-miterlimit="10" stroke-dasharray=""/><path fill="none" stroke="rgb(255,255,255)" paint-order="fill stroke markers" d=" M 593.0794776414575 567.5900291869236 C 408.2720007823227 567.5900291869236 408.2720007823227 625.9407043926174 408.2720007823227 625.9407043926174 C 408.2720007823227 664.0899708130764 598.2805223585426 664.0899708130764 598.2805223585426 664.0899708130764 C 783.0879992176774 664.0899708130764 783.0879992176774 605.7392956073828 783.0879992176774 605.7392956073828 C 779.6032680218464 567.5900291869236 593.0794776414575 567.5900291869236 593.0794776414575 567.5900291869236" stroke-opacity="1" stroke-miterlimit="10" stroke-dasharray=""/><path fill="none" stroke="rgb(255,255,255)" paint-order="fill stroke markers" d=" M 592.8642026117768 563.5958263050466 C 408.2720007823227 563.5958263050466 408.2720007823227 625.9407043926174 408.2720007823227 625.9407043926174 C 408.2720007823227 668.0841736949535 598.4957973882233 668.0841736949535 598.4957973882233 668.0841736949535 C 783.0879992176774 668.0841736949535 783.0879992176774 605.7392956073828 783.0879992176774 605.7392956073828 C 789.734152197572 563.5958263050466 592.8642026117768 563.5958263050466 592.8642026117768 563.5958263050466" stroke-opacity="1" stroke-miterlimit="10" stroke-dasharray=""/><path fill="none" stroke="rgb(255,255,255)" paint-order="fill stroke markers" d=" M 592.6489275820961 559.6016234231693 C 651.9183765768307 559.6016234231693 651.9183765768307 612.8089275820961 651.9183765768307 612.8089275820961 C 651.9183765768307 672.0783765768308 598.7110724179039 672.0783765768308 598.7110724179039 672.0783765768308 C 783.0879992176774 672.0783765768308 783.0879992176774 605.7392956073828 783.0879992176774 605.7392956073828 C 791.0861324222602 559.6016234231693 592.6489275820961 559.6016234231693 592.6489275820961 559.6016234231693" stroke-opacity="1" stroke-miterlimit="10" stroke-dasharray=""/><path fill="none" stroke="rgb(255,255,255)" paint-order="fill stroke markers" d=" M 592.4336525524155 555.6074205412922 C 408.2720007823227 555.6074205412922 408.2720007823227 612.5936525524155 408.2720007823227 612.5936525524155 C 408.2720007823227 676.0725794587079 598.9263474475846 676.0725794587079 598.9263474475846 676.0725794587079 C 783.0879992176774 676.0725794587079 783.0879992176774 605.7392956073828 783.0879992176774 605.7392956073828 C 778.6190691881629 555.6074205412922 592.4336525524155 555.6074205412922 592.4336525524155 555.6074205412922" stroke-opacity="1" stroke-miterlimit="10" stroke-dasharray=""/><path fill="none" stroke="rgb(255,255,255)" paint-order="fill stroke markers" d=" M 592.2183775227348 551.613217659415 C 408.2720007823227 551.613217659415 408.2720007823227 612.3783775227348 408.2720007823227 612.3783775227348 C 408.2720007823227 680.0667823405851 599.1416224772653 680.0667823405851 599.1416224772653 680.0667823405851 C 783.0879992176774 680.0667823405851 783.0879992176774 605.7392956073828 783.0879992176774 605.7392956073828 C 787.2496125113275 551.613217659415 592.2183775227348 551.613217659415 592.2183775227348 551.613217659415" stroke-opacity="1" stroke-miterlimit="10" stroke-dasharray=""/><path fill="none" stroke="rgb(255,255,255)" paint-order="fill stroke markers" d=" M 592.0031024930541 547.6190147775378 C 663.9009852224623 547.6190147775378 663.9009852224623 612.1631024930541 663.9009852224623 612.1631024930541 C 663.9009852224623 684.0609852224623 599.356897506946 684.0609852224623 599.356897506946 684.0609852224623 C 783.0879992176774 684.0609852224623 783.0879992176774 605.7392956073828 783.0879992176774 605.7392956073828 C 784.0507064970593 547.6190147775378 592.0031024930541 547.6190147775378 592.0031024930541 547.6190147775378" stroke-opacity="1" stroke-miterlimit="10" stroke-dasharray=""/><path fill="none" stroke="rgb(255,255,255)" paint-order="fill stroke markers" d=" M 591.7878274633734 543.6248118956606 C 667.8951881043395 543.6248118956606 667.8951881043395 611.9478274633734 667.8951881043395 611.9478274633734 C 667.8951881043395 688.0551881043394 599.5721725366267 688.0551881043394 599.5721725366267 688.0551881043394 C 783.0879992176774 688.0551881043394 783.0879992176774 605.7392956073828 783.0879992176774 605.7392956073828 C 788.3484218942097 543.6248118956606 591.7878274633734 543.6248118956606 591.7878274633734 543.6248118956606" stroke-opacity="1" stroke-miterlimit="10" stroke-dasharray=""/><path fill="none" stroke="rgb(255,255,255)" paint-order="fill stroke markers" d=" M 591.5725524336927 539.6306090137834 C 408.2720007823227 539.6306090137834 408.2720007823227 625.9407043926174 408.2720007823227 625.9407043926174 C 408.2720007823227 692.0493909862166 599.7874475663073 692.0493909862166 599.7874475663073 692.0493909862166 C 783.0879992176774 692.0493909862166 783.0879992176774 605.7392956073828 783.0879992176774 605.7392956073828 C 777.6719957289046 539.6306090137834 591.5725524336927 539.6306090137834 591.5725524336927 539.6306090137834" stroke-opacity="1" stroke-miterlimit="10" stroke-dasharray=""/><path fill="none" stroke="rgb(255,255,255)" paint-order="fill stroke markers" d=" M 591.3572774040122 535.6364061319063 C 675.8835938680938 535.6364061319063 675.8835938680938 625.9407043926174 675.8835938680938 625.9407043926174 C 675.8835938680938 696.0435938680938 600.002722595988 696.0435938680938 600.002722595988 696.0435938680938 C 783.0879992176774 696.0435938680938 783.0879992176774 605.7392956073828 783.0879992176774 605.7392956073828 C 791.071249385983 535.6364061319063 591.3572774040122 535.6364061319063 591.3572774040122 535.6364061319063" stroke-opacity="1" stroke-miterlimit="10" stroke-dasharray=""/><path fill="none" stroke="rgb(255,255,255)" paint-order="fill stroke markers" d=" M 591.1420023743315 531.6422032500291 C 679.877796749971 531.6422032500291 679.877796749971 625.9407043926174 679.877796749971 625.9407043926174 C 679.877796749971 700.037796749971 600.2179976256687 700.037796749971 600.2179976256687 700.037796749971 C 783.0879992176774 700.037796749971 783.0879992176774 605.7392956073828 783.0879992176774 605.7392956073828 C 783.4840657207203 531.6422032500291 591.1420023743315 531.6422032500291 591.1420023743315 531.6422032500291" stroke-opacity="1" stroke-miterlimit="10" stroke-dasharray=""/><path fill="none" stroke="rgb(255,255,255)" paint-order="fill stroke markers" d=" M 590.9267273446508 527.6480003681519 C 683.8719996318482 527.6480003681519 683.8719996318482 625.9407043926174 683.8719996318482 625.9407043926174 C 683.8719996318482 704.0319996318482 600.4332726553494 704.0319996318482 600.4332726553494 704.0319996318482 C 783.0879992176774 704.0319996318482 783.0879992176774 605.7392956073828 783.0879992176774 605.7392956073828 C 784.7581538680378 527.6480003681519 590.9267273446508 527.6480003681519 590.9267273446508 527.6480003681519" stroke-opacity="1" stroke-miterlimit="10" stroke-dasharray=""/><path fill="none" stroke="rgb(255,255,255)" paint-order="fill stroke markers" d=" M 590.7114523149701 523.6537974862747 C 687.8662025137254 523.6537974862747 687.8662025137254 610.87145231497 687.8662025137254 610.87145231497 C 687.8662025137254 708.0262025137254 600.64854768503 708.0262025137254 600.64854768503 708.0262025137254 C 783.0879992176774 708.0262025137254 783.0879992176774 605.7392956073828 783.0879992176774 605.7392956073828 C 779.4295318675997 523.6537974862747 590.7114523149701 523.6537974862747 590.7114523149701 523.6537974862747" stroke-opacity="1" stroke-miterlimit="10" stroke-dasharray=""/><path fill="none" stroke="rgb(255,255,255)" paint-order="fill stroke markers" d=" M 590.4961772852894 519.6595946043975 C 408.2720007823227 519.6595946043975 408.2720007823227 625.9407043926174 408.2720007823227 625.9407043926174 C 408.2720007823227 712.0204053956026 600.8638227147106 712.0204053956026 600.8638227147106 712.0204053956026 C 783.0879992176774 712.0204053956026 783.0879992176774 605.7392956073828 783.0879992176774 605.7392956073828 C 778.8819589265202 519.6595946043975 590.4961772852894 519.6595946043975 590.4961772852894 519.6595946043975" stroke-opacity="1" stroke-miterlimit="10" stroke-dasharray=""/><path fill="none" stroke="rgb(255,255,255)" paint-order="fill stroke markers" d=" M 590.2809022556087 515.6653917225203 C 408.2720007823227 515.6653917225203 408.2720007823227 610.4409022556086 408.2720007823227 610.4409022556086 C 408.2720007823227 716.0146082774797 601.0790977443913 716.0146082774797 601.0790977443913 716.0146082774797 C 783.0879992176774 716.0146082774797 783.0879992176774 605.7392956073828 783.0879992176774 605.7392956073828 C 789.9070163041545 515.6653917225203 590.2809022556087 515.6653917225203 590.2809022556087 515.6653917225203" stroke-opacity="1" stroke-miterlimit="10" stroke-dasharray=""/><path fill="none" stroke="rgb(255,255,255)" paint-order="fill stroke markers" d=" M 590.0656272259281 511.67118884064314 C 408.2720007823227 511.67118884064314 408.2720007823227 610.2256272259281 408.2720007823227 610.2256272259281 C 408.2720007823227 720.0088111593569 601.294372774072 720.0088111593569 601.294372774072 720.0088111593569 C 783.0879992176774 720.0088111593569 783.0879992176774 605.7392956073828 783.0879992176774 605.7392956073828 C 785.3021319417535 511.67118884064314 590.0656272259281 511.67118884064314 590.0656272259281 511.67118884064314" stroke-opacity="1" stroke-miterlimit="10" stroke-dasharray=""/><path fill="none" stroke="rgb(255,255,255)" paint-order="fill stroke markers" d=" M 589.8503521962474 507.67698595876595 C 703.8430140412341 507.67698595876595 703.8430140412341 610.0103521962474 703.8430140412341 610.0103521962474 C 703.8430140412341 724.0030140412341 601.5096478037527 724.0030140412341 601.5096478037527 724.0030140412341 C 783.0879992176774 724.0030140412341 783.0879992176774 605.7392956073828 783.0879992176774 605.7392956073828 C 782.2719244947461 507.67698595876595 589.8503521962474 507.67698595876595 589.8503521962474 507.67698595876595" stroke-opacity="1" stroke-miterlimit="10" stroke-dasharray=""/><path fill="none" stroke="rgb(255,255,255)" paint-order="fill stroke markers" d=" M 589.6350771665667 503.68278307688877 C 408.2720007823227 503.68278307688877 408.2720007823227 609.7950771665667 408.2720007823227 609.7950771665667 C 408.2720007823227 727.9972169231113 601.7249228334334 727.9972169231113 601.7249228334334 727.9972169231113 C 783.0879992176774 727.9972169231113 783.0879992176774 605.7392956073828 783.0879992176774 605.7392956073828 C 776.8966265500521 503.68278307688877 589.6350771665667 503.68278307688877 589.6350771665667 503.68278307688877" stroke-opacity="1" stroke-miterlimit="10" stroke-dasharray=""/><path fill="none" stroke="rgb(255,255,255)" paint-order="fill stroke markers" d=" M 589.419802136886 499.6885801950116 C 711.8314198049885 499.6885801950116 711.8314198049885 609.579802136886 711.8314198049885 609.579802136886 C 711.8314198049885 731.9914198049885 601.940197863114 731.9914198049885 601.940197863114 731.9914198049885 C 783.0879992176774 731.9914198049885 783.0879992176774 605.7392956073828 783.0879992176774 605.7392956073828 C 791.0519386041149 499.6885801950116 589.419802136886 499.6885801950116 589.419802136886 499.6885801950116" stroke-opacity="1" stroke-miterlimit="10" stroke-dasharray=""/><path fill="none" stroke="rgb(255,255,255)" paint-order="fill stroke markers" d=" M 589.2045271072053 495.6943773131344 C 715.8256226868657 495.6943773131344 715.8256226868657 625.9407043926174 715.8256226868657 625.9407043926174 C 715.8256226868657 735.9856226868657 602.1554728927947 735.9856226868657 602.1554728927947 735.9856226868657 C 783.0879992176774 735.9856226868657 783.0879992176774 605.7392956073828 783.0879992176774 605.7392956073828 C 784.8859699343463 495.6943773131344 589.2045271072053 495.6943773131344 589.2045271072053 495.6943773131344" stroke-opacity="1" stroke-miterlimit="10" stroke-dasharray=""/><path fill="none" stroke="rgb(255,255,255)" paint-order="fill stroke markers" d=" M 588.9892520775247 491.7001744312572 C 719.8198255687429 491.7001744312572 719.8198255687429 609.1492520775247 719.8198255687429 609.1492520775247 C 719.8198255687429 739.9798255687429 602.3707479224754 739.9798255687429 602.3707479224754 739.9798255687429 C 783.0879992176774 739.9798255687429 783.0879992176774 605.7392956073828 783.0879992176774 605.7392956073828 C 783.6308958567134 491.7001744312572 588.9892520775247 491.7001744312572 588.9892520775247 491.7001744312572" stroke-opacity="1" stroke-miterlimit="10" stroke-dasharray=""/><path fill="none" stroke="rgb(255,255,255)" paint-order="fill stroke markers" d=" M 588.773977047844 487.70597154938 C 408.2720007823227 487.70597154938 408.2720007823227 625.9407043926174 408.2720007823227 625.9407043926174 C 408.2720007823227 743.97402845062 602.5860229521561 743.97402845062 602.5860229521561 743.97402845062 C 783.0879992176774 743.97402845062 783.0879992176774 605.7392956073828 783.0879992176774 605.7392956073828 C 781.1353900828258 487.70597154938 588.773977047844 487.70597154938 588.773977047844 487.70597154938" stroke-opacity="1" stroke-miterlimit="10" stroke-dasharray=""/><path fill="none" stroke="rgb(255,255,255)" paint-order="fill stroke markers" d=" M 588.5587020181633 483.71176866750284 C 727.8082313324973 483.71176866750284 727.8082313324973 608.7187020181633 727.8082313324973 608.7187020181633 C 727.8082313324973 747.9682313324972 602.8012979818368 747.9682313324972 602.8012979818368 747.9682313324972 C 783.0879992176774 747.9682313324972 783.0879992176774 605.7392956073828 783.0879992176774 605.7392956073828 C 777.7258552683306 483.71176866750284 588.5587020181633 483.71176866750284 588.5587020181633 483.71176866750284" stroke-opacity="1" stroke-miterlimit="10" stroke-dasharray=""/><path fill="none" stroke="rgb(255,255,255)" paint-order="fill stroke markers" d=" M 588.3434269884826 479.71756578562565 C 408.2720007823227 479.71756578562565 408.2720007823227 625.9407043926174 408.2720007823227 625.9407043926174 C 408.2720007823227 751.9624342143744 603.0165730115174 751.9624342143744 603.0165730115174 751.9624342143744 C 783.0879992176774 751.9624342143744 783.0879992176774 605.7392956073828 783.0879992176774 605.7392956073828 C 786.1417028947938 479.71756578562565 588.3434269884826 479.71756578562565 588.3434269884826 479.71756578562565" stroke-opacity="1" stroke-miterlimit="10" stroke-dasharray=""/><path fill="none" stroke="rgb(255,255,255)" paint-order="fill stroke markers" d=" M 588.1281519588019 475.72336290374847 C 408.2720007823227 475.72336290374847 408.2720007823227 625.9407043926174 408.2720007823227 625.9407043926174 C 408.2720007823227 755.9566370962516 603.2318480411981 755.9566370962516 603.2318480411981 755.9566370962516 C 783.0879992176774 755.9566370962516 783.0879992176774 605.7392956073828 783.0879992176774 605.7392956073828 C 788.6523767436757 475.72336290374847 588.1281519588019 475.72336290374847 588.1281519588019 475.72336290374847" stroke-opacity="1" stroke-miterlimit="10" stroke-dasharray=""/><path fill="none" stroke="rgb(255,255,255)" paint-order="fill stroke markers" d=" M 587.9128769291214 471.7291600218713 C 408.2720007823227 471.7291600218713 408.2720007823227 608.0728769291213 408.2720007823227 608.0728769291213 C 408.2720007823227 759.9508399781288 603.4471230708788 759.9508399781288 603.4471230708788 759.9508399781288 C 783.0879992176774 759.9508399781288 783.0879992176774 605.7392956073828 783.0879992176774 605.7392956073828 C 788.9565601602615 471.7291600218713 587.9128769291214 471.7291600218713 587.9128769291214 471.7291600218713" stroke-opacity="1" stroke-miterlimit="10" stroke-dasharray=""/><g><text fill="rgb(255,255,255)" stroke="none" font-family="sans-serif" font-size="17px" font-style="normal" font-weight="normal" text-decoration="normal" x="-563.04" y="375.36" text-anchor="start" dominant-baseline="alphabetic" transform="matrix(1 0 0 1 595.6800000000001 615.84)" fill-opacity="1">al.my.re [noline 004). 20 September 2024</text></g><g><text fill="rgb(255,255,255)" stroke="none" font-family="sans-serif" font-size="17px" font-style="normal" font-weight="normal" text-decoration="normal" x="-563.04" y="392.36" text-anchor="start" dominant-baseline="alphabetic" transform="matrix(1 0 0 1 595.6800000000001 615.84)" fill-opacity="1">p5.js :: random() :: juicy-gcode</text></g><g><text fill="rgb(255,255,255)" stroke="none" font-family="sans-serif" font-size="17px" font-style="normal" font-weight="normal" text-decoration="normal" x="-563.04" y="409.36" text-anchor="start" dominant-baseline="alphabetic" transform="matrix(1 0 0 1 595.6800000000001 615.84)" fill-opacity="1">pour alice</text></g></g></svg>