<svg version="1.1" xmlns="http://www.w3.org/2000/svg" xmlns:xlink="http://www.w3.org/1999/xlink" width="816" height="1056" viewBox="0 0 816 1056"><defs/><g><rect fill="rgb(255,255,255)" stroke="none" x="0" y="0" width="816" height="1056" transform="matrix(1 0 0 1 0 0)" fill-opacity="1"/><path fill="none" stroke="rgb(0,0,0)" paint-order="fill stroke markers" d=" M 280.56625230482945 528 C 280.56625230482945 512.4287256484218 337.6202845380964 499.8057137061688 408 499.8057137061688 C 478.3797154619036 499.8057137061688 535.4337476951705 512.4287256484218 535.4337476951705 528 C 535.4337476951705 543.5712743515782 478.3797154619036 556.1942862938313 408 556.1942862938313 C 337.6202845380964 556.1942862938313 280.56625230482945 543.5712743515782 280.56625230482945 528" stroke-opacity="1" stroke-miterlimit="10" stroke-dasharray=""/><path fill="none" stroke="rgb(0,0,0)" paint-order="fill stroke markers" d=" M 374.4340943305335 528 C 374.4340943305335 490.1433099638323 389.46206218552834 459.4543991122752 408 459.4543991122752 C 426.53793781447166 459.4543991122752 441.5659056694665 490.1433099638323 441.5659056694665 528 C 441.5659056694665 565.8566900361677 426.53793781447166 596.5456008877247 408 596.5456008877247 C 389.46206218552834 596.5456008877247 374.4340943305335 565.8566900361677 374.4340943305335 528" stroke-opacity="1" stroke-miterlimit="10" stroke-dasharray=""/><path fill="none" stroke="rgb(0,0,0)" paint-order="fill stroke markers" d=" M 113.08835699443222 528 C 113.08835699443222 527.5452136274004 245.1247970295631 527.1765364284197 408 527.1765364284197 C 570.8752029704369 527.1765364284197 702.9116430055678 527.5452136274004 702.9116430055678 528 C 702.9116430055678 528.4547863725996 570.8752029704369 528.8234635715802 408 528.8234635715802 C 245.1247970295631 528.8234635715802 113.08835699443222 528.4547863725996 113.08835699443222 528" stroke-opacity="1" stroke-miterlimit="10" stroke-dasharray=""/><path fill="none" stroke="rgb(0,0,0)" paint-order="fill stroke markers" d=" M 364.21358375981947 528 C 364.21358375981947 395.23384254408643 383.8174300621532 287.6056065209252 408 287.6056065209252 C 432.1825699378468 287.6056065209252 451.7864162401806 395.23384254408643 451.7864162401806 528 C 451.7864162401806 660.7661574559136 432.1825699378468 768.3943934790748 408 768.3943934790748 C 383.8174300621532 768.3943934790748 364.21358375981947 660.7661574559136 364.21358375981947 528" stroke-opacity="1" stroke-miterlimit="10" stroke-dasharray=""/><path fill="none" stroke="rgb(0,0,0)" paint-order="fill stroke markers" d=" M 370.30881472874745 528 C 370.30881472874745 436.4729374726432 387.1837331728008 362.2755932324735 408 362.2755932324735 C 428.8162668271992 362.2755932324735 445.69118527125255 436.4729374726432 445.69118527125255 528 C 445.69118527125255 619.5270625273567 428.8162668271992 693.7244067675265 408 693.7244067675265 C 387.1837331728008 693.7244067675265 370.30881472874745 619.5270625273567 370.30881472874745 528" stroke-opacity="1" stroke-miterlimit="10" stroke-dasharray=""/><path fill="none" stroke="rgb(0,0,0)" paint-order="fill stroke markers" d=" M 246.9005735698106 528 C 246.9005735698106 377.7783308516914 319.02724358107935 255.99960671970626 408 255.99960671970626 C 496.97275641892065 255.99960671970626 569.0994264301894 377.7783308516914 569.0994264301894 528 C 569.0994264301894 678.2216691483086 496.97275641892065 800.0003932802938 408 800.0003932802938 C 319.02724358107935 800.0003932802938 246.9005735698106 678.2216691483086 246.9005735698106 528" stroke-opacity="1" stroke-miterlimit="10" stroke-dasharray=""/><path fill="none" stroke="rgb(0,0,0)" paint-order="fill stroke markers" d=" M 296.42468606754323 528 C 296.42468606754323 437.43572305184927 346.37865566095667 364.01887073480304 408 364.01887073480304 C 469.62134433904333 364.01887073480304 519.5753139324568 437.43572305184927 519.5753139324568 528 C 519.5753139324568 618.5642769481508 469.62134433904333 691.981129265197 408 691.981129265197 C 346.37865566095667 691.981129265197 296.42468606754323 618.5642769481508 296.42468606754323 528" stroke-opacity="1" stroke-miterlimit="10" stroke-dasharray=""/><path fill="none" stroke="rgb(0,0,0)" paint-order="fill stroke markers" d=" M 377.61316821637047 528 C 377.61316821637047 398.9759125672323 391.2178162111635 294.38122367222434 408 294.38122367222434 C 424.7821837888365 294.38122367222434 438.38683178362953 398.9759125672323 438.38683178362953 528 C 438.38683178362953 657.0240874327677 424.7821837888365 761.6187763277757 408 761.6187763277757 C 391.2178162111635 761.6187763277757 377.61316821637047 657.0240874327677 377.61316821637047 528" stroke-opacity="1" stroke-miterlimit="10" stroke-dasharray=""/><path fill="none" stroke="rgb(0,0,0)" paint-order="fill stroke markers" d=" M 357.427889279116 528 C 357.427889279116 527.9184604836265 380.0697944836587 527.852359645268 408 527.852359645268 C 435.9302055163413 527.852359645268 458.5721107208839 527.9184604836265 458.5721107208839 528 C 458.5721107208839 528.0815395163735 435.9302055163413 528.147640354732 408 528.147640354732 C 380.0697944836587 528.147640354732 357.427889279116 528.0815395163735 357.427889279116 528" stroke-opacity="1" stroke-miterlimit="10" stroke-dasharray=""/><path fill="none" stroke="rgb(0,0,0)" paint-order="fill stroke markers" d=" M 286.4828389826272 528 C 286.4828389826272 446.1227632236706 340.88792513111395 379.74814838544825 408 379.74814838544825 C 475.11207486888605 379.74814838544825 529.5171610173727 446.1227632236706 529.5171610173727 528 C 529.5171610173727 609.8772367763295 475.11207486888605 676.2518516145517 408 676.2518516145517 C 340.88792513111395 676.2518516145517 286.4828389826272 609.8772367763295 286.4828389826272 528" stroke-opacity="1" stroke-miterlimit="10" stroke-dasharray=""/><path fill="none" stroke="rgb(0,0,0)" paint-order="fill stroke markers" d=" M 311.30289106518626 528 C 311.30289106518626 430.51137259926816 354.59566138555306 351.48122515416986 408 351.48122515416986 C 461.40433861444694 351.48122515416986 504.69710893481374 430.51137259926816 504.69710893481374 528 C 504.69710893481374 625.4886274007318 461.40433861444694 704.5187748458302 408 704.5187748458302 C 354.59566138555306 704.5187748458302 311.30289106518626 625.4886274007318 311.30289106518626 528" stroke-opacity="1" stroke-miterlimit="10" stroke-dasharray=""/><path fill="none" stroke="rgb(0,0,0)" paint-order="fill stroke markers" d=" M 336.8156454297252 528 C 336.8156454297252 423.1841386009154 368.68596654648127 338.2140943833018 408 338.2140943833018 C 447.31403345351873 338.2140943833018 479.18435457027476 423.1841386009154 479.18435457027476 528 C 479.18435457027476 632.8158613990846 447.31403345351873 717.7859056166983 408 717.7859056166983 C 368.68596654648127 717.7859056166983 336.8156454297252 632.8158613990846 336.8156454297252 528" stroke-opacity="1" stroke-miterlimit="10" stroke-dasharray=""/><path fill="none" stroke="rgb(0,0,0)" paint-order="fill stroke markers" d=" M 294.77561112207036 528 C 294.77561112207036 471.98564381263236 345.4678967172947 426.5770361979898 408 426.5770361979898 C 470.5321032827053 426.5770361979898 521.2243888779296 471.98564381263236 521.2243888779296 528 C 521.2243888779296 584.0143561873676 470.5321032827053 629.4229638020103 408 629.4229638020103 C 345.4678967172947 629.4229638020103 294.77561112207036 584.0143561873676 294.77561112207036 528" stroke-opacity="1" stroke-miterlimit="10" stroke-dasharray=""/><path fill="none" stroke="rgb(0,0,0)" paint-order="fill stroke markers" d=" M 301.90701723231547 528 C 301.90701723231547 497.0264144734449 349.40646355661363 471.9173623067238 408 471.9173623067238 C 466.59353644338637 471.9173623067238 514.0929827676846 497.0264144734449 514.0929827676846 528 C 514.0929827676846 558.9735855265551 466.59353644338637 584.0826376932762 408 584.0826376932762 C 349.40646355661363 584.0826376932762 301.90701723231547 558.9735855265551 301.90701723231547 528" stroke-opacity="1" stroke-miterlimit="10" stroke-dasharray=""/><path fill="none" stroke="rgb(0,0,0)" paint-order="fill stroke markers" d=" M 182.40658220195988 528 C 182.40658220195988 488.4647012351399 283.4081956948826 456.4150091430605 408 456.4150091430605 C 532.5918043051174 456.4150091430605 633.5934177980402 488.4647012351399 633.5934177980402 528 C 633.5934177980402 567.53529876486 532.5918043051174 599.5849908569394 408 599.5849908569394 C 283.4081956948826 599.5849908569394 182.40658220195988 567.53529876486 182.40658220195988 528" stroke-opacity="1" stroke-miterlimit="10" stroke-dasharray=""/><path fill="none" stroke="rgb(0,0,0)" paint-order="fill stroke markers" d=" M 350.9049115553198 528 C 350.9049115553198 466.9312260548053 376.4672533635209 417.42520327184536 408 417.42520327184536 C 439.5327466364791 417.42520327184536 465.09508844468024 466.9312260548053 465.09508844468024 528 C 465.09508844468024 589.0687739451947 439.5327466364791 638.5747967281546 408 638.5747967281546 C 376.4672533635209 638.5747967281546 350.9049115553198 589.0687739451947 350.9049115553198 528" stroke-opacity="1" stroke-miterlimit="10" stroke-dasharray=""/><path fill="none" stroke="rgb(0,0,0)" paint-order="fill stroke markers" d=" M 215.75197844999911 528 C 215.75197844999911 527.8261452224142 301.8243495187128 527.6852080785343 408 527.6852080785343 C 514.1756504812872 527.6852080785343 600.2480215500009 527.8261452224142 600.2480215500009 528 C 600.2480215500009 528.1738547775858 514.1756504812872 528.3147919214657 408 528.3147919214657 C 301.8243495187128 528.3147919214657 215.75197844999911 528.1738547775858 215.75197844999911 528" stroke-opacity="1" stroke-miterlimit="10" stroke-dasharray=""/><path fill="none" stroke="rgb(0,0,0)" paint-order="fill stroke markers" d=" M 210.53548959603887 528 C 210.53548959603887 474.14298056881086 298.94336227716883 430.4832399397367 408 430.4832399397367 C 517.0566377228312 430.4832399397367 605.4645104039612 474.14298056881086 605.4645104039612 528 C 605.4645104039612 581.8570194311892 517.0566377228312 625.5167600602633 408 625.5167600602633 C 298.94336227716883 625.5167600602633 210.53548959603887 581.8570194311892 210.53548959603887 528" stroke-opacity="1" stroke-miterlimit="10" stroke-dasharray=""/><path fill="none" stroke="rgb(0,0,0)" paint-order="fill stroke markers" d=" M 362.7206659764762 528 C 362.7206659764762 442.8095730769751 382.99291433770753 373.74908694495895 408 373.74908694495895 C 433.00708566229247 373.74908694495895 453.2793340235238 442.8095730769751 453.2793340235238 528 C 453.2793340235238 613.1904269230249 433.00708566229247 682.2509130550411 408 682.2509130550411 C 382.99291433770753 682.2509130550411 362.7206659764762 613.1904269230249 362.7206659764762 528" stroke-opacity="1" stroke-miterlimit="10" stroke-dasharray=""/><path fill="none" stroke="rgb(0,0,0)" paint-order="fill stroke markers" d=" M 302.04660020416765 528 C 302.04660020416765 523.8448478610867 349.48355310329936 520.4764315139645 408 520.4764315139645 C 466.51644689670064 520.4764315139645 513.9533997958324 523.8448478610867 513.9533997958324 528 C 513.9533997958324 532.1551521389133 466.51644689670064 535.5235684860356 408 535.5235684860356 C 349.48355310329936 535.5235684860356 302.04660020416765 532.1551521389133 302.04660020416765 528" stroke-opacity="1" stroke-miterlimit="10" stroke-dasharray=""/><path fill="none" stroke="rgb(0,0,0)" paint-order="fill stroke markers" d=" M 236.04237400935432 528 C 236.04237400935432 523.757543566386 313.03042555355427 520.3183531047156 408 520.3183531047156 C 502.96957444644573 520.3183531047156 579.9576259906457 523.757543566386 579.9576259906457 528 C 579.9576259906457 532.242456433614 502.96957444644573 535.6816468952844 408 535.6816468952844 C 313.03042555355427 535.6816468952844 236.04237400935432 532.242456433614 236.04237400935432 528" stroke-opacity="1" stroke-miterlimit="10" stroke-dasharray=""/><g><path fill="none" stroke="rgb(0,0,0)" paint-order="fill stroke markers" d=" M 85.569 950.4 L 85.569 950.4 L 85.569 936.519 Q 85.569 936.477 85.611 936.477 L 85.611 936.477 Q 85.632 936.477 85.653 936.519 L 85.653 936.519 L 85.653 950.4 Q 85.653 950.442 85.611 950.442 L 85.611 950.442 Q 85.569 950.442 85.569 950.4 Z M 85.569 940.74 L 85.569 940.74 Q 85.569 938.913 86.85000000000001 937.6424999999999 Q 88.13100000000001 936.372 89.91600000000001 936.372 L 89.91600000000001 936.372 Q 91.70100000000001 936.372 92.98200000000001 937.6424999999999 Q 94.263 938.913 94.263 940.74 L 94.263 940.74 L 94.263 950.4 Q 94.263 950.442 94.221 950.442 L 94.221 950.442 Q 94.179 950.442 94.179 950.4 L 94.179 950.4 L 94.179 940.74 Q 94.179 938.9549999999999 92.91900000000001 937.7055 Q 91.659 936.456 89.91600000000001 936.456 L 89.91600000000001 936.456 Q 88.173 936.456 86.91300000000001 937.7055 Q 85.653 938.9549999999999 85.653 940.74 L 85.653 940.74 Q 85.653 940.7819999999999 85.611 940.7819999999999 L 85.611 940.7819999999999 Q 85.569 940.7819999999999 85.569 940.74 Z M 94.179 940.74 L 94.179 940.74 Q 94.179 938.913 95.47050000000002 937.6424999999999 Q 96.76200000000001 936.372 98.54700000000001 936.372 L 98.54700000000001 936.372 Q 100.33200000000001 936.372 101.6235 937.6424999999999 Q 102.915 938.913 102.915 940.74 L 102.915 940.74 L 102.915 950.4 Q 102.915 950.442 102.873 950.442 L 102.873 950.442 Q 102.83100000000002 950.442 102.83100000000002 950.4 L 102.83100000000002 950.4 L 102.83100000000002 940.74 Q 102.83100000000002 938.9549999999999 101.5605 937.7055 Q 100.29 936.456 98.54700000000001 936.456 L 98.54700000000001 936.456 Q 96.804 936.456 95.5335 937.7055 Q 94.263 938.9549999999999 94.263 940.74 L 94.263 940.74 Q 94.263 940.7819999999999 94.221 940.7819999999999 L 94.221 940.7819999999999 Q 94.179 940.7819999999999 94.179 940.74 Z M 111.27300000000001 929.4 L 111.27300000000001 929.4 L 111.27300000000001 930.345 Q 111.27300000000001 930.387 111.23100000000001 930.387 L 111.23100000000001 930.387 Q 111.18900000000001 930.387 111.18900000000001 930.345 L 111.18900000000001 930.345 L 111.18900000000001 929.4 Q 111.18900000000001 929.358 111.23100000000001 929.358 L 111.23100000000001 929.358 Q 111.25200000000001 929.358 111.27300000000001 929.4 Z M 111.27300000000001 936.519 L 111.27300000000001 936.519 L 111.27300000000001 950.4 Q 111.27300000000001 950.442 111.23100000000001 950.442 L 111.23100000000001 950.442 Q 111.18900000000001 950.442 111.18900000000001 950.4 L 111.18900000000001 950.4 L 111.18900000000001 936.519 Q 111.18900000000001 936.477 111.23100000000001 936.477 L 111.23100000000001 936.477 Q 111.25200000000001 936.477 111.27300000000001 936.519 Z M 128.031 950.4 L 128.031 950.4 L 128.031 929.4 Q 128.031 929.358 128.073 929.358 L 128.073 929.358 Q 128.115 929.358 128.115 929.4 L 128.115 929.4 L 128.115 950.4 Q 128.115 950.442 128.073 950.442 L 128.073 950.442 Q 128.031 950.442 128.031 950.4 Z M 128.115 946.284 L 128.115 946.284 Q 128.115 948.111 126.82350000000001 949.3815 Q 125.53200000000001 950.6519999999999 123.74700000000001 950.6519999999999 L 123.74700000000001 950.6519999999999 Q 121.98300000000002 950.6519999999999 120.69150000000002 949.3815 Q 119.4 948.111 119.4 946.284 L 119.4 946.284 L 119.4 940.74 Q 119.4 938.913 120.69150000000002 937.6424999999999 Q 121.98300000000002 936.372 123.74700000000001 936.372 L 123.74700000000001 936.372 Q 125.53200000000001 936.372 126.82350000000001 937.6424999999999 Q 128.115 938.913 128.115 940.74 L 128.115 940.74 Q 128.115 940.7819999999999 128.073 940.7819999999999 L 128.073 940.7819999999999 Q 128.031 940.7819999999999 128.031 940.74 L 128.031 940.74 Q 128.031 938.9549999999999 126.77100000000002 937.7055 Q 125.51100000000001 936.456 123.74700000000001 936.456 L 123.74700000000001 936.456 Q 122.00400000000002 936.456 120.74400000000001 937.7055 Q 119.48400000000001 938.9549999999999 119.48400000000001 940.74 L 119.48400000000001 940.74 L 119.48400000000001 946.284 Q 119.48400000000001 948.069 120.74400000000001 949.3185 Q 122.00400000000002 950.568 123.74700000000001 950.568 L 123.74700000000001 950.568 Q 125.51100000000001 950.568 126.77100000000002 949.3185 Q 128.031 948.069 128.031 946.284 L 128.031 946.284 Q 128.031 946.242 128.073 946.242 L 128.073 946.242 Q 128.115 946.242 128.115 946.284 Z M 136.305 929.4 L 136.305 929.4 L 136.305 930.345 Q 136.305 930.387 136.263 930.387 L 136.263 930.387 Q 136.221 930.387 136.221 930.345 L 136.221 930.345 L 136.221 929.4 Q 136.221 929.358 136.263 929.358 L 136.263 929.358 Q 136.284 929.358 136.305 929.4 Z M 136.305 936.519 L 136.305 936.519 L 136.305 950.4 Q 136.305 950.442 136.263 950.442 L 136.263 950.442 Q 136.221 950.442 136.221 950.4 L 136.221 950.4 L 136.221 936.519 Q 136.221 936.477 136.263 936.477 L 136.263 936.477 Q 136.284 936.477 136.305 936.519 Z M 143.886 936.519 L 143.886 936.519 L 143.886 950.4 Q 143.886 950.442 143.844 950.442 L 143.844 950.442 Q 143.802 950.442 143.802 950.4 L 143.802 950.4 L 143.802 936.519 Q 143.802 936.477 143.844 936.477 L 143.844 936.477 Q 143.86499999999998 936.477 143.886 936.519 Z M 143.802 939.207 L 143.802 939.207 Q 144.117 937.989 145.0305 937.1804999999999 Q 145.944 936.372 147.204 936.372 L 147.204 936.372 Q 148.548 936.372 149.22 937.779 L 149.22 937.779 Q 149.24099999999999 937.821 149.19899999999998 937.842 L 149.19899999999998 937.842 Q 149.15699999999998 937.8629999999999 149.136 937.821 L 149.136 937.821 Q 148.506 936.456 147.204 936.456 L 147.204 936.456 Q 145.986 936.456 145.0935 937.254 Q 144.201 938.052 143.886 939.249 L 143.886 939.249 Q 143.86499999999998 939.27 143.823 939.27 L 143.823 939.27 Q 143.802 939.249 143.802 939.207 Z M 160.434 936.372 L 160.434 936.372 Q 162.219 936.372 163.5 937.6424999999999 Q 164.781 938.913 164.781 940.74 L 164.781 940.74 L 164.781 946.284 Q 164.781 948.111 163.5 949.3815 Q 162.219 950.6519999999999 160.434 950.6519999999999 L 160.434 950.6519999999999 Q 158.649 950.6519999999999 157.368 949.3815 Q 156.087 948.111 156.087 946.284 L 156.087 946.284 L 156.087 940.74 Q 156.087 938.913 157.368 937.6424999999999 Q 158.649 936.372 160.434 936.372 Z M 160.434 936.456 L 160.434 936.456 Q 158.691 936.456 157.43099999999998 937.7055 Q 156.171 938.9549999999999 156.171 940.74 L 156.171 940.74 L 156.171 946.284 Q 156.171 948.069 157.43099999999998 949.3185 Q 158.691 950.568 160.434 950.568 L 160.434 950.568 Q 162.177 950.568 163.43699999999998 949.3185 Q 164.697 948.069 164.697 946.284 L 164.697 946.284 L 164.697 940.74 Q 164.697 938.9549999999999 163.43699999999998 937.7055 Q 162.177 936.456 160.434 936.456 Z M 186.76799999999997 929.316 L 186.76799999999997 929.316 Q 188.595 929.316 189.87599999999998 930.6075 Q 191.15699999999998 931.899 191.15699999999998 933.726 L 191.15699999999998 933.726 L 191.15699999999998 946.242 Q 191.15699999999998 948.069 189.87599999999998 949.3605 Q 188.595 950.6519999999999 186.76799999999997 950.6519999999999 L 186.76799999999997 950.6519999999999 Q 184.92 950.6519999999999 183.63899999999998 949.3605 Q 182.35799999999998 948.069 182.35799999999998 946.242 L 182.35799999999998 946.242 L 182.35799999999998 933.726 Q 182.35799999999998 931.899 183.63899999999998 930.6075 Q 184.92 929.316 186.76799999999997 929.316 Z M 186.76799999999997 929.4 L 186.76799999999997 929.4 Q 184.962 929.4 183.702 930.66 Q 182.44199999999998 931.92 182.44199999999998 933.726 L 182.44199999999998 933.726 L 182.44199999999998 946.242 Q 182.44199999999998 948.048 183.702 949.308 Q 184.962 950.568 186.76799999999997 950.568 L 186.76799999999997 950.568 Q 188.553 950.568 189.813 949.308 Q 191.07299999999998 948.048 191.07299999999998 946.242 L 191.07299999999998 946.242 L 191.07299999999998 933.726 Q 191.07299999999998 931.92 189.813 930.66 Q 188.553 929.4 186.76799999999997 929.4 Z M 201.80399999999997 929.316 L 201.80399999999997 929.316 Q 203.631 929.316 204.91199999999998 930.6075 Q 206.19299999999998 931.899 206.19299999999998 933.726 L 206.19299999999998 933.726 L 206.19299999999998 946.242 Q 206.19299999999998 948.069 204.91199999999998 949.3605 Q 203.631 950.6519999999999 201.80399999999997 950.6519999999999 L 201.80399999999997 950.6519999999999 Q 199.956 950.6519999999999 198.67499999999998 949.3605 Q 197.39399999999998 948.069 197.39399999999998 946.242 L 197.39399999999998 946.242 L 197.39399999999998 933.726 Q 197.39399999999998 931.899 198.67499999999998 930.6075 Q 199.956 929.316 201.80399999999997 929.316 Z M 201.80399999999997 929.4 L 201.80399999999997 929.4 Q 199.998 929.4 198.738 930.66 Q 197.47799999999998 931.92 197.47799999999998 933.726 L 197.47799999999998 933.726 L 197.47799999999998 946.242 Q 197.47799999999998 948.048 198.738 949.308 Q 199.998 950.568 201.80399999999997 950.568 L 201.80399999999997 950.568 Q 203.589 950.568 204.849 949.308 Q 206.10899999999998 948.048 206.10899999999998 946.242 L 206.10899999999998 946.242 L 206.10899999999998 933.726 Q 206.10899999999998 931.92 204.849 930.66 Q 203.589 929.4 201.80399999999997 929.4 Z M 210.75 933.495 L 210.75 933.495 L 214.005 929.379 Q 214.005 929.358 214.02599999999998 929.358 L 214.02599999999998 929.358 L 214.82399999999998 929.358 Q 214.86599999999999 929.358 214.86599999999999 929.4 L 214.86599999999999 929.4 L 214.86599999999999 950.4 Q 214.86599999999999 950.442 214.82399999999998 950.442 L 214.82399999999998 950.442 Q 214.78199999999998 950.442 214.78199999999998 950.4 L 214.78199999999998 950.4 L 214.78199999999998 929.442 L 214.047 929.442 L 210.813 933.558 Q 210.792 933.579 210.75 933.558 L 210.75 933.558 Q 210.72899999999998 933.537 210.75 933.495 Z" stroke-opacity="1" stroke-miterlimit="10" stroke-dasharray=""/></g></g></svg>