<svg version="1.1" xmlns="http://www.w3.org/2000/svg" xmlns:xlink="http://www.w3.org/1999/xlink" width="816" height="1056" viewBox="0 0 816 1056"><defs/><g><rect fill="rgb(255,255,255)" stroke="none" x="0" y="0" width="816" height="1056" transform="matrix(1 0 0 1 0 0)" fill-opacity="1"/><path fill="none" stroke="rgb(0,0,0)" paint-order="fill stroke markers" d=" M 115.09904158555065 528 C 115.09904158555065 424.4096780856962 246.23526746589565 340.43312991746166 408 340.43312991746166 C 569.7647325341044 340.43312991746166 700.9009584144494 424.4096780856962 700.9009584144494 528 C 700.9009584144494 631.5903219143038 569.7647325341044 715.5668700825383 408 715.5668700825383 C 246.23526746589565 715.5668700825383 115.09904158555065 631.5903219143038 115.09904158555065 528" stroke-opacity="1" stroke-miterlimit="10" stroke-dasharray=""/><path fill="none" stroke="rgb(0,0,0)" paint-order="fill stroke markers" d=" M 355.5834781995641 528 C 355.5834781995641 389.6871311388129 379.05115437206 277.5623970944796 408 277.5623970944796 C 436.94884562794 277.5623970944796 460.41652180043593 389.6871311388129 460.41652180043593 528 C 460.41652180043593 666.3128688611871 436.94884562794 778.4376029055204 408 778.4376029055204 C 379.05115437206 778.4376029055204 355.5834781995641 666.3128688611871 355.5834781995641 528" stroke-opacity="1" stroke-miterlimit="10" stroke-dasharray=""/><path fill="none" stroke="rgb(0,0,0)" paint-order="fill stroke markers" d=" M 376.20210347251515 528 C 376.20210347251515 394.16796796213316 390.43850667215173 285.67566986716236 408 285.67566986716236 C 425.56149332784827 285.67566986716236 439.7978965274848 394.16796796213316 439.7978965274848 528 C 439.7978965274848 661.8320320378668 425.56149332784827 770.3243301328375 408 770.3243301328375 C 390.43850667215173 770.3243301328375 376.20210347251515 661.8320320378668 376.20210347251515 528" stroke-opacity="1" stroke-miterlimit="10" stroke-dasharray=""/><path fill="none" stroke="rgb(0,0,0)" paint-order="fill stroke markers" d=" M 162.7984328910159 528 C 162.7984328910159 500.4054790387974 272.57891385864684 478.03569993342126 408 478.03569993342126 C 543.4210861413532 478.03569993342126 653.2015671089841 500.4054790387974 653.2015671089841 528 C 653.2015671089841 555.5945209612025 543.4210861413532 577.9643000665787 408 577.9643000665787 C 272.57891385864684 577.9643000665787 162.7984328910159 555.5945209612025 162.7984328910159 528" stroke-opacity="1" stroke-miterlimit="10" stroke-dasharray=""/><path fill="none" stroke="rgb(0,0,0)" paint-order="fill stroke markers" d=" M 177.8459502025261 528 C 177.8459502025261 419.7260775185381 280.8894281921454 331.9527209095102 408 331.9527209095102 C 535.1105718078546 331.9527209095102 638.1540497974739 419.7260775185381 638.1540497974739 528 C 638.1540497974739 636.2739224814619 535.1105718078546 724.0472790904898 408 724.0472790904898 C 280.8894281921454 724.0472790904898 177.8459502025261 636.2739224814619 177.8459502025261 528" stroke-opacity="1" stroke-miterlimit="10" stroke-dasharray=""/><path fill="none" stroke="rgb(0,0,0)" paint-order="fill stroke markers" d=" M 317.06471159587 528 C 317.06471159587 471.59278991742735 357.77782699573424 425.86571129657386 408 425.86571129657386 C 458.22217300426576 425.86571129657386 498.93528840413 471.59278991742735 498.93528840413 528 C 498.93528840413 584.4072100825726 458.22217300426576 630.1342887034261 408 630.1342887034261 C 357.77782699573424 630.1342887034261 317.06471159587 584.4072100825726 317.06471159587 528" stroke-opacity="1" stroke-miterlimit="10" stroke-dasharray=""/><path fill="none" stroke="rgb(0,0,0)" paint-order="fill stroke markers" d=" M 302.8028571599183 528 C 302.8028571599183 388.262255392558 349.90122228689063 274.982431330857 408 274.982431330857 C 466.09877771310937 274.982431330857 513.1971428400818 388.262255392558 513.1971428400818 528 C 513.1971428400818 667.737744607442 466.09877771310937 781.017568669143 408 781.017568669143 C 349.90122228689063 781.017568669143 302.8028571599183 667.737744607442 302.8028571599183 528" stroke-opacity="1" stroke-miterlimit="10" stroke-dasharray=""/><path fill="none" stroke="rgb(0,0,0)" paint-order="fill stroke markers" d=" M 367.16775107646293 528 C 367.16775107646293 433.17321464105487 385.448971619493 356.3009165230709 408 356.3009165230709 C 430.551028380507 356.3009165230709 448.832248923537 433.17321464105487 448.832248923537 528 C 448.832248923537 622.8267853589451 430.551028380507 699.6990834769292 408 699.6990834769292 C 385.448971619493 699.6990834769292 367.16775107646293 622.8267853589451 367.16775107646293 528" stroke-opacity="1" stroke-miterlimit="10" stroke-dasharray=""/><path fill="none" stroke="rgb(0,0,0)" paint-order="fill stroke markers" d=" M 253.70179193402666 528 C 253.70179193402666 503.4332556277178 322.78345276369555 483.51797441233236 408 483.51797441233236 C 493.21654723630445 483.51797441233236 562.2982080659733 503.4332556277178 562.2982080659733 528 C 562.2982080659733 552.5667443722822 493.21654723630445 572.4820255876676 408 572.4820255876676 C 322.78345276369555 572.4820255876676 253.70179193402666 552.5667443722822 253.70179193402666 528" stroke-opacity="1" stroke-miterlimit="10" stroke-dasharray=""/><path fill="none" stroke="rgb(0,0,0)" paint-order="fill stroke markers" d=" M 403.29169496182834 528 C 403.29169496182834 411.7746718305171 405.39967493001126 317.55542731974435 408 317.55542731974435 C 410.60032506998874 317.55542731974435 412.70830503817166 411.7746718305171 412.70830503817166 528 C 412.70830503817166 644.225328169483 410.60032506998874 738.4445726802558 408 738.4445726802558 C 405.39967493001126 738.4445726802558 403.29169496182834 644.225328169483 403.29169496182834 528" stroke-opacity="1" stroke-miterlimit="10" stroke-dasharray=""/><path fill="none" stroke="rgb(0,0,0)" paint-order="fill stroke markers" d=" M 364.77914568632264 528 C 364.77914568632264 434.08905597645827 384.12978128922845 357.95919395284784 408 357.95919395284784 C 431.87021871077155 357.95919395284784 451.22085431367736 434.08905597645827 451.22085431367736 528 C 451.22085431367736 621.9109440235418 431.87021871077155 698.040806047152 408 698.040806047152 C 384.12978128922845 698.040806047152 364.77914568632264 621.9109440235418 364.77914568632264 528" stroke-opacity="1" stroke-miterlimit="10" stroke-dasharray=""/><path fill="none" stroke="rgb(0,0,0)" paint-order="fill stroke markers" d=" M 239.838940229166 528 C 239.838940229166 490.9790051313541 315.12721117836213 460.96755906794016 408 460.96755906794016 C 500.87278882163787 460.96755906794016 576.161059770834 490.9790051313541 576.161059770834 528 C 576.161059770834 565.020994868646 500.87278882163787 595.0324409320598 408 595.0324409320598 C 315.12721117836213 595.0324409320598 239.838940229166 565.020994868646 239.838940229166 528" stroke-opacity="1" stroke-miterlimit="10" stroke-dasharray=""/><path fill="none" stroke="rgb(0,0,0)" paint-order="fill stroke markers" d=" M 355.0098062541074 528 C 355.0098062541074 440.4747412134451 378.73432410519615 369.52149988162694 408 369.52149988162694 C 437.26567589480385 369.52149988162694 460.99019374589267 440.4747412134451 460.99019374589267 528 C 460.99019374589267 615.5252587865549 437.26567589480385 686.478500118373 408 686.478500118373 C 378.73432410519615 686.478500118373 355.0098062541074 615.5252587865549 355.0098062541074 528" stroke-opacity="1" stroke-miterlimit="10" stroke-dasharray=""/><path fill="none" stroke="rgb(0,0,0)" paint-order="fill stroke markers" d=" M 377.7223110414483 528 C 377.7223110414483 413.5045413230286 391.27809412900405 320.68763311238655 408 320.68763311238655 C 424.72190587099595 320.68763311238655 438.2776889585517 413.5045413230286 438.2776889585517 528 C 438.2776889585517 642.4954586769713 424.72190587099595 735.3123668876135 408 735.3123668876135 C 391.27809412900405 735.3123668876135 377.7223110414483 642.4954586769713 377.7223110414483 528" stroke-opacity="1" stroke-miterlimit="10" stroke-dasharray=""/><path fill="none" stroke="rgb(0,0,0)" paint-order="fill stroke markers" d=" M 234.2780022707537 528 C 234.2780022707537 402.00150823490367 312.055989949347 299.85954924389193 408 299.85954924389193 C 503.944010050653 299.85954924389193 581.7219977292464 402.00150823490367 581.7219977292464 528 C 581.7219977292464 653.9984917650963 503.944010050653 756.1404507561081 408 756.1404507561081 C 312.055989949347 756.1404507561081 234.2780022707537 653.9984917650963 234.2780022707537 528" stroke-opacity="1" stroke-miterlimit="10" stroke-dasharray=""/><path fill="none" stroke="rgb(0,0,0)" paint-order="fill stroke markers" d=" M 328.1137066366015 528 C 328.1137066366015 476.9806645109256 363.88001845734607 435.6213212341095 408 435.6213212341095 C 452.11998154265393 435.6213212341095 487.8862933633985 476.9806645109256 487.8862933633985 528 C 487.8862933633985 579.0193354890744 452.11998154265393 620.3786787658905 408 620.3786787658905 C 363.88001845734607 620.3786787658905 328.1137066366015 579.0193354890744 328.1137066366015 528" stroke-opacity="1" stroke-miterlimit="10" stroke-dasharray=""/><path fill="none" stroke="rgb(0,0,0)" paint-order="fill stroke markers" d=" M 192.58373291520294 528 C 192.58373291520294 449.2836673508011 289.0288808302229 385.4714715955772 408 385.4714715955772 C 526.9711191697771 385.4714715955772 623.416267084797 449.2836673508011 623.416267084797 528 C 623.416267084797 606.7163326491989 526.9711191697771 670.5285284044228 408 670.5285284044228 C 289.0288808302229 670.5285284044228 192.58373291520294 606.7163326491989 192.58373291520294 528" stroke-opacity="1" stroke-miterlimit="10" stroke-dasharray=""/><path fill="none" stroke="rgb(0,0,0)" paint-order="fill stroke markers" d=" M 273.165507150847 528 C 273.165507150847 524.9860269437996 333.53296585239565 522.5427190280162 408 522.5427190280162 C 482.46703414760435 522.5427190280162 542.834492849153 524.9860269437996 542.834492849153 528 C 542.834492849153 531.0139730562004 482.46703414760435 533.4572809719839 408 533.4572809719839 C 333.53296585239565 533.4572809719839 273.165507150847 531.0139730562004 273.165507150847 528" stroke-opacity="1" stroke-miterlimit="10" stroke-dasharray=""/><path fill="none" stroke="rgb(0,0,0)" paint-order="fill stroke markers" d=" M 206.05235724930444 528 C 206.05235724930444 480.53160436590446 296.4673966507323 442.0508666022638 408 442.0508666022638 C 519.5326033492677 442.0508666022638 609.9476427506955 480.53160436590446 609.9476427506955 528 C 609.9476427506955 575.4683956340956 519.5326033492677 613.9491333977362 408 613.9491333977362 C 296.4673966507323 613.9491333977362 206.05235724930444 575.4683956340956 206.05235724930444 528" stroke-opacity="1" stroke-miterlimit="10" stroke-dasharray=""/><path fill="none" stroke="rgb(0,0,0)" paint-order="fill stroke markers" d=" M 263.9123497446153 528 C 263.9123497446153 443.2707618955698 328.422588129435 374.5841431705052 408 374.5841431705052 C 487.577411870565 374.5841431705052 552.0876502553847 443.2707618955698 552.0876502553847 528 C 552.0876502553847 612.7292381044301 487.577411870565 681.4158568294948 408 681.4158568294948 C 328.422588129435 681.4158568294948 263.9123497446153 612.7292381044301 263.9123497446153 528" stroke-opacity="1" stroke-miterlimit="10" stroke-dasharray=""/><path fill="none" stroke="rgb(0,0,0)" paint-order="fill stroke markers" d=" M 329.53507681694776 528 C 329.53507681694776 431.43097180390447 364.66501953177175 353.1463068080981 408 353.1463068080981 C 451.33498046822825 353.1463068080981 486.4649231830523 431.43097180390447 486.4649231830523 528 C 486.4649231830523 624.5690281960956 451.33498046822825 702.853693191902 408 702.853693191902 C 364.66501953177175 702.853693191902 329.53507681694776 624.5690281960956 329.53507681694776 528" stroke-opacity="1" stroke-miterlimit="10" stroke-dasharray=""/><g><path fill="none" stroke="rgb(0,0,0)" paint-order="fill stroke markers" d=" M 85.569 950.4 L 85.569 950.4 L 85.569 936.519 Q 85.569 936.477 85.611 936.477 L 85.611 936.477 Q 85.632 936.477 85.653 936.519 L 85.653 936.519 L 85.653 950.4 Q 85.653 950.442 85.611 950.442 L 85.611 950.442 Q 85.569 950.442 85.569 950.4 Z M 85.569 940.74 L 85.569 940.74 Q 85.569 938.913 86.85000000000001 937.6424999999999 Q 88.13100000000001 936.372 89.91600000000001 936.372 L 89.91600000000001 936.372 Q 91.70100000000001 936.372 92.98200000000001 937.6424999999999 Q 94.263 938.913 94.263 940.74 L 94.263 940.74 L 94.263 950.4 Q 94.263 950.442 94.221 950.442 L 94.221 950.442 Q 94.179 950.442 94.179 950.4 L 94.179 950.4 L 94.179 940.74 Q 94.179 938.9549999999999 92.91900000000001 937.7055 Q 91.659 936.456 89.91600000000001 936.456 L 89.91600000000001 936.456 Q 88.173 936.456 86.91300000000001 937.7055 Q 85.653 938.9549999999999 85.653 940.74 L 85.653 940.74 Q 85.653 940.7819999999999 85.611 940.7819999999999 L 85.611 940.7819999999999 Q 85.569 940.7819999999999 85.569 940.74 Z M 94.179 940.74 L 94.179 940.74 Q 94.179 938.913 95.47050000000002 937.6424999999999 Q 96.76200000000001 936.372 98.54700000000001 936.372 L 98.54700000000001 936.372 Q 100.33200000000001 936.372 101.6235 937.6424999999999 Q 102.915 938.913 102.915 940.74 L 102.915 940.74 L 102.915 950.4 Q 102.915 950.442 102.873 950.442 L 102.873 950.442 Q 102.83100000000002 950.442 102.83100000000002 950.4 L 102.83100000000002 950.4 L 102.83100000000002 940.74 Q 102.83100000000002 938.9549999999999 101.5605 937.7055 Q 100.29 936.456 98.54700000000001 936.456 L 98.54700000000001 936.456 Q 96.804 936.456 95.5335 937.7055 Q 94.263 938.9549999999999 94.263 940.74 L 94.263 940.74 Q 94.263 940.7819999999999 94.221 940.7819999999999 L 94.221 940.7819999999999 Q 94.179 940.7819999999999 94.179 940.74 Z M 111.27300000000001 929.4 L 111.27300000000001 929.4 L 111.27300000000001 930.345 Q 111.27300000000001 930.387 111.23100000000001 930.387 L 111.23100000000001 930.387 Q 111.18900000000001 930.387 111.18900000000001 930.345 L 111.18900000000001 930.345 L 111.18900000000001 929.4 Q 111.18900000000001 929.358 111.23100000000001 929.358 L 111.23100000000001 929.358 Q 111.25200000000001 929.358 111.27300000000001 929.4 Z M 111.27300000000001 936.519 L 111.27300000000001 936.519 L 111.27300000000001 950.4 Q 111.27300000000001 950.442 111.23100000000001 950.442 L 111.23100000000001 950.442 Q 111.18900000000001 950.442 111.18900000000001 950.4 L 111.18900000000001 950.4 L 111.18900000000001 936.519 Q 111.18900000000001 936.477 111.23100000000001 936.477 L 111.23100000000001 936.477 Q 111.25200000000001 936.477 111.27300000000001 936.519 Z M 128.031 950.4 L 128.031 950.4 L 128.031 929.4 Q 128.031 929.358 128.073 929.358 L 128.073 929.358 Q 128.115 929.358 128.115 929.4 L 128.115 929.4 L 128.115 950.4 Q 128.115 950.442 128.073 950.442 L 128.073 950.442 Q 128.031 950.442 128.031 950.4 Z M 128.115 946.284 L 128.115 946.284 Q 128.115 948.111 126.82350000000001 949.3815 Q 125.53200000000001 950.6519999999999 123.74700000000001 950.6519999999999 L 123.74700000000001 950.6519999999999 Q 121.98300000000002 950.6519999999999 120.69150000000002 949.3815 Q 119.4 948.111 119.4 946.284 L 119.4 946.284 L 119.4 940.74 Q 119.4 938.913 120.69150000000002 937.6424999999999 Q 121.98300000000002 936.372 123.74700000000001 936.372 L 123.74700000000001 936.372 Q 125.53200000000001 936.372 126.82350000000001 937.6424999999999 Q 128.115 938.913 128.115 940.74 L 128.115 940.74 Q 128.115 940.7819999999999 128.073 940.7819999999999 L 128.073 940.7819999999999 Q 128.031 940.7819999999999 128.031 940.74 L 128.031 940.74 Q 128.031 938.9549999999999 126.77100000000002 937.7055 Q 125.51100000000001 936.456 123.74700000000001 936.456 L 123.74700000000001 936.456 Q 122.00400000000002 936.456 120.74400000000001 937.7055 Q 119.48400000000001 938.9549999999999 119.48400000000001 940.74 L 119.48400000000001 940.74 L 119.48400000000001 946.284 Q 119.48400000000001 948.069 120.74400000000001 949.3185 Q 122.00400000000002 950.568 123.74700000000001 950.568 L 123.74700000000001 950.568 Q 125.51100000000001 950.568 126.77100000000002 949.3185 Q 128.031 948.069 128.031 946.284 L 128.031 946.284 Q 128.031 946.242 128.073 946.242 L 128.073 946.242 Q 128.115 946.242 128.115 946.284 Z M 136.305 929.4 L 136.305 929.4 L 136.305 930.345 Q 136.305 930.387 136.263 930.387 L 136.263 930.387 Q 136.221 930.387 136.221 930.345 L 136.221 930.345 L 136.221 929.4 Q 136.221 929.358 136.263 929.358 L 136.263 929.358 Q 136.284 929.358 136.305 929.4 Z M 136.305 936.519 L 136.305 936.519 L 136.305 950.4 Q 136.305 950.442 136.263 950.442 L 136.263 950.442 Q 136.221 950.442 136.221 950.4 L 136.221 950.4 L 136.221 936.519 Q 136.221 936.477 136.263 936.477 L 136.263 936.477 Q 136.284 936.477 136.305 936.519 Z M 143.886 936.519 L 143.886 936.519 L 143.886 950.4 Q 143.886 950.442 143.844 950.442 L 143.844 950.442 Q 143.802 950.442 143.802 950.4 L 143.802 950.4 L 143.802 936.519 Q 143.802 936.477 143.844 936.477 L 143.844 936.477 Q 143.86499999999998 936.477 143.886 936.519 Z M 143.802 939.207 L 143.802 939.207 Q 144.117 937.989 145.0305 937.1804999999999 Q 145.944 936.372 147.204 936.372 L 147.204 936.372 Q 148.548 936.372 149.22 937.779 L 149.22 937.779 Q 149.24099999999999 937.821 149.19899999999998 937.842 L 149.19899999999998 937.842 Q 149.15699999999998 937.8629999999999 149.136 937.821 L 149.136 937.821 Q 148.506 936.456 147.204 936.456 L 147.204 936.456 Q 145.986 936.456 145.0935 937.254 Q 144.201 938.052 143.886 939.249 L 143.886 939.249 Q 143.86499999999998 939.27 143.823 939.27 L 143.823 939.27 Q 143.802 939.249 143.802 939.207 Z M 160.434 936.372 L 160.434 936.372 Q 162.219 936.372 163.5 937.6424999999999 Q 164.781 938.913 164.781 940.74 L 164.781 940.74 L 164.781 946.284 Q 164.781 948.111 163.5 949.3815 Q 162.219 950.6519999999999 160.434 950.6519999999999 L 160.434 950.6519999999999 Q 158.649 950.6519999999999 157.368 949.3815 Q 156.087 948.111 156.087 946.284 L 156.087 946.284 L 156.087 940.74 Q 156.087 938.913 157.368 937.6424999999999 Q 158.649 936.372 160.434 936.372 Z M 160.434 936.456 L 160.434 936.456 Q 158.691 936.456 157.43099999999998 937.7055 Q 156.171 938.9549999999999 156.171 940.74 L 156.171 940.74 L 156.171 946.284 Q 156.171 948.069 157.43099999999998 949.3185 Q 158.691 950.568 160.434 950.568 L 160.434 950.568 Q 162.177 950.568 163.43699999999998 949.3185 Q 164.697 948.069 164.697 946.284 L 164.697 946.284 L 164.697 940.74 Q 164.697 938.9549999999999 163.43699999999998 937.7055 Q 162.177 936.456 160.434 936.456 Z M 186.76799999999997 929.316 L 186.76799999999997 929.316 Q 188.595 929.316 189.87599999999998 930.6075 Q 191.15699999999998 931.899 191.15699999999998 933.726 L 191.15699999999998 933.726 L 191.15699999999998 946.242 Q 191.15699999999998 948.069 189.87599999999998 949.3605 Q 188.595 950.6519999999999 186.76799999999997 950.6519999999999 L 186.76799999999997 950.6519999999999 Q 184.92 950.6519999999999 183.63899999999998 949.3605 Q 182.35799999999998 948.069 182.35799999999998 946.242 L 182.35799999999998 946.242 L 182.35799999999998 933.726 Q 182.35799999999998 931.899 183.63899999999998 930.6075 Q 184.92 929.316 186.76799999999997 929.316 Z M 186.76799999999997 929.4 L 186.76799999999997 929.4 Q 184.962 929.4 183.702 930.66 Q 182.44199999999998 931.92 182.44199999999998 933.726 L 182.44199999999998 933.726 L 182.44199999999998 946.242 Q 182.44199999999998 948.048 183.702 949.308 Q 184.962 950.568 186.76799999999997 950.568 L 186.76799999999997 950.568 Q 188.553 950.568 189.813 949.308 Q 191.07299999999998 948.048 191.07299999999998 946.242 L 191.07299999999998 946.242 L 191.07299999999998 933.726 Q 191.07299999999998 931.92 189.813 930.66 Q 188.553 929.4 186.76799999999997 929.4 Z M 201.80399999999997 929.316 L 201.80399999999997 929.316 Q 203.631 929.316 204.91199999999998 930.6075 Q 206.19299999999998 931.899 206.19299999999998 933.726 L 206.19299999999998 933.726 L 206.19299999999998 946.242 Q 206.19299999999998 948.069 204.91199999999998 949.3605 Q 203.631 950.6519999999999 201.80399999999997 950.6519999999999 L 201.80399999999997 950.6519999999999 Q 199.956 950.6519999999999 198.67499999999998 949.3605 Q 197.39399999999998 948.069 197.39399999999998 946.242 L 197.39399999999998 946.242 L 197.39399999999998 933.726 Q 197.39399999999998 931.899 198.67499999999998 930.6075 Q 199.956 929.316 201.80399999999997 929.316 Z M 201.80399999999997 929.4 L 201.80399999999997 929.4 Q 199.998 929.4 198.738 930.66 Q 197.47799999999998 931.92 197.47799999999998 933.726 L 197.47799999999998 933.726 L 197.47799999999998 946.242 Q 197.47799999999998 948.048 198.738 949.308 Q 199.998 950.568 201.80399999999997 950.568 L 201.80399999999997 950.568 Q 203.589 950.568 204.849 949.308 Q 206.10899999999998 948.048 206.10899999999998 946.242 L 206.10899999999998 946.242 L 206.10899999999998 933.726 Q 206.10899999999998 931.92 204.849 930.66 Q 203.589 929.4 201.80399999999997 929.4 Z M 210.75 933.495 L 210.75 933.495 L 214.005 929.379 Q 214.005 929.358 214.02599999999998 929.358 L 214.02599999999998 929.358 L 214.82399999999998 929.358 Q 214.86599999999999 929.358 214.86599999999999 929.4 L 214.86599999999999 929.4 L 214.86599999999999 950.4 Q 214.86599999999999 950.442 214.82399999999998 950.442 L 214.82399999999998 950.442 Q 214.78199999999998 950.442 214.78199999999998 950.4 L 214.78199999999998 950.4 L 214.78199999999998 929.442 L 214.047 929.442 L 210.813 933.558 Q 210.792 933.579 210.75 933.558 L 210.75 933.558 Q 210.72899999999998 933.537 210.75 933.495 Z" stroke-opacity="1" stroke-miterlimit="10" stroke-dasharray=""/></g></g></svg>