<svg version="1.1" xmlns="http://www.w3.org/2000/svg" xmlns:xlink="http://www.w3.org/1999/xlink" width="1122" height="1587" viewBox="0 0 1122 1587"><defs/><g><rect fill="rgb(255,255,255)" stroke="none" x="0" y="0" width="1122" height="1587" transform="matrix(1 0 0 1 0 0)" fill-opacity="1"/><path fill="none" stroke="rgb(0,43,255)" paint-order="fill stroke markers" d=" M 56.1 328.27500000000003 L 561 328.27500000000003 L 561 833.1750000000001 L 56.1 833.1750000000001 Z" stroke-opacity="1" stroke-miterlimit="10" stroke-width="3" stroke-dasharray=""/><path fill="none" stroke="rgb(0,43,255)" paint-order="fill stroke markers" d=" M 60.1 335.2089161829726 L 557 335.2089161829726 L 557 826.2410838170275 L 56.1 826.2410838170275 Z" stroke-opacity="1" stroke-miterlimit="10" stroke-width="3" stroke-dasharray=""/><path fill="none" stroke="rgb(0,43,255)" paint-order="fill stroke markers" d=" M 64.1 342.1428323659451 L 553 342.1428323659451 L 553 819.307167634055 L 56.1 819.307167634055 Z" stroke-opacity="1" stroke-miterlimit="10" stroke-width="3" stroke-dasharray=""/><path fill="none" stroke="rgb(0,43,255)" paint-order="fill stroke markers" d=" M 68.1 349.07674854891764 L 549 349.07674854891764 L 549 812.3732514510824 L 56.1 812.3732514510824 Z" stroke-opacity="1" stroke-miterlimit="10" stroke-width="3" stroke-dasharray=""/><path fill="none" stroke="rgb(0,43,255)" paint-order="fill stroke markers" d=" M 72.1 356.0106647318902 L 545 356.0106647318902 L 545 805.43933526811 L 56.1 805.43933526811 Z" stroke-opacity="1" stroke-miterlimit="10" stroke-width="3" stroke-dasharray=""/><path fill="none" stroke="rgb(0,43,255)" paint-order="fill stroke markers" d=" M 76.1 362.94458091486274 L 541 362.94458091486274 L 541 798.5054190851374 L 56.1 798.5054190851374 Z" stroke-opacity="1" stroke-miterlimit="10" stroke-width="3" stroke-dasharray=""/><path fill="none" stroke="rgb(0,43,255)" paint-order="fill stroke markers" d=" M 80.1 369.8784970978353 L 537 369.8784970978353 L 537 791.5715029021649 L 56.1 791.5715029021649 Z" stroke-opacity="1" stroke-miterlimit="10" stroke-width="3" stroke-dasharray=""/><path fill="none" stroke="rgb(0,43,255)" paint-order="fill stroke markers" d=" M 84.1 376.8124132808078 L 533 376.8124132808078 L 533 784.6375867191923 L 56.1 784.6375867191923 Z" stroke-opacity="1" stroke-miterlimit="10" stroke-width="3" stroke-dasharray=""/><path fill="none" stroke="rgb(0,43,255)" paint-order="fill stroke markers" d=" M 88.1 383.74632946378034 L 529 383.74632946378034 L 529 777.7036705362198 L 56.1 777.7036705362198 Z" stroke-opacity="1" stroke-miterlimit="10" stroke-width="3" stroke-dasharray=""/><path fill="none" stroke="rgb(0,43,255)" paint-order="fill stroke markers" d=" M 92.1 390.6802456467529 L 525 390.6802456467529 L 525 770.7697543532472 L 56.1 770.7697543532472 Z" stroke-opacity="1" stroke-miterlimit="10" stroke-width="3" stroke-dasharray=""/><path fill="none" stroke="rgb(0,43,255)" paint-order="fill stroke markers" d=" M 96.1 397.6141618297254 L 521 397.6141618297254 L 521 763.8358381702747 L 56.1 763.8358381702747 Z" stroke-opacity="1" stroke-miterlimit="10" stroke-width="3" stroke-dasharray=""/><path fill="none" stroke="rgb(0,43,255)" paint-order="fill stroke markers" d=" M 100.1 404.54807801269794 L 517 404.54807801269794 L 517 756.9019219873021 L 56.1 756.9019219873021 Z" stroke-opacity="1" stroke-miterlimit="10" stroke-width="3" stroke-dasharray=""/><path fill="none" stroke="rgb(0,43,255)" paint-order="fill stroke markers" d=" M 104.1 411.4819941956705 L 513 411.4819941956705 L 513 749.9680058043296 L 56.1 749.9680058043296 Z" stroke-opacity="1" stroke-miterlimit="10" stroke-width="3" stroke-dasharray=""/><path fill="none" stroke="rgb(0,43,255)" paint-order="fill stroke markers" d=" M 108.1 418.41591037864305 L 509 418.41591037864305 L 509 743.0340896213571 L 56.1 743.0340896213571 Z" stroke-opacity="1" stroke-miterlimit="10" stroke-width="3" stroke-dasharray=""/><path fill="none" stroke="rgb(0,43,255)" paint-order="fill stroke markers" d=" M 112.1 425.3498265616156 L 505 425.3498265616156 L 505 736.1001734383846 L 56.1 736.1001734383846 Z" stroke-opacity="1" stroke-miterlimit="10" stroke-width="3" stroke-dasharray=""/><path fill="none" stroke="rgb(0,43,255)" paint-order="fill stroke markers" d=" M 116.1 432.2837427445881 L 501 432.2837427445881 L 501 729.166257255412 L 56.1 729.166257255412 Z" stroke-opacity="1" stroke-miterlimit="10" stroke-width="3" stroke-dasharray=""/><path fill="none" stroke="rgb(0,43,255)" paint-order="fill stroke markers" d=" M 120.1 439.21765892756065 L 497 439.21765892756065 L 497 722.2323410724395 L 56.1 722.2323410724395 Z" stroke-opacity="1" stroke-miterlimit="10" stroke-width="3" stroke-dasharray=""/><path fill="none" stroke="rgb(0,43,255)" paint-order="fill stroke markers" d=" M 124.1 446.1515751105332 L 493 446.1515751105332 L 493 715.2984248894669 L 56.1 715.2984248894669 Z" stroke-opacity="1" stroke-miterlimit="10" stroke-width="3" stroke-dasharray=""/><path fill="none" stroke="rgb(0,43,255)" paint-order="fill stroke markers" d=" M 128.1 453.0854912935057 L 489 453.0854912935057 L 489 708.3645087064943 L 56.1 708.3645087064943 Z" stroke-opacity="1" stroke-miterlimit="10" stroke-width="3" stroke-dasharray=""/><path fill="none" stroke="rgb(0,43,255)" paint-order="fill stroke markers" d=" M 132.1 460.01940747647825 L 485 460.01940747647825 L 485 701.4305925235219 L 56.1 701.4305925235219 Z" stroke-opacity="1" stroke-miterlimit="10" stroke-width="3" stroke-dasharray=""/><path fill="none" stroke="rgb(0,43,255)" paint-order="fill stroke markers" d=" M 136.1 466.9533236594508 L 481 466.9533236594508 L 481 694.4966763405494 L 56.1 694.4966763405494 Z" stroke-opacity="1" stroke-miterlimit="10" stroke-width="3" stroke-dasharray=""/><path fill="none" stroke="rgb(0,43,255)" paint-order="fill stroke markers" d=" M 140.1 473.88723984242336 L 477 473.88723984242336 L 477 687.5627601575768 L 56.1 687.5627601575768 Z" stroke-opacity="1" stroke-miterlimit="10" stroke-width="3" stroke-dasharray=""/><path fill="none" stroke="rgb(0,43,255)" paint-order="fill stroke markers" d=" M 144.1 480.8211560253959 L 473 480.8211560253959 L 473 680.6288439746043 L 56.1 680.6288439746043 Z" stroke-opacity="1" stroke-miterlimit="10" stroke-width="3" stroke-dasharray=""/><path fill="none" stroke="rgb(0,43,255)" paint-order="fill stroke markers" d=" M 148.1 487.7550722083684 L 469 487.7550722083684 L 469 673.6949277916317 L 56.1 673.6949277916317 Z" stroke-opacity="1" stroke-miterlimit="10" stroke-width="3" stroke-dasharray=""/><path fill="none" stroke="rgb(0,43,255)" paint-order="fill stroke markers" d=" M 152.1 494.68898839134096 L 465 494.68898839134096 L 465 666.7610116086591 L 56.1 666.7610116086591 Z" stroke-opacity="1" stroke-miterlimit="10" stroke-width="3" stroke-dasharray=""/><path fill="none" stroke="rgb(0,43,255)" paint-order="fill stroke markers" d=" M 156.1 501.6229045743135 L 461 501.6229045743135 L 461 659.8270954256866 L 56.1 659.8270954256866 Z" stroke-opacity="1" stroke-miterlimit="10" stroke-width="3" stroke-dasharray=""/><path fill="none" stroke="rgb(0,43,255)" paint-order="fill stroke markers" d=" M 160.1 508.556820757286 L 457 508.556820757286 L 457 652.893179242714 L 56.1 652.893179242714 Z" stroke-opacity="1" stroke-miterlimit="10" stroke-width="3" stroke-dasharray=""/><path fill="none" stroke="rgb(0,43,255)" paint-order="fill stroke markers" d=" M 164.1 515.4907369402586 L 453 515.4907369402586 L 453 645.9592630597415 L 56.1 645.9592630597415 Z" stroke-opacity="1" stroke-miterlimit="10" stroke-width="3" stroke-dasharray=""/><path fill="none" stroke="rgb(0,43,255)" paint-order="fill stroke markers" d=" M 168.1 522.4246531232311 L 449 522.4246531232311 L 449 639.0253468767689 L 56.1 639.0253468767689 Z" stroke-opacity="1" stroke-miterlimit="10" stroke-width="3" stroke-dasharray=""/><path fill="none" stroke="rgb(0,43,255)" paint-order="fill stroke markers" d=" M 172.1 529.3585693062037 L 445 529.3585693062037 L 445 632.0914306937964 L 56.1 632.0914306937964 Z" stroke-opacity="1" stroke-miterlimit="10" stroke-width="3" stroke-dasharray=""/><path fill="none" stroke="rgb(0,43,255)" paint-order="fill stroke markers" d=" M 176.1 536.2924854891762 L 441 536.2924854891762 L 441 625.157514510824 L 56.1 625.157514510824 Z" stroke-opacity="1" stroke-miterlimit="10" stroke-width="3" stroke-dasharray=""/><path fill="none" stroke="rgb(0,43,255)" paint-order="fill stroke markers" d=" M 180.1 543.2264016721488 L 437 543.2264016721488 L 437 618.2235983278514 L 56.1 618.2235983278514 Z" stroke-opacity="1" stroke-miterlimit="10" stroke-width="3" stroke-dasharray=""/><path fill="none" stroke="rgb(0,43,255)" paint-order="fill stroke markers" d=" M 184.1 550.1603178551213 L 433 550.1603178551213 L 433 611.2896821448788 L 56.1 611.2896821448788 Z" stroke-opacity="1" stroke-miterlimit="10" stroke-width="3" stroke-dasharray=""/><path fill="none" stroke="rgb(0,43,255)" paint-order="fill stroke markers" d=" M 188.1 557.0942340380939 L 429 557.0942340380939 L 429 604.3557659619063 L 56.1 604.3557659619063 Z" stroke-opacity="1" stroke-miterlimit="10" stroke-width="3" stroke-dasharray=""/><path fill="none" stroke="rgb(0,43,255)" paint-order="fill stroke markers" d=" M 192.1 564.0281502210663 L 425 564.0281502210663 L 425 597.4218497789337 L 56.1 597.4218497789337 Z" stroke-opacity="1" stroke-miterlimit="10" stroke-width="3" stroke-dasharray=""/><path fill="none" stroke="rgb(0,43,255)" paint-order="fill stroke markers" d=" M 196.1 570.9620664040389 L 421 570.9620664040389 L 421 590.4879335959613 L 56.1 590.4879335959613 Z" stroke-opacity="1" stroke-miterlimit="10" stroke-width="3" stroke-dasharray=""/><path fill="none" stroke="rgb(0,43,255)" paint-order="fill stroke markers" d=" M 200.1 577.8959825870114 L 417 577.8959825870114 L 417 583.5540174129887 L 56.1 583.5540174129887 Z" stroke-opacity="1" stroke-miterlimit="10" stroke-width="3" stroke-dasharray=""/><path fill="none" stroke="rgb(0,43,255)" paint-order="fill stroke markers" d=" M 204.1 584.829898769984 L 413 584.829898769984 L 413 576.6201012300162 L 56.1 576.6201012300162 Z" stroke-opacity="1" stroke-miterlimit="10" stroke-width="3" stroke-dasharray=""/><path fill="none" stroke="rgb(0,43,255)" paint-order="fill stroke markers" d=" M 208.1 591.7638149529564 L 409 591.7638149529564 L 409 569.6861850470436 L 56.1 569.6861850470436 Z" stroke-opacity="1" stroke-miterlimit="10" stroke-width="3" stroke-dasharray=""/><path fill="none" stroke="rgb(0,43,255)" paint-order="fill stroke markers" d=" M 212.1 598.697731135929 L 405 598.697731135929 L 405 562.7522688640711 L 56.1 562.7522688640711 Z" stroke-opacity="1" stroke-miterlimit="10" stroke-width="3" stroke-dasharray=""/><path fill="none" stroke="rgb(0,43,255)" paint-order="fill stroke markers" d=" M 216.1 605.6316473189015 L 401 605.6316473189015 L 401 555.8183526810985 L 56.1 555.8183526810985 Z" stroke-opacity="1" stroke-miterlimit="10" stroke-width="3" stroke-dasharray=""/><path fill="none" stroke="rgb(0,43,255)" paint-order="fill stroke markers" d=" M 220.1 612.5655635018741 L 397 612.5655635018741 L 397 548.884436498126 L 56.1 548.884436498126 Z" stroke-opacity="1" stroke-miterlimit="10" stroke-width="3" stroke-dasharray=""/><path fill="none" stroke="rgb(0,43,255)" paint-order="fill stroke markers" d=" M 224.1 619.4994796848466 L 393 619.4994796848466 L 393 541.9505203151534 L 56.1 541.9505203151534 Z" stroke-opacity="1" stroke-miterlimit="10" stroke-width="3" stroke-dasharray=""/><path fill="none" stroke="rgb(0,43,255)" paint-order="fill stroke markers" d=" M 228.1 626.4333958678192 L 389 626.4333958678192 L 389 535.0166041321809 L 56.1 535.0166041321809 Z" stroke-opacity="1" stroke-miterlimit="10" stroke-width="3" stroke-dasharray=""/><path fill="none" stroke="rgb(0,43,255)" paint-order="fill stroke markers" d=" M 232.1 633.3673120507917 L 385 633.3673120507917 L 385 528.0826879492083 L 56.1 528.0826879492083 Z" stroke-opacity="1" stroke-miterlimit="10" stroke-width="3" stroke-dasharray=""/><path fill="none" stroke="rgb(0,43,255)" paint-order="fill stroke markers" d=" M 236.1 640.3012282337643 L 381 640.3012282337643 L 381 521.1487717662358 L 56.1 521.1487717662358 Z" stroke-opacity="1" stroke-miterlimit="10" stroke-width="3" stroke-dasharray=""/><path fill="none" stroke="rgb(0,43,255)" paint-order="fill stroke markers" d=" M 240.1 647.2351444167368 L 377 647.2351444167368 L 377 514.2148555832633 L 56.1 514.2148555832633 Z" stroke-opacity="1" stroke-miterlimit="10" stroke-width="3" stroke-dasharray=""/><path fill="none" stroke="rgb(0,43,255)" paint-order="fill stroke markers" d=" M 244.1 654.1690605997094 L 373 654.1690605997094 L 373 507.2809394002908 L 56.1 507.2809394002908 Z" stroke-opacity="1" stroke-miterlimit="10" stroke-width="3" stroke-dasharray=""/><path fill="none" stroke="rgb(0,43,255)" paint-order="fill stroke markers" d=" M 248.1 661.1029767826819 L 369 661.1029767826819 L 369 500.3470232173182 L 56.1 500.3470232173182 Z" stroke-opacity="1" stroke-miterlimit="10" stroke-width="3" stroke-dasharray=""/><path fill="none" stroke="rgb(0,43,255)" paint-order="fill stroke markers" d=" M 252.1 668.0368929656545 L 365 668.0368929656545 L 365 493.41310703434567 L 56.1 493.41310703434567 Z" stroke-opacity="1" stroke-miterlimit="10" stroke-width="3" stroke-dasharray=""/><path fill="none" stroke="rgb(0,43,255)" paint-order="fill stroke markers" d=" M 256.1 674.970809148627 L 361 674.970809148627 L 361 486.4791908513731 L 56.1 486.4791908513731 Z" stroke-opacity="1" stroke-miterlimit="10" stroke-width="3" stroke-dasharray=""/><path fill="none" stroke="rgb(0,43,255)" paint-order="fill stroke markers" d=" M 260.1 681.9047253315995 L 357 681.9047253315995 L 357 479.5452746684006 L 56.1 479.5452746684006 Z" stroke-opacity="1" stroke-miterlimit="10" stroke-width="3" stroke-dasharray=""/><path fill="none" stroke="rgb(0,43,255)" paint-order="fill stroke markers" d=" M 264.1 688.838641514572 L 353 688.838641514572 L 353 472.61135848542807 L 56.1 472.61135848542807 Z" stroke-opacity="1" stroke-miterlimit="10" stroke-width="3" stroke-dasharray=""/><path fill="none" stroke="rgb(0,43,255)" paint-order="fill stroke markers" d=" M 268.1 695.7725576975446 L 349 695.7725576975446 L 349 465.6774423024555 L 56.1 465.6774423024555 Z" stroke-opacity="1" stroke-miterlimit="10" stroke-width="3" stroke-dasharray=""/><path fill="none" stroke="rgb(0,43,255)" paint-order="fill stroke markers" d=" M 272.1 702.706473880517 L 345 702.706473880517 L 345 458.743526119483 L 56.1 458.743526119483 Z" stroke-opacity="1" stroke-miterlimit="10" stroke-width="3" stroke-dasharray=""/><path fill="none" stroke="rgb(0,43,255)" paint-order="fill stroke markers" d=" M 276.1 709.6403900634896 L 341 709.6403900634896 L 341 451.80960993651047 L 56.1 451.80960993651047 Z" stroke-opacity="1" stroke-miterlimit="10" stroke-width="3" stroke-dasharray=""/><path fill="none" stroke="rgb(0,43,255)" paint-order="fill stroke markers" d=" M 280.1 716.5743062464621 L 337 716.5743062464621 L 337 444.8756937535379 L 56.1 444.8756937535379 Z" stroke-opacity="1" stroke-miterlimit="10" stroke-width="3" stroke-dasharray=""/><path fill="none" stroke="rgb(0,43,255)" paint-order="fill stroke markers" d=" M 284.1 723.5082224294347 L 333 723.5082224294347 L 333 437.94177757056536 L 56.1 437.94177757056536 Z" stroke-opacity="1" stroke-miterlimit="10" stroke-width="3" stroke-dasharray=""/><path fill="none" stroke="rgb(0,43,255)" paint-order="fill stroke markers" d=" M 288.1 730.4421386124072 L 329 730.4421386124072 L 329 431.0078613875928 L 56.1 431.0078613875928 Z" stroke-opacity="1" stroke-miterlimit="10" stroke-width="3" stroke-dasharray=""/><path fill="none" stroke="rgb(0,43,255)" paint-order="fill stroke markers" d=" M 292.1 737.3760547953798 L 325 737.3760547953798 L 325 424.0739452046203 L 56.1 424.0739452046203 Z" stroke-opacity="1" stroke-miterlimit="10" stroke-width="3" stroke-dasharray=""/><path fill="none" stroke="rgb(0,43,255)" paint-order="fill stroke markers" d=" M 296.1 744.3099709783523 L 321 744.3099709783523 L 321 417.14002902164776 L 56.1 417.14002902164776 Z" stroke-opacity="1" stroke-miterlimit="10" stroke-width="3" stroke-dasharray=""/><path fill="none" stroke="rgb(0,43,255)" paint-order="fill stroke markers" d=" M 300.1 751.2438871613249 L 317 751.2438871613249 L 317 410.2061128386752 L 56.1 410.2061128386752 Z" stroke-opacity="1" stroke-miterlimit="10" stroke-width="3" stroke-dasharray=""/><path fill="none" stroke="rgb(0,43,255)" paint-order="fill stroke markers" d=" M 304.1 758.1778033442974 L 313 758.1778033442974 L 313 403.2721966557027 L 56.1 403.2721966557027 Z" stroke-opacity="1" stroke-miterlimit="10" stroke-width="3" stroke-dasharray=""/><path fill="none" stroke="rgb(0,43,255)" paint-order="fill stroke markers" d=" M 308.1 765.11171952727 L 309 765.11171952727 L 309 396.33828047273016 L 56.1 396.33828047273016 Z" stroke-opacity="1" stroke-miterlimit="10" stroke-width="3" stroke-dasharray=""/><path fill="none" stroke="rgb(0,43,255)" paint-order="fill stroke markers" d=" M 561 328.27500000000003 L 1065.9 328.27500000000003 L 1065.9 833.1750000000001 L 561 833.1750000000001 Z" stroke-opacity="1" stroke-miterlimit="10" stroke-width="3" stroke-dasharray=""/><path fill="none" stroke="rgb(0,43,255)" paint-order="fill stroke markers" d=" M 564 333.64623455034945 L 1062.9 333.64623455034945 L 1065.9 827.8037654496507 L 564 827.8037654496507 Z" stroke-opacity="1" stroke-miterlimit="10" stroke-width="3" stroke-dasharray=""/><path fill="none" stroke="rgb(0,43,255)" paint-order="fill stroke markers" d=" M 567 339.01746910069886 L 1059.9 339.01746910069886 L 1065.9 822.4325308993012 L 567 822.4325308993012 Z" stroke-opacity="1" stroke-miterlimit="10" stroke-width="3" stroke-dasharray=""/><path fill="none" stroke="rgb(0,43,255)" paint-order="fill stroke markers" d=" M 570 344.3887036510483 L 1056.9 344.3887036510483 L 1065.9 817.0612963489518 L 570 817.0612963489518 Z" stroke-opacity="1" stroke-miterlimit="10" stroke-width="3" stroke-dasharray=""/><path fill="none" stroke="rgb(0,43,255)" paint-order="fill stroke markers" d=" M 573 349.7599382013977 L 1053.9 349.7599382013977 L 1065.9 811.6900617986024 L 573 811.6900617986024 Z" stroke-opacity="1" stroke-miterlimit="10" stroke-width="3" stroke-dasharray=""/><path fill="none" stroke="rgb(0,43,255)" paint-order="fill stroke markers" d=" M 576 355.13117275174704 L 1050.9 355.13117275174704 L 1065.9 806.318827248253 L 576 806.318827248253 Z" stroke-opacity="1" stroke-miterlimit="10" stroke-width="3" stroke-dasharray=""/><path fill="none" stroke="rgb(0,43,255)" paint-order="fill stroke markers" d=" M 579 360.50240730209646 L 1047.9 360.50240730209646 L 1065.9 800.9475926979036 L 579 800.9475926979036 Z" stroke-opacity="1" stroke-miterlimit="10" stroke-width="3" stroke-dasharray=""/><path fill="none" stroke="rgb(0,43,255)" paint-order="fill stroke markers" d=" M 582 365.87364185244587 L 1044.9 365.87364185244587 L 1065.9 795.5763581475542 L 582 795.5763581475542 Z" stroke-opacity="1" stroke-miterlimit="10" stroke-width="3" stroke-dasharray=""/><path fill="none" stroke="rgb(0,43,255)" paint-order="fill stroke markers" d=" M 585 371.2448764027953 L 1041.9 371.2448764027953 L 1065.9 790.2051235972048 L 585 790.2051235972048 Z" stroke-opacity="1" stroke-miterlimit="10" stroke-width="3" stroke-dasharray=""/><path fill="none" stroke="rgb(0,43,255)" paint-order="fill stroke markers" d=" M 588 376.6161109531447 L 1038.9 376.6161109531447 L 1065.9 784.8338890468553 L 588 784.8338890468553 Z" stroke-opacity="1" stroke-miterlimit="10" stroke-width="3" stroke-dasharray=""/><path fill="none" stroke="rgb(0,43,255)" paint-order="fill stroke markers" d=" M 591 381.9873455034941 L 1035.9 381.9873455034941 L 1065.9 779.462654496506 L 591 779.462654496506 Z" stroke-opacity="1" stroke-miterlimit="10" stroke-width="3" stroke-dasharray=""/><path fill="none" stroke="rgb(0,43,255)" paint-order="fill stroke markers" d=" M 594 387.3585800538435 L 1032.9 387.3585800538435 L 1065.9 774.0914199461565 L 594 774.0914199461565 Z" stroke-opacity="1" stroke-miterlimit="10" stroke-width="3" stroke-dasharray=""/><path fill="none" stroke="rgb(0,43,255)" paint-order="fill stroke markers" d=" M 597 392.72981460419294 L 1029.9 392.72981460419294 L 1065.9 768.7201853958072 L 597 768.7201853958072 Z" stroke-opacity="1" stroke-miterlimit="10" stroke-width="3" stroke-dasharray=""/><path fill="none" stroke="rgb(0,43,255)" paint-order="fill stroke markers" d=" M 600 398.10104915454235 L 1026.9 398.10104915454235 L 1065.9 763.3489508454578 L 600 763.3489508454578 Z" stroke-opacity="1" stroke-miterlimit="10" stroke-width="3" stroke-dasharray=""/><path fill="none" stroke="rgb(0,43,255)" paint-order="fill stroke markers" d=" M 603 403.47228370489177 L 1023.9000000000001 403.47228370489177 L 1065.9 757.9777162951084 L 603 757.9777162951084 Z" stroke-opacity="1" stroke-miterlimit="10" stroke-width="3" stroke-dasharray=""/><path fill="none" stroke="rgb(0,43,255)" paint-order="fill stroke markers" d=" M 606 408.8435182552412 L 1020.9000000000001 408.8435182552412 L 1065.9 752.606481744759 L 606 752.606481744759 Z" stroke-opacity="1" stroke-miterlimit="10" stroke-width="3" stroke-dasharray=""/><path fill="none" stroke="rgb(0,43,255)" paint-order="fill stroke markers" d=" M 609 414.2147528055906 L 1017.9000000000001 414.2147528055906 L 1065.9 747.2352471944096 L 609 747.2352471944096 Z" stroke-opacity="1" stroke-miterlimit="10" stroke-width="3" stroke-dasharray=""/><path fill="none" stroke="rgb(0,43,255)" paint-order="fill stroke markers" d=" M 612 419.58598735594 L 1014.9000000000001 419.58598735594 L 1065.9 741.8640126440602 L 612 741.8640126440602 Z" stroke-opacity="1" stroke-miterlimit="10" stroke-width="3" stroke-dasharray=""/><path fill="none" stroke="rgb(0,43,255)" paint-order="fill stroke markers" d=" M 615 424.95722190628936 L 1011.9000000000001 424.95722190628936 L 1065.9 736.4927780937107 L 615 736.4927780937107 Z" stroke-opacity="1" stroke-miterlimit="10" stroke-width="3" stroke-dasharray=""/><path fill="none" stroke="rgb(0,43,255)" paint-order="fill stroke markers" d=" M 618 430.3284564566388 L 1008.9000000000001 430.3284564566388 L 1065.9 731.1215435433613 L 618 731.1215435433613 Z" stroke-opacity="1" stroke-miterlimit="10" stroke-width="3" stroke-dasharray=""/><path fill="none" stroke="rgb(0,43,255)" paint-order="fill stroke markers" d=" M 621 435.6996910069882 L 1005.9000000000001 435.6996910069882 L 1065.9 725.7503089930119 L 621 725.7503089930119 Z" stroke-opacity="1" stroke-miterlimit="10" stroke-width="3" stroke-dasharray=""/><path fill="none" stroke="rgb(0,43,255)" paint-order="fill stroke markers" d=" M 624 441.0709255573376 L 1002.9000000000001 441.0709255573376 L 1065.9 720.3790744426625 L 624 720.3790744426625 Z" stroke-opacity="1" stroke-miterlimit="10" stroke-width="3" stroke-dasharray=""/><path fill="none" stroke="rgb(0,43,255)" paint-order="fill stroke markers" d=" M 627 446.442160107687 L 999.9000000000001 446.442160107687 L 1065.9 715.0078398923131 L 627 715.0078398923131 Z" stroke-opacity="1" stroke-miterlimit="10" stroke-width="3" stroke-dasharray=""/><path fill="none" stroke="rgb(0,43,255)" paint-order="fill stroke markers" d=" M 630 451.81339465803643 L 996.9000000000001 451.81339465803643 L 1065.9 709.6366053419637 L 630 709.6366053419637 Z" stroke-opacity="1" stroke-miterlimit="10" stroke-width="3" stroke-dasharray=""/><path fill="none" stroke="rgb(0,43,255)" paint-order="fill stroke markers" d=" M 633 457.18462920838584 L 993.9000000000001 457.18462920838584 L 1065.9 704.2653707916143 L 633 704.2653707916143 Z" stroke-opacity="1" stroke-miterlimit="10" stroke-width="3" stroke-dasharray=""/><path fill="none" stroke="rgb(0,43,255)" paint-order="fill stroke markers" d=" M 636 462.5558637587352 L 990.9000000000001 462.5558637587352 L 1065.9 698.8941362412648 L 636 698.8941362412648 Z" stroke-opacity="1" stroke-miterlimit="10" stroke-width="3" stroke-dasharray=""/><path fill="none" stroke="rgb(0,43,255)" paint-order="fill stroke markers" d=" M 639 467.9270983090846 L 987.9000000000001 467.9270983090846 L 1065.9 693.5229016909154 L 639 693.5229016909154 Z" stroke-opacity="1" stroke-miterlimit="10" stroke-width="3" stroke-dasharray=""/><path fill="none" stroke="rgb(0,43,255)" paint-order="fill stroke markers" d=" M 642 473.298332859434 L 984.9000000000001 473.298332859434 L 1065.9 688.151667140566 L 642 688.151667140566 Z" stroke-opacity="1" stroke-miterlimit="10" stroke-width="3" stroke-dasharray=""/><path fill="none" stroke="rgb(0,43,255)" paint-order="fill stroke markers" d=" M 645 478.66956740978344 L 981.9000000000001 478.66956740978344 L 1065.9 682.7804325902166 L 645 682.7804325902166 Z" stroke-opacity="1" stroke-miterlimit="10" stroke-width="3" stroke-dasharray=""/><path fill="none" stroke="rgb(0,43,255)" paint-order="fill stroke markers" d=" M 648 484.04080196013285 L 978.9000000000001 484.04080196013285 L 1065.9 677.4091980398672 L 648 677.4091980398672 Z" stroke-opacity="1" stroke-miterlimit="10" stroke-width="3" stroke-dasharray=""/><path fill="none" stroke="rgb(0,43,255)" paint-order="fill stroke markers" d=" M 651 489.41203651048227 L 975.9000000000001 489.41203651048227 L 1065.9 672.0379634895178 L 651 672.0379634895178 Z" stroke-opacity="1" stroke-miterlimit="10" stroke-width="3" stroke-dasharray=""/><path fill="none" stroke="rgb(0,43,255)" paint-order="fill stroke markers" d=" M 654 494.7832710608317 L 972.9000000000001 494.7832710608317 L 1065.9 666.6667289391685 L 654 666.6667289391685 Z" stroke-opacity="1" stroke-miterlimit="10" stroke-width="3" stroke-dasharray=""/><path fill="none" stroke="rgb(0,43,255)" paint-order="fill stroke markers" d=" M 657 500.1545056111811 L 969.9000000000001 500.1545056111811 L 1065.9 661.295494388819 L 657 661.295494388819 Z" stroke-opacity="1" stroke-miterlimit="10" stroke-width="3" stroke-dasharray=""/><path fill="none" stroke="rgb(0,43,255)" paint-order="fill stroke markers" d=" M 660 505.5257401615305 L 966.9000000000001 505.5257401615305 L 1065.9 655.9242598384697 L 660 655.9242598384697 Z" stroke-opacity="1" stroke-miterlimit="10" stroke-width="3" stroke-dasharray=""/><path fill="none" stroke="rgb(0,43,255)" paint-order="fill stroke markers" d=" M 663 510.8969747118799 L 963.9000000000001 510.8969747118799 L 1065.9 650.5530252881201 L 663 650.5530252881201 Z" stroke-opacity="1" stroke-miterlimit="10" stroke-width="3" stroke-dasharray=""/><path fill="none" stroke="rgb(0,43,255)" paint-order="fill stroke markers" d=" M 666 516.2682092622293 L 960.9000000000001 516.2682092622293 L 1065.9 645.1817907377708 L 666 645.1817907377708 Z" stroke-opacity="1" stroke-miterlimit="10" stroke-width="3" stroke-dasharray=""/><path fill="none" stroke="rgb(0,43,255)" paint-order="fill stroke markers" d=" M 669 521.6394438125787 L 957.9000000000001 521.6394438125787 L 1065.9 639.8105561874214 L 669 639.8105561874214 Z" stroke-opacity="1" stroke-miterlimit="10" stroke-width="3" stroke-dasharray=""/><path fill="none" stroke="rgb(0,43,255)" paint-order="fill stroke markers" d=" M 672 527.0106783629282 L 954.9000000000001 527.0106783629282 L 1065.9 634.439321637072 L 672 634.439321637072 Z" stroke-opacity="1" stroke-miterlimit="10" stroke-width="3" stroke-dasharray=""/><path fill="none" stroke="rgb(0,43,255)" paint-order="fill stroke markers" d=" M 675 532.3819129132776 L 951.9000000000001 532.3819129132776 L 1065.9 629.0680870867226 L 675 629.0680870867226 Z" stroke-opacity="1" stroke-miterlimit="10" stroke-width="3" stroke-dasharray=""/><path fill="none" stroke="rgb(0,43,255)" paint-order="fill stroke markers" d=" M 678 537.753147463627 L 948.9000000000001 537.753147463627 L 1065.9 623.6968525363732 L 678 623.6968525363732 Z" stroke-opacity="1" stroke-miterlimit="10" stroke-width="3" stroke-dasharray=""/><path fill="none" stroke="rgb(0,43,255)" paint-order="fill stroke markers" d=" M 681 543.1243820139764 L 945.9000000000001 543.1243820139764 L 1065.9 618.3256179860238 L 681 618.3256179860238 Z" stroke-opacity="1" stroke-miterlimit="10" stroke-width="3" stroke-dasharray=""/><path fill="none" stroke="rgb(0,43,255)" paint-order="fill stroke markers" d=" M 684 548.4956165643257 L 942.9000000000001 548.4956165643257 L 1065.9 612.9543834356743 L 684 612.9543834356743 Z" stroke-opacity="1" stroke-miterlimit="10" stroke-width="3" stroke-dasharray=""/><path fill="none" stroke="rgb(0,43,255)" paint-order="fill stroke markers" d=" M 687 553.8668511146752 L 939.9000000000001 553.8668511146752 L 1065.9 607.5831488853249 L 687 607.5831488853249 Z" stroke-opacity="1" stroke-miterlimit="10" stroke-width="3" stroke-dasharray=""/><path fill="none" stroke="rgb(0,43,255)" paint-order="fill stroke markers" d=" M 690 559.2380856650245 L 936.9000000000001 559.2380856650245 L 1065.9 602.2119143349755 L 690 602.2119143349755 Z" stroke-opacity="1" stroke-miterlimit="10" stroke-width="3" stroke-dasharray=""/><path fill="none" stroke="rgb(0,43,255)" paint-order="fill stroke markers" d=" M 693 564.609320215374 L 933.9000000000001 564.609320215374 L 1065.9 596.8406797846261 L 693 596.8406797846261 Z" stroke-opacity="1" stroke-miterlimit="10" stroke-width="3" stroke-dasharray=""/><path fill="none" stroke="rgb(0,43,255)" paint-order="fill stroke markers" d=" M 696 569.9805547657234 L 930.9000000000001 569.9805547657234 L 1065.9 591.4694452342767 L 696 591.4694452342767 Z" stroke-opacity="1" stroke-miterlimit="10" stroke-width="3" stroke-dasharray=""/><path fill="none" stroke="rgb(0,43,255)" paint-order="fill stroke markers" d=" M 699 575.3517893160728 L 927.9000000000001 575.3517893160728 L 1065.9 586.0982106839273 L 699 586.0982106839273 Z" stroke-opacity="1" stroke-miterlimit="10" stroke-width="3" stroke-dasharray=""/><path fill="none" stroke="rgb(0,43,255)" paint-order="fill stroke markers" d=" M 702 580.7230238664222 L 924.9000000000001 580.7230238664222 L 1065.9 580.7269761335779 L 702 580.7269761335779 Z" stroke-opacity="1" stroke-miterlimit="10" stroke-width="3" stroke-dasharray=""/><path fill="none" stroke="rgb(0,43,255)" paint-order="fill stroke markers" d=" M 705 586.0942584167717 L 921.9000000000001 586.0942584167717 L 1065.9 575.3557415832285 L 705 575.3557415832285 Z" stroke-opacity="1" stroke-miterlimit="10" stroke-width="3" stroke-dasharray=""/><path fill="none" stroke="rgb(0,43,255)" paint-order="fill stroke markers" d=" M 708 591.465492967121 L 918.9000000000001 591.465492967121 L 1065.9 569.984507032879 L 708 569.984507032879 Z" stroke-opacity="1" stroke-miterlimit="10" stroke-width="3" stroke-dasharray=""/><path fill="none" stroke="rgb(0,43,255)" paint-order="fill stroke markers" d=" M 711 596.8367275174704 L 915.9000000000001 596.8367275174704 L 1065.9 564.6132724825297 L 711 564.6132724825297 Z" stroke-opacity="1" stroke-miterlimit="10" stroke-width="3" stroke-dasharray=""/><path fill="none" stroke="rgb(0,43,255)" paint-order="fill stroke markers" d=" M 714 602.2079620678198 L 912.9000000000001 602.2079620678198 L 1065.9 559.2420379321802 L 714 559.2420379321802 Z" stroke-opacity="1" stroke-miterlimit="10" stroke-width="3" stroke-dasharray=""/><path fill="none" stroke="rgb(0,43,255)" paint-order="fill stroke markers" d=" M 717 607.5791966181692 L 909.9000000000001 607.5791966181692 L 1065.9 553.8708033818309 L 717 553.8708033818309 Z" stroke-opacity="1" stroke-miterlimit="10" stroke-width="3" stroke-dasharray=""/><path fill="none" stroke="rgb(0,43,255)" paint-order="fill stroke markers" d=" M 720 612.9504311685187 L 906.9000000000001 612.9504311685187 L 1065.9 548.4995688314814 L 720 548.4995688314814 Z" stroke-opacity="1" stroke-miterlimit="10" stroke-width="3" stroke-dasharray=""/><path fill="none" stroke="rgb(0,43,255)" paint-order="fill stroke markers" d=" M 723 618.3216657188681 L 903.9000000000001 618.3216657188681 L 1065.9 543.1283342811321 L 723 543.1283342811321 Z" stroke-opacity="1" stroke-miterlimit="10" stroke-width="3" stroke-dasharray=""/><path fill="none" stroke="rgb(0,43,255)" paint-order="fill stroke markers" d=" M 726 623.6929002692175 L 900.9000000000001 623.6929002692175 L 1065.9 537.7570997307826 L 726 537.7570997307826 Z" stroke-opacity="1" stroke-miterlimit="10" stroke-width="3" stroke-dasharray=""/><path fill="none" stroke="rgb(0,43,255)" paint-order="fill stroke markers" d=" M 729 629.0641348195669 L 897.9000000000001 629.0641348195669 L 1065.9 532.3858651804333 L 729 532.3858651804333 Z" stroke-opacity="1" stroke-miterlimit="10" stroke-width="3" stroke-dasharray=""/><path fill="none" stroke="rgb(0,43,255)" paint-order="fill stroke markers" d=" M 732 634.4353693699163 L 894.9000000000001 634.4353693699163 L 1065.9 527.0146306300837 L 732 527.0146306300837 Z" stroke-opacity="1" stroke-miterlimit="10" stroke-width="3" stroke-dasharray=""/><path fill="none" stroke="rgb(0,43,255)" paint-order="fill stroke markers" d=" M 735 639.8066039202657 L 891.9000000000001 639.8066039202657 L 1065.9 521.6433960797344 L 735 521.6433960797344 Z" stroke-opacity="1" stroke-miterlimit="10" stroke-width="3" stroke-dasharray=""/><path fill="none" stroke="rgb(0,43,255)" paint-order="fill stroke markers" d=" M 738 645.1778384706151 L 888.9000000000001 645.1778384706151 L 1065.9 516.272161529385 L 738 516.272161529385 Z" stroke-opacity="1" stroke-miterlimit="10" stroke-width="3" stroke-dasharray=""/><path fill="none" stroke="rgb(0,43,255)" paint-order="fill stroke markers" d=" M 741 650.5490730209644 L 885.9000000000001 650.5490730209644 L 1065.9 510.9009269790356 L 741 510.9009269790356 Z" stroke-opacity="1" stroke-miterlimit="10" stroke-width="3" stroke-dasharray=""/><path fill="none" stroke="rgb(0,43,255)" paint-order="fill stroke markers" d=" M 744 655.920307571314 L 882.9000000000001 655.920307571314 L 1065.9 505.5296924286862 L 744 505.5296924286862 Z" stroke-opacity="1" stroke-miterlimit="10" stroke-width="3" stroke-dasharray=""/><path fill="none" stroke="rgb(0,43,255)" paint-order="fill stroke markers" d=" M 747 661.2915421216633 L 879.9000000000001 661.2915421216633 L 1065.9 500.1584578783368 L 747 500.1584578783368 Z" stroke-opacity="1" stroke-miterlimit="10" stroke-width="3" stroke-dasharray=""/><path fill="none" stroke="rgb(0,43,255)" paint-order="fill stroke markers" d=" M 750 666.6627766720128 L 876.9000000000001 666.6627766720128 L 1065.9 494.78722332798736 L 750 494.78722332798736 Z" stroke-opacity="1" stroke-miterlimit="10" stroke-width="3" stroke-dasharray=""/><path fill="none" stroke="rgb(0,43,255)" paint-order="fill stroke markers" d=" M 753 672.0340112223621 L 873.9000000000001 672.0340112223621 L 1065.9 489.41598877763795 L 753 489.41598877763795 Z" stroke-opacity="1" stroke-miterlimit="10" stroke-width="3" stroke-dasharray=""/><path fill="none" stroke="rgb(0,43,255)" paint-order="fill stroke markers" d=" M 756 677.4052457727116 L 870.9000000000001 677.4052457727116 L 1065.9 484.04475422728854 L 756 484.04475422728854 Z" stroke-opacity="1" stroke-miterlimit="10" stroke-width="3" stroke-dasharray=""/><path fill="none" stroke="rgb(0,43,255)" paint-order="fill stroke markers" d=" M 759 682.7764803230609 L 867.9000000000001 682.7764803230609 L 1065.9 478.6735196769391 L 759 478.6735196769391 Z" stroke-opacity="1" stroke-miterlimit="10" stroke-width="3" stroke-dasharray=""/><path fill="none" stroke="rgb(0,43,255)" paint-order="fill stroke markers" d=" M 762 688.1477148734105 L 864.9000000000001 688.1477148734105 L 1065.9 473.3022851265897 L 762 473.3022851265897 Z" stroke-opacity="1" stroke-miterlimit="10" stroke-width="3" stroke-dasharray=""/><path fill="none" stroke="rgb(0,43,255)" paint-order="fill stroke markers" d=" M 765 693.5189494237598 L 861.9000000000001 693.5189494237598 L 1065.9 467.9310505762403 L 765 467.9310505762403 Z" stroke-opacity="1" stroke-miterlimit="10" stroke-width="3" stroke-dasharray=""/><path fill="none" stroke="rgb(0,43,255)" paint-order="fill stroke markers" d=" M 768 698.8901839741093 L 858.9000000000001 698.8901839741093 L 1065.9 462.5598160258909 L 768 462.5598160258909 Z" stroke-opacity="1" stroke-miterlimit="10" stroke-width="3" stroke-dasharray=""/><path fill="none" stroke="rgb(0,43,255)" paint-order="fill stroke markers" d=" M 771 704.2614185244586 L 855.9000000000001 704.2614185244586 L 1065.9 457.1885814755415 L 771 457.1885814755415 Z" stroke-opacity="1" stroke-miterlimit="10" stroke-width="3" stroke-dasharray=""/><path fill="none" stroke="rgb(0,43,255)" paint-order="fill stroke markers" d=" M 774 709.632653074808 L 852.9000000000001 709.632653074808 L 1065.9 451.8173469251921 L 774 451.8173469251921 Z" stroke-opacity="1" stroke-miterlimit="10" stroke-width="3" stroke-dasharray=""/><path fill="none" stroke="rgb(0,43,255)" paint-order="fill stroke markers" d=" M 777 715.0038876251574 L 849.9000000000001 715.0038876251574 L 1065.9 446.4461123748427 L 777 446.4461123748427 Z" stroke-opacity="1" stroke-miterlimit="10" stroke-width="3" stroke-dasharray=""/><path fill="none" stroke="rgb(0,43,255)" paint-order="fill stroke markers" d=" M 780 720.3751221755068 L 846.9000000000001 720.3751221755068 L 1065.9 441.0748778244933 L 780 441.0748778244933 Z" stroke-opacity="1" stroke-miterlimit="10" stroke-width="3" stroke-dasharray=""/><path fill="none" stroke="rgb(0,43,255)" paint-order="fill stroke markers" d=" M 783 725.7463567258562 L 843.9000000000001 725.7463567258562 L 1065.9 435.7036432741439 L 783 435.7036432741439 Z" stroke-opacity="1" stroke-miterlimit="10" stroke-width="3" stroke-dasharray=""/><path fill="none" stroke="rgb(0,43,255)" paint-order="fill stroke markers" d=" M 786 731.1175912762056 L 840.9000000000001 731.1175912762056 L 1065.9 430.33240872379446 L 786 430.33240872379446 Z" stroke-opacity="1" stroke-miterlimit="10" stroke-width="3" stroke-dasharray=""/><path fill="none" stroke="rgb(0,43,255)" paint-order="fill stroke markers" d=" M 789 736.4888258265551 L 837.9000000000001 736.4888258265551 L 1065.9 424.96117417344504 L 789 424.96117417344504 Z" stroke-opacity="1" stroke-miterlimit="10" stroke-width="3" stroke-dasharray=""/><path fill="none" stroke="rgb(0,43,255)" paint-order="fill stroke markers" d=" M 792 741.8600603769045 L 834.9000000000001 741.8600603769045 L 1065.9 419.58993962309563 L 792 419.58993962309563 Z" stroke-opacity="1" stroke-miterlimit="10" stroke-width="3" stroke-dasharray=""/><path fill="none" stroke="rgb(0,43,255)" paint-order="fill stroke markers" d=" M 795 747.2312949272539 L 831.9000000000001 747.2312949272539 L 1065.9 414.2187050727462 L 795 414.2187050727462 Z" stroke-opacity="1" stroke-miterlimit="10" stroke-width="3" stroke-dasharray=""/><path fill="none" stroke="rgb(0,43,255)" paint-order="fill stroke markers" d=" M 798 752.6025294776033 L 828.9000000000001 752.6025294776033 L 1065.9 408.8474705223968 L 798 408.8474705223968 Z" stroke-opacity="1" stroke-miterlimit="10" stroke-width="3" stroke-dasharray=""/><path fill="none" stroke="rgb(0,43,255)" paint-order="fill stroke markers" d=" M 801 757.9737640279527 L 825.9000000000001 757.9737640279527 L 1065.9 403.47623597204745 L 801 403.47623597204745 Z" stroke-opacity="1" stroke-miterlimit="10" stroke-width="3" stroke-dasharray=""/><path fill="none" stroke="rgb(0,43,255)" paint-order="fill stroke markers" d=" M 804 763.344998578302 L 822.9000000000001 763.344998578302 L 1065.9 398.10500142169803 L 804 398.10500142169803 Z" stroke-opacity="1" stroke-miterlimit="10" stroke-width="3" stroke-dasharray=""/><path fill="none" stroke="rgb(0,43,255)" paint-order="fill stroke markers" d=" M 807 768.7162331286515 L 819.9000000000001 768.7162331286515 L 1065.9 392.7337668713486 L 807 392.7337668713486 Z" stroke-opacity="1" stroke-miterlimit="10" stroke-width="3" stroke-dasharray=""/><path fill="none" stroke="rgb(0,43,255)" paint-order="fill stroke markers" d=" M 810 774.0874676790008 L 816.9000000000001 774.0874676790008 L 1065.9 387.3625323209992 L 810 387.3625323209992 Z" stroke-opacity="1" stroke-miterlimit="10" stroke-width="3" stroke-dasharray=""/><path fill="none" stroke="rgb(0,43,255)" paint-order="fill stroke markers" d=" M 813 779.4587022293504 L 813.9000000000001 779.4587022293504 L 1065.9 381.9912977706498 L 813 381.9912977706498 Z" stroke-opacity="1" stroke-miterlimit="10" stroke-width="3" stroke-dasharray=""/><path fill="none" stroke="rgb(0,43,255)" paint-order="fill stroke markers" d=" M 56.1 833.1750000000001 L 561 833.1750000000001 L 561 1338.075 L 56.1 1338.075 Z" stroke-opacity="1" stroke-miterlimit="10" stroke-width="3" stroke-dasharray=""/><path fill="none" stroke="rgb(0,43,255)" paint-order="fill stroke markers" d=" M 62.1 839.8216119783497 L 555 839.8216119783497 L 555 1331.4283880216506 L 56.1 1331.4283880216506 Z" stroke-opacity="1" stroke-miterlimit="10" stroke-width="3" stroke-dasharray=""/><path fill="none" stroke="rgb(0,43,255)" paint-order="fill stroke markers" d=" M 68.1 846.4682239566991 L 549 846.4682239566991 L 549 1324.7817760433009 L 56.1 1324.7817760433009 Z" stroke-opacity="1" stroke-miterlimit="10" stroke-width="3" stroke-dasharray=""/><path fill="none" stroke="rgb(0,43,255)" paint-order="fill stroke markers" d=" M 74.1 853.1148359350487 L 543 853.1148359350487 L 543 1318.1351640649514 L 56.1 1318.1351640649514 Z" stroke-opacity="1" stroke-miterlimit="10" stroke-width="3" stroke-dasharray=""/><path fill="none" stroke="rgb(0,43,255)" paint-order="fill stroke markers" d=" M 80.1 859.7614479133983 L 537 859.7614479133983 L 537 1311.4885520866019 L 56.1 1311.4885520866019 Z" stroke-opacity="1" stroke-miterlimit="10" stroke-width="3" stroke-dasharray=""/><path fill="none" stroke="rgb(0,43,255)" paint-order="fill stroke markers" d=" M 86.1 866.4080598917478 L 531 866.4080598917478 L 531 1304.8419401082522 L 56.1 1304.8419401082522 Z" stroke-opacity="1" stroke-miterlimit="10" stroke-width="3" stroke-dasharray=""/><path fill="none" stroke="rgb(0,43,255)" paint-order="fill stroke markers" d=" M 92.1 873.0546718700974 L 525 873.0546718700974 L 525 1298.1953281299027 L 56.1 1298.1953281299027 Z" stroke-opacity="1" stroke-miterlimit="10" stroke-width="3" stroke-dasharray=""/><path fill="none" stroke="rgb(0,43,255)" paint-order="fill stroke markers" d=" M 98.1 879.701283848447 L 519 879.701283848447 L 519 1291.5487161515532 L 56.1 1291.5487161515532 Z" stroke-opacity="1" stroke-miterlimit="10" stroke-width="3" stroke-dasharray=""/><path fill="none" stroke="rgb(0,43,255)" paint-order="fill stroke markers" d=" M 104.1 886.3478958267965 L 513 886.3478958267965 L 513 1284.9021041732035 L 56.1 1284.9021041732035 Z" stroke-opacity="1" stroke-miterlimit="10" stroke-width="3" stroke-dasharray=""/><path fill="none" stroke="rgb(0,43,255)" paint-order="fill stroke markers" d=" M 110.1 892.9945078051461 L 507 892.9945078051461 L 507 1278.255492194854 L 56.1 1278.255492194854 Z" stroke-opacity="1" stroke-miterlimit="10" stroke-width="3" stroke-dasharray=""/><path fill="none" stroke="rgb(0,43,255)" paint-order="fill stroke markers" d=" M 116.1 899.6411197834957 L 501 899.6411197834957 L 501 1271.6088802165045 L 56.1 1271.6088802165045 Z" stroke-opacity="1" stroke-miterlimit="10" stroke-width="3" stroke-dasharray=""/><path fill="none" stroke="rgb(0,43,255)" paint-order="fill stroke markers" d=" M 122.1 906.2877317618452 L 495 906.2877317618452 L 495 1264.9622682381548 L 56.1 1264.9622682381548 Z" stroke-opacity="1" stroke-miterlimit="10" stroke-width="3" stroke-dasharray=""/><path fill="none" stroke="rgb(0,43,255)" paint-order="fill stroke markers" d=" M 128.1 912.9343437401948 L 489 912.9343437401948 L 489 1258.3156562598053 L 56.1 1258.3156562598053 Z" stroke-opacity="1" stroke-miterlimit="10" stroke-width="3" stroke-dasharray=""/><path fill="none" stroke="rgb(0,43,255)" paint-order="fill stroke markers" d=" M 134.1 919.5809557185443 L 483 919.5809557185443 L 483 1251.6690442814559 L 56.1 1251.6690442814559 Z" stroke-opacity="1" stroke-miterlimit="10" stroke-width="3" stroke-dasharray=""/><path fill="none" stroke="rgb(0,43,255)" paint-order="fill stroke markers" d=" M 140.1 926.2275676968939 L 477 926.2275676968939 L 477 1245.0224323031061 L 56.1 1245.0224323031061 Z" stroke-opacity="1" stroke-miterlimit="10" stroke-width="3" stroke-dasharray=""/><path fill="none" stroke="rgb(0,43,255)" paint-order="fill stroke markers" d=" M 146.1 932.8741796752435 L 471 932.8741796752435 L 471 1238.3758203247567 L 56.1 1238.3758203247567 Z" stroke-opacity="1" stroke-miterlimit="10" stroke-width="3" stroke-dasharray=""/><path fill="none" stroke="rgb(0,43,255)" paint-order="fill stroke markers" d=" M 152.1 939.5207916535929 L 465 939.5207916535929 L 465 1231.7292083464072 L 56.1 1231.7292083464072 Z" stroke-opacity="1" stroke-miterlimit="10" stroke-width="3" stroke-dasharray=""/><path fill="none" stroke="rgb(0,43,255)" paint-order="fill stroke markers" d=" M 158.1 946.1674036319425 L 459 946.1674036319425 L 459 1225.0825963680577 L 56.1 1225.0825963680577 Z" stroke-opacity="1" stroke-miterlimit="10" stroke-width="3" stroke-dasharray=""/><path fill="none" stroke="rgb(0,43,255)" paint-order="fill stroke markers" d=" M 164.1 952.8140156102921 L 453 952.8140156102921 L 453 1218.435984389708 L 56.1 1218.435984389708 Z" stroke-opacity="1" stroke-miterlimit="10" stroke-width="3" stroke-dasharray=""/><path fill="none" stroke="rgb(0,43,255)" paint-order="fill stroke markers" d=" M 170.1 959.4606275886416 L 447 959.4606275886416 L 447 1211.7893724113585 L 56.1 1211.7893724113585 Z" stroke-opacity="1" stroke-miterlimit="10" stroke-width="3" stroke-dasharray=""/><path fill="none" stroke="rgb(0,43,255)" paint-order="fill stroke markers" d=" M 176.1 966.1072395669912 L 441 966.1072395669912 L 441 1205.1427604330088 L 56.1 1205.1427604330088 Z" stroke-opacity="1" stroke-miterlimit="10" stroke-width="3" stroke-dasharray=""/><path fill="none" stroke="rgb(0,43,255)" paint-order="fill stroke markers" d=" M 182.1 972.7538515453407 L 435 972.7538515453407 L 435 1198.4961484546593 L 56.1 1198.4961484546593 Z" stroke-opacity="1" stroke-miterlimit="10" stroke-width="3" stroke-dasharray=""/><path fill="none" stroke="rgb(0,43,255)" paint-order="fill stroke markers" d=" M 188.1 979.4004635236903 L 429 979.4004635236903 L 429 1191.8495364763098 L 56.1 1191.8495364763098 Z" stroke-opacity="1" stroke-miterlimit="10" stroke-width="3" stroke-dasharray=""/><path fill="none" stroke="rgb(0,43,255)" paint-order="fill stroke markers" d=" M 194.1 986.0470755020399 L 423 986.0470755020399 L 423 1185.2029244979603 L 56.1 1185.2029244979603 Z" stroke-opacity="1" stroke-miterlimit="10" stroke-width="3" stroke-dasharray=""/><path fill="none" stroke="rgb(0,43,255)" paint-order="fill stroke markers" d=" M 200.1 992.6936874803894 L 417 992.6936874803894 L 417 1178.5563125196106 L 56.1 1178.5563125196106 Z" stroke-opacity="1" stroke-miterlimit="10" stroke-width="3" stroke-dasharray=""/><path fill="none" stroke="rgb(0,43,255)" paint-order="fill stroke markers" d=" M 206.1 999.340299458739 L 411 999.340299458739 L 411 1171.9097005412611 L 56.1 1171.9097005412611 Z" stroke-opacity="1" stroke-miterlimit="10" stroke-width="3" stroke-dasharray=""/><path fill="none" stroke="rgb(0,43,255)" paint-order="fill stroke markers" d=" M 212.1 1005.9869114370886 L 405 1005.9869114370886 L 405 1165.2630885629117 L 56.1 1165.2630885629117 Z" stroke-opacity="1" stroke-miterlimit="10" stroke-width="3" stroke-dasharray=""/><path fill="none" stroke="rgb(0,43,255)" paint-order="fill stroke markers" d=" M 218.1 1012.633523415438 L 399 1012.633523415438 L 399 1158.616476584562 L 56.1 1158.616476584562 Z" stroke-opacity="1" stroke-miterlimit="10" stroke-width="3" stroke-dasharray=""/><path fill="none" stroke="rgb(0,43,255)" paint-order="fill stroke markers" d=" M 224.1 1019.2801353937876 L 393 1019.2801353937876 L 393 1151.9698646062125 L 56.1 1151.9698646062125 Z" stroke-opacity="1" stroke-miterlimit="10" stroke-width="3" stroke-dasharray=""/><path fill="none" stroke="rgb(0,43,255)" paint-order="fill stroke markers" d=" M 230.1 1025.9267473721372 L 387 1025.9267473721372 L 387 1145.323252627863 L 56.1 1145.323252627863 Z" stroke-opacity="1" stroke-miterlimit="10" stroke-width="3" stroke-dasharray=""/><path fill="none" stroke="rgb(0,43,255)" paint-order="fill stroke markers" d=" M 236.1 1032.5733593504867 L 381 1032.5733593504867 L 381 1138.6766406495133 L 56.1 1138.6766406495133 Z" stroke-opacity="1" stroke-miterlimit="10" stroke-width="3" stroke-dasharray=""/><path fill="none" stroke="rgb(0,43,255)" paint-order="fill stroke markers" d=" M 242.1 1039.2199713288364 L 375 1039.2199713288364 L 375 1132.0300286711638 L 56.1 1132.0300286711638 Z" stroke-opacity="1" stroke-miterlimit="10" stroke-width="3" stroke-dasharray=""/><path fill="none" stroke="rgb(0,43,255)" paint-order="fill stroke markers" d=" M 248.1 1045.866583307186 L 369 1045.866583307186 L 369 1125.3834166928143 L 56.1 1125.3834166928143 Z" stroke-opacity="1" stroke-miterlimit="10" stroke-width="3" stroke-dasharray=""/><path fill="none" stroke="rgb(0,43,255)" paint-order="fill stroke markers" d=" M 254.1 1052.5131952855354 L 363 1052.5131952855354 L 363 1118.7368047144646 L 56.1 1118.7368047144646 Z" stroke-opacity="1" stroke-miterlimit="10" stroke-width="3" stroke-dasharray=""/><path fill="none" stroke="rgb(0,43,255)" paint-order="fill stroke markers" d=" M 260.1 1059.1598072638849 L 357 1059.1598072638849 L 357 1112.0901927361151 L 56.1 1112.0901927361151 Z" stroke-opacity="1" stroke-miterlimit="10" stroke-width="3" stroke-dasharray=""/><path fill="none" stroke="rgb(0,43,255)" paint-order="fill stroke markers" d=" M 266.1 1065.8064192422346 L 351 1065.8064192422346 L 351 1105.4435807577656 L 56.1 1105.4435807577656 Z" stroke-opacity="1" stroke-miterlimit="10" stroke-width="3" stroke-dasharray=""/><path fill="none" stroke="rgb(0,43,255)" paint-order="fill stroke markers" d=" M 272.1 1072.453031220584 L 345 1072.453031220584 L 345 1098.796968779416 L 56.1 1098.796968779416 Z" stroke-opacity="1" stroke-miterlimit="10" stroke-width="3" stroke-dasharray=""/><path fill="none" stroke="rgb(0,43,255)" paint-order="fill stroke markers" d=" M 278.1 1079.0996431989338 L 339 1079.0996431989338 L 339 1092.1503568010664 L 56.1 1092.1503568010664 Z" stroke-opacity="1" stroke-miterlimit="10" stroke-width="3" stroke-dasharray=""/><path fill="none" stroke="rgb(0,43,255)" paint-order="fill stroke markers" d=" M 284.1 1085.7462551772833 L 333 1085.7462551772833 L 333 1085.503744822717 L 56.1 1085.503744822717 Z" stroke-opacity="1" stroke-miterlimit="10" stroke-width="3" stroke-dasharray=""/><path fill="none" stroke="rgb(0,43,255)" paint-order="fill stroke markers" d=" M 290.1 1092.3928671556328 L 327 1092.3928671556328 L 327 1078.8571328443672 L 56.1 1078.8571328443672 Z" stroke-opacity="1" stroke-miterlimit="10" stroke-width="3" stroke-dasharray=""/><path fill="none" stroke="rgb(0,43,255)" paint-order="fill stroke markers" d=" M 296.1 1099.0394791339822 L 321 1099.0394791339822 L 321 1072.2105208660178 L 56.1 1072.2105208660178 Z" stroke-opacity="1" stroke-miterlimit="10" stroke-width="3" stroke-dasharray=""/><path fill="none" stroke="rgb(0,43,255)" paint-order="fill stroke markers" d=" M 302.1 1105.686091112332 L 315 1105.686091112332 L 315 1065.5639088876683 L 56.1 1065.5639088876683 Z" stroke-opacity="1" stroke-miterlimit="10" stroke-width="3" stroke-dasharray=""/><path fill="none" stroke="rgb(0,43,255)" paint-order="fill stroke markers" d=" M 308.1 1112.3327030906814 L 309 1112.3327030906814 L 309 1058.9172969093188 L 56.1 1058.9172969093188 Z" stroke-opacity="1" stroke-miterlimit="10" stroke-width="3" stroke-dasharray=""/><path fill="none" stroke="rgb(0,43,255)" paint-order="fill stroke markers" d=" M 561 833.1750000000001 L 1065.9 833.1750000000001 L 1065.9 1338.075 L 561 1338.075 Z" stroke-opacity="1" stroke-miterlimit="10" stroke-width="3" stroke-dasharray=""/><path fill="none" stroke="rgb(0,43,255)" paint-order="fill stroke markers" d=" M 565 840.0123865579835 L 1061.9 840.0123865579835 L 1061.9 1338.075 L 565 1331.2376134420165 Z" stroke-opacity="1" stroke-miterlimit="10" stroke-width="3" stroke-dasharray=""/><path fill="none" stroke="rgb(0,43,255)" paint-order="fill stroke markers" d=" M 569 846.8497731159671 L 1057.9 846.8497731159671 L 1057.9 1338.075 L 569 1324.4002268840331 Z" stroke-opacity="1" stroke-miterlimit="10" stroke-width="3" stroke-dasharray=""/><path fill="none" stroke="rgb(0,43,255)" paint-order="fill stroke markers" d=" M 573 853.6871596739505 L 1053.9 853.6871596739505 L 1053.9 1338.075 L 573 1317.5628403260496 Z" stroke-opacity="1" stroke-miterlimit="10" stroke-width="3" stroke-dasharray=""/><path fill="none" stroke="rgb(0,43,255)" paint-order="fill stroke markers" d=" M 577 860.5245462319341 L 1049.9 860.5245462319341 L 1049.9 1338.075 L 577 1310.725453768066 Z" stroke-opacity="1" stroke-miterlimit="10" stroke-width="3" stroke-dasharray=""/><path fill="none" stroke="rgb(0,43,255)" paint-order="fill stroke markers" d=" M 581 867.3619327899175 L 1045.9 867.3619327899175 L 1045.9 1338.075 L 581 1303.8880672100825 Z" stroke-opacity="1" stroke-miterlimit="10" stroke-width="3" stroke-dasharray=""/><path fill="none" stroke="rgb(0,43,255)" paint-order="fill stroke markers" d=" M 585 874.1993193479011 L 1041.9 874.1993193479011 L 1041.9 1338.075 L 585 1297.0506806520991 Z" stroke-opacity="1" stroke-miterlimit="10" stroke-width="3" stroke-dasharray=""/><path fill="none" stroke="rgb(0,43,255)" paint-order="fill stroke markers" d=" M 589 881.0367059058846 L 1037.9 881.0367059058846 L 1037.9 1338.075 L 589 1290.2132940941156 Z" stroke-opacity="1" stroke-miterlimit="10" stroke-width="3" stroke-dasharray=""/><path fill="none" stroke="rgb(0,43,255)" paint-order="fill stroke markers" d=" M 593 887.8740924638681 L 1033.9 887.8740924638681 L 1033.9 1338.075 L 593 1283.375907536132 Z" stroke-opacity="1" stroke-miterlimit="10" stroke-width="3" stroke-dasharray=""/><path fill="none" stroke="rgb(0,43,255)" paint-order="fill stroke markers" d=" M 597 894.7114790218516 L 1029.9 894.7114790218516 L 1029.9 1338.075 L 597 1276.5385209781484 Z" stroke-opacity="1" stroke-miterlimit="10" stroke-width="3" stroke-dasharray=""/><path fill="none" stroke="rgb(0,43,255)" paint-order="fill stroke markers" d=" M 601 901.5488655798351 L 1025.9 901.5488655798351 L 1025.9 1338.075 L 601 1269.701134420165 Z" stroke-opacity="1" stroke-miterlimit="10" stroke-width="3" stroke-dasharray=""/><path fill="none" stroke="rgb(0,43,255)" paint-order="fill stroke markers" d=" M 605 908.3862521378186 L 1021.9000000000001 908.3862521378186 L 1021.9000000000001 1338.075 L 605 1262.8637478621815 Z" stroke-opacity="1" stroke-miterlimit="10" stroke-width="3" stroke-dasharray=""/><path fill="none" stroke="rgb(0,43,255)" paint-order="fill stroke markers" d=" M 609 915.2236386958022 L 1017.9000000000001 915.2236386958022 L 1017.9000000000001 1338.075 L 609 1256.026361304198 Z" stroke-opacity="1" stroke-miterlimit="10" stroke-width="3" stroke-dasharray=""/><path fill="none" stroke="rgb(0,43,255)" paint-order="fill stroke markers" d=" M 613 922.0610252537856 L 1013.9000000000001 922.0610252537856 L 1013.9000000000001 1338.075 L 613 1249.1889747462144 Z" stroke-opacity="1" stroke-miterlimit="10" stroke-width="3" stroke-dasharray=""/><path fill="none" stroke="rgb(0,43,255)" paint-order="fill stroke markers" d=" M 617 928.8984118117692 L 1009.9000000000001 928.8984118117692 L 1009.9000000000001 1338.075 L 617 1242.351588188231 Z" stroke-opacity="1" stroke-miterlimit="10" stroke-width="3" stroke-dasharray=""/><path fill="none" stroke="rgb(0,43,255)" paint-order="fill stroke markers" d=" M 621 935.7357983697526 L 1005.9000000000001 935.7357983697526 L 1005.9000000000001 1338.075 L 621 1235.5142016302475 Z" stroke-opacity="1" stroke-miterlimit="10" stroke-width="3" stroke-dasharray=""/><path fill="none" stroke="rgb(0,43,255)" paint-order="fill stroke markers" d=" M 625 942.5731849277361 L 1001.9000000000001 942.5731849277361 L 1001.9000000000001 1338.075 L 625 1228.676815072264 Z" stroke-opacity="1" stroke-miterlimit="10" stroke-width="3" stroke-dasharray=""/><path fill="none" stroke="rgb(0,43,255)" paint-order="fill stroke markers" d=" M 629 949.4105714857196 L 997.9000000000001 949.4105714857196 L 997.9000000000001 1338.075 L 629 1221.8394285142804 Z" stroke-opacity="1" stroke-miterlimit="10" stroke-width="3" stroke-dasharray=""/><path fill="none" stroke="rgb(0,43,255)" paint-order="fill stroke markers" d=" M 633 956.2479580437032 L 993.9000000000001 956.2479580437032 L 993.9000000000001 1338.075 L 633 1215.002041956297 Z" stroke-opacity="1" stroke-miterlimit="10" stroke-width="3" stroke-dasharray=""/><path fill="none" stroke="rgb(0,43,255)" paint-order="fill stroke markers" d=" M 637 963.0853446016866 L 989.9000000000001 963.0853446016866 L 989.9000000000001 1338.075 L 637 1208.1646553983135 Z" stroke-opacity="1" stroke-miterlimit="10" stroke-width="3" stroke-dasharray=""/><path fill="none" stroke="rgb(0,43,255)" paint-order="fill stroke markers" d=" M 641 969.9227311596701 L 985.9000000000001 969.9227311596701 L 985.9000000000001 1338.075 L 641 1201.32726884033 Z" stroke-opacity="1" stroke-miterlimit="10" stroke-width="3" stroke-dasharray=""/><path fill="none" stroke="rgb(0,43,255)" paint-order="fill stroke markers" d=" M 645 976.7601177176537 L 981.9000000000001 976.7601177176537 L 981.9000000000001 1338.075 L 645 1194.4898822823466 Z" stroke-opacity="1" stroke-miterlimit="10" stroke-width="3" stroke-dasharray=""/><path fill="none" stroke="rgb(0,43,255)" paint-order="fill stroke markers" d=" M 649 983.5975042756371 L 977.9000000000001 983.5975042756371 L 977.9000000000001 1338.075 L 649 1187.652495724363 Z" stroke-opacity="1" stroke-miterlimit="10" stroke-width="3" stroke-dasharray=""/><path fill="none" stroke="rgb(0,43,255)" paint-order="fill stroke markers" d=" M 653 990.4348908336207 L 973.9000000000001 990.4348908336207 L 973.9000000000001 1338.075 L 653 1180.8151091663794 Z" stroke-opacity="1" stroke-miterlimit="10" stroke-width="3" stroke-dasharray=""/><path fill="none" stroke="rgb(0,43,255)" paint-order="fill stroke markers" d=" M 657 997.2722773916041 L 969.9000000000001 997.2722773916041 L 969.9000000000001 1338.075 L 657 1173.9777226083959 Z" stroke-opacity="1" stroke-miterlimit="10" stroke-width="3" stroke-dasharray=""/><path fill="none" stroke="rgb(0,43,255)" paint-order="fill stroke markers" d=" M 661 1004.1096639495877 L 965.9000000000001 1004.1096639495877 L 965.9000000000001 1338.075 L 661 1167.1403360504125 Z" stroke-opacity="1" stroke-miterlimit="10" stroke-width="3" stroke-dasharray=""/><path fill="none" stroke="rgb(0,43,255)" paint-order="fill stroke markers" d=" M 665 1010.9470505075711 L 961.9000000000001 1010.9470505075711 L 961.9000000000001 1338.075 L 665 1160.302949492429 Z" stroke-opacity="1" stroke-miterlimit="10" stroke-width="3" stroke-dasharray=""/><path fill="none" stroke="rgb(0,43,255)" paint-order="fill stroke markers" d=" M 669 1017.7844370655547 L 957.9000000000001 1017.7844370655547 L 957.9000000000001 1338.075 L 669 1153.4655629344454 Z" stroke-opacity="1" stroke-miterlimit="10" stroke-width="3" stroke-dasharray=""/><path fill="none" stroke="rgb(0,43,255)" paint-order="fill stroke markers" d=" M 673 1024.6218236235381 L 953.9000000000001 1024.6218236235381 L 953.9000000000001 1338.075 L 673 1146.6281763764619 Z" stroke-opacity="1" stroke-miterlimit="10" stroke-width="3" stroke-dasharray=""/><path fill="none" stroke="rgb(0,43,255)" paint-order="fill stroke markers" d=" M 677 1031.4592101815217 L 949.9000000000001 1031.4592101815217 L 949.9000000000001 1338.075 L 677 1139.7907898184785 Z" stroke-opacity="1" stroke-miterlimit="10" stroke-width="3" stroke-dasharray=""/><path fill="none" stroke="rgb(0,43,255)" paint-order="fill stroke markers" d=" M 681 1038.2965967395053 L 945.9000000000001 1038.2965967395053 L 945.9000000000001 1338.075 L 681 1132.953403260495 Z" stroke-opacity="1" stroke-miterlimit="10" stroke-width="3" stroke-dasharray=""/><path fill="none" stroke="rgb(0,43,255)" paint-order="fill stroke markers" d=" M 685 1045.1339832974886 L 941.9000000000001 1045.1339832974886 L 941.9000000000001 1338.075 L 685 1126.1160167025114 Z" stroke-opacity="1" stroke-miterlimit="10" stroke-width="3" stroke-dasharray=""/><path fill="none" stroke="rgb(0,43,255)" paint-order="fill stroke markers" d=" M 689 1051.9713698554722 L 937.9000000000001 1051.9713698554722 L 937.9000000000001 1338.075 L 689 1119.278630144528 Z" stroke-opacity="1" stroke-miterlimit="10" stroke-width="3" stroke-dasharray=""/><path fill="none" stroke="rgb(0,43,255)" paint-order="fill stroke markers" d=" M 693 1058.8087564134557 L 933.9000000000001 1058.8087564134557 L 933.9000000000001 1338.075 L 693 1112.4412435865445 Z" stroke-opacity="1" stroke-miterlimit="10" stroke-width="3" stroke-dasharray=""/><path fill="none" stroke="rgb(0,43,255)" paint-order="fill stroke markers" d=" M 697 1065.646142971439 L 929.9000000000001 1065.646142971439 L 929.9000000000001 1338.075 L 697 1105.603857028561 Z" stroke-opacity="1" stroke-miterlimit="10" stroke-width="3" stroke-dasharray=""/><path fill="none" stroke="rgb(0,43,255)" paint-order="fill stroke markers" d=" M 701 1072.4835295294226 L 925.9000000000001 1072.4835295294226 L 925.9000000000001 1338.075 L 701 1098.7664704705774 Z" stroke-opacity="1" stroke-miterlimit="10" stroke-width="3" stroke-dasharray=""/><path fill="none" stroke="rgb(0,43,255)" paint-order="fill stroke markers" d=" M 705 1079.3209160874062 L 921.9000000000001 1079.3209160874062 L 921.9000000000001 1338.075 L 705 1091.9290839125938 Z" stroke-opacity="1" stroke-miterlimit="10" stroke-width="3" stroke-dasharray=""/><path fill="none" stroke="rgb(0,43,255)" paint-order="fill stroke markers" d=" M 709 1086.1583026453898 L 917.9000000000001 1086.1583026453898 L 917.9000000000001 1338.075 L 709 1085.0916973546105 Z" stroke-opacity="1" stroke-miterlimit="10" stroke-width="3" stroke-dasharray=""/><path fill="none" stroke="rgb(0,43,255)" paint-order="fill stroke markers" d=" M 713 1092.9956892033733 L 913.9000000000001 1092.9956892033733 L 913.9000000000001 1338.075 L 713 1078.254310796627 Z" stroke-opacity="1" stroke-miterlimit="10" stroke-width="3" stroke-dasharray=""/><path fill="none" stroke="rgb(0,43,255)" paint-order="fill stroke markers" d=" M 717 1099.8330757613567 L 909.9000000000001 1099.8330757613567 L 909.9000000000001 1338.075 L 717 1071.4169242386433 Z" stroke-opacity="1" stroke-miterlimit="10" stroke-width="3" stroke-dasharray=""/><path fill="none" stroke="rgb(0,43,255)" paint-order="fill stroke markers" d=" M 721 1106.6704623193402 L 905.9000000000001 1106.6704623193402 L 905.9000000000001 1338.075 L 721 1064.57953768066 Z" stroke-opacity="1" stroke-miterlimit="10" stroke-width="3" stroke-dasharray=""/><path fill="none" stroke="rgb(0,43,255)" paint-order="fill stroke markers" d=" M 725 1113.5078488773238 L 901.9000000000001 1113.5078488773238 L 901.9000000000001 1338.075 L 725 1057.7421511226764 Z" stroke-opacity="1" stroke-miterlimit="10" stroke-width="3" stroke-dasharray=""/><path fill="none" stroke="rgb(0,43,255)" paint-order="fill stroke markers" d=" M 729 1120.3452354353071 L 897.9000000000001 1120.3452354353071 L 897.9000000000001 1338.075 L 729 1050.9047645646929 Z" stroke-opacity="1" stroke-miterlimit="10" stroke-width="3" stroke-dasharray=""/><path fill="none" stroke="rgb(0,43,255)" paint-order="fill stroke markers" d=" M 733 1127.1826219932907 L 893.9000000000001 1127.1826219932907 L 893.9000000000001 1338.075 L 733 1044.0673780067095 Z" stroke-opacity="1" stroke-miterlimit="10" stroke-width="3" stroke-dasharray=""/><path fill="none" stroke="rgb(0,43,255)" paint-order="fill stroke markers" d=" M 737 1134.0200085512743 L 889.9000000000001 1134.0200085512743 L 889.9000000000001 1338.075 L 737 1037.229991448726 Z" stroke-opacity="1" stroke-miterlimit="10" stroke-width="3" stroke-dasharray=""/><path fill="none" stroke="rgb(0,43,255)" paint-order="fill stroke markers" d=" M 741 1140.8573951092576 L 885.9000000000001 1140.8573951092576 L 885.9000000000001 1338.075 L 741 1030.3926048907424 Z" stroke-opacity="1" stroke-miterlimit="10" stroke-width="3" stroke-dasharray=""/><path fill="none" stroke="rgb(0,43,255)" paint-order="fill stroke markers" d=" M 745 1147.6947816672412 L 881.9000000000001 1147.6947816672412 L 881.9000000000001 1338.075 L 745 1023.5552183327588 Z" stroke-opacity="1" stroke-miterlimit="10" stroke-width="3" stroke-dasharray=""/><path fill="none" stroke="rgb(0,43,255)" paint-order="fill stroke markers" d=" M 749 1154.5321682252247 L 877.9000000000001 1154.5321682252247 L 877.9000000000001 1338.075 L 749 1016.7178317747754 Z" stroke-opacity="1" stroke-miterlimit="10" stroke-width="3" stroke-dasharray=""/><path fill="none" stroke="rgb(0,43,255)" paint-order="fill stroke markers" d=" M 753 1161.3695547832083 L 873.9000000000001 1161.3695547832083 L 873.9000000000001 1338.075 L 753 1009.8804452167919 Z" stroke-opacity="1" stroke-miterlimit="10" stroke-width="3" stroke-dasharray=""/><path fill="none" stroke="rgb(0,43,255)" paint-order="fill stroke markers" d=" M 757 1168.2069413411919 L 869.9000000000001 1168.2069413411919 L 869.9000000000001 1338.075 L 757 1003.0430586588084 Z" stroke-opacity="1" stroke-miterlimit="10" stroke-width="3" stroke-dasharray=""/><path fill="none" stroke="rgb(0,43,255)" paint-order="fill stroke markers" d=" M 761 1175.0443278991752 L 865.9000000000001 1175.0443278991752 L 865.9000000000001 1338.075 L 761 996.2056721008248 Z" stroke-opacity="1" stroke-miterlimit="10" stroke-width="3" stroke-dasharray=""/><path fill="none" stroke="rgb(0,43,255)" paint-order="fill stroke markers" d=" M 765 1181.8817144571588 L 861.9000000000001 1181.8817144571588 L 861.9000000000001 1338.075 L 765 989.3682855428414 Z" stroke-opacity="1" stroke-miterlimit="10" stroke-width="3" stroke-dasharray=""/><path fill="none" stroke="rgb(0,43,255)" paint-order="fill stroke markers" d=" M 769 1188.7191010151423 L 857.9000000000001 1188.7191010151423 L 857.9000000000001 1338.075 L 769 982.5308989848579 Z" stroke-opacity="1" stroke-miterlimit="10" stroke-width="3" stroke-dasharray=""/><path fill="none" stroke="rgb(0,43,255)" paint-order="fill stroke markers" d=" M 773 1195.5564875731257 L 853.9000000000001 1195.5564875731257 L 853.9000000000001 1338.075 L 773 975.6935124268743 Z" stroke-opacity="1" stroke-miterlimit="10" stroke-width="3" stroke-dasharray=""/><path fill="none" stroke="rgb(0,43,255)" paint-order="fill stroke markers" d=" M 777 1202.3938741311092 L 849.9000000000001 1202.3938741311092 L 849.9000000000001 1338.075 L 777 968.8561258688908 Z" stroke-opacity="1" stroke-miterlimit="10" stroke-width="3" stroke-dasharray=""/><path fill="none" stroke="rgb(0,43,255)" paint-order="fill stroke markers" d=" M 781 1209.2312606890928 L 845.9000000000001 1209.2312606890928 L 845.9000000000001 1338.075 L 781 962.0187393109073 Z" stroke-opacity="1" stroke-miterlimit="10" stroke-width="3" stroke-dasharray=""/><path fill="none" stroke="rgb(0,43,255)" paint-order="fill stroke markers" d=" M 785 1216.0686472470761 L 841.9000000000001 1216.0686472470761 L 841.9000000000001 1338.075 L 785 955.1813527529239 Z" stroke-opacity="1" stroke-miterlimit="10" stroke-width="3" stroke-dasharray=""/><path fill="none" stroke="rgb(0,43,255)" paint-order="fill stroke markers" d=" M 789 1222.9060338050597 L 837.9000000000001 1222.9060338050597 L 837.9000000000001 1338.075 L 789 948.3439661949403 Z" stroke-opacity="1" stroke-miterlimit="10" stroke-width="3" stroke-dasharray=""/><path fill="none" stroke="rgb(0,43,255)" paint-order="fill stroke markers" d=" M 793 1229.7434203630432 L 833.9000000000001 1229.7434203630432 L 833.9000000000001 1338.075 L 793 941.5065796369569 Z" stroke-opacity="1" stroke-miterlimit="10" stroke-width="3" stroke-dasharray=""/><path fill="none" stroke="rgb(0,43,255)" paint-order="fill stroke markers" d=" M 797 1236.5808069210268 L 829.9000000000001 1236.5808069210268 L 829.9000000000001 1338.075 L 797 934.6691930789734 Z" stroke-opacity="1" stroke-miterlimit="10" stroke-width="3" stroke-dasharray=""/><path fill="none" stroke="rgb(0,43,255)" paint-order="fill stroke markers" d=" M 801 1243.4181934790104 L 825.9000000000001 1243.4181934790104 L 825.9000000000001 1338.075 L 801 927.8318065209899 Z" stroke-opacity="1" stroke-miterlimit="10" stroke-width="3" stroke-dasharray=""/><path fill="none" stroke="rgb(0,43,255)" paint-order="fill stroke markers" d=" M 805 1250.2555800369937 L 821.9000000000001 1250.2555800369937 L 821.9000000000001 1338.075 L 805 920.9944199630063 Z" stroke-opacity="1" stroke-miterlimit="10" stroke-width="3" stroke-dasharray=""/><path fill="none" stroke="rgb(0,43,255)" paint-order="fill stroke markers" d=" M 809 1257.0929665949773 L 817.9000000000001 1257.0929665949773 L 817.9000000000001 1338.075 L 809 914.1570334050228 Z" stroke-opacity="1" stroke-miterlimit="10" stroke-width="3" stroke-dasharray=""/><path fill="none" stroke="rgb(0,43,255)" paint-order="fill stroke markers" d=" M 813 1263.9303531529608 L 813.9000000000001 1263.9303531529608 L 813.9000000000001 1338.075 L 813 907.3196468470394 Z" stroke-opacity="1" stroke-miterlimit="10" stroke-width="3" stroke-dasharray=""/></g></svg>