<svg version="1.1" xmlns="http://www.w3.org/2000/svg" xmlns:xlink="http://www.w3.org/1999/xlink" width="744" height="1053" viewBox="0 0 744 1053"><defs/><g><rect fill="rgb(0,0,0)" stroke="none" x="0" y="0" width="744" height="1053" transform="matrix(1 0 0 1 0 0)" fill-opacity="1"/><path fill="none" stroke="rgb(255,255,255)" paint-order="fill stroke markers" d=" M 47 48 L 547 48 L 547 698 L 47 698 Z" stroke-opacity="1" stroke-miterlimit="10" stroke-dasharray=""/><path fill="none" stroke="rgb(255,255,255)" paint-order="fill stroke markers" d=" M 57 65.14032534420988 L 537 65.14032534420988 L 547 680.8596746557901 L 57 680.8596746557901 Z" stroke-opacity="1" stroke-miterlimit="10" stroke-dasharray=""/><path fill="none" stroke="rgb(255,255,255)" paint-order="fill stroke markers" d=" M 67 82.28065068841978 L 527 82.28065068841978 L 547 663.7193493115802 L 67 663.7193493115802 Z" stroke-opacity="1" stroke-miterlimit="10" stroke-dasharray=""/><path fill="none" stroke="rgb(255,255,255)" paint-order="fill stroke markers" d=" M 77 99.42097603262967 L 517 99.42097603262967 L 547 646.5790239673703 L 77 646.5790239673703 Z" stroke-opacity="1" stroke-miterlimit="10" stroke-dasharray=""/><path fill="none" stroke="rgb(255,255,255)" paint-order="fill stroke markers" d=" M 87 116.56130137683957 L 507 116.56130137683957 L 547 629.4386986231605 L 87 629.4386986231605 Z" stroke-opacity="1" stroke-miterlimit="10" stroke-dasharray=""/><path fill="none" stroke="rgb(255,255,255)" paint-order="fill stroke markers" d=" M 97 133.70162672104945 L 497 133.70162672104945 L 547 612.2983732789505 L 97 612.2983732789505 Z" stroke-opacity="1" stroke-miterlimit="10" stroke-dasharray=""/><path fill="none" stroke="rgb(255,255,255)" paint-order="fill stroke markers" d=" M 107 150.84195206525933 L 487 150.84195206525933 L 547 595.1580479347407 L 107 595.1580479347407 Z" stroke-opacity="1" stroke-miterlimit="10" stroke-dasharray=""/><path fill="none" stroke="rgb(255,255,255)" paint-order="fill stroke markers" d=" M 117 167.98227740946925 L 477 167.98227740946925 L 547 578.0177225905308 L 117 578.0177225905308 Z" stroke-opacity="1" stroke-miterlimit="10" stroke-dasharray=""/><path fill="none" stroke="rgb(255,255,255)" paint-order="fill stroke markers" d=" M 127 185.12260275367913 L 467 185.12260275367913 L 547 560.8773972463209 L 127 560.8773972463209 Z" stroke-opacity="1" stroke-miterlimit="10" stroke-dasharray=""/><path fill="none" stroke="rgb(255,255,255)" paint-order="fill stroke markers" d=" M 137 202.26292809788902 L 457 202.26292809788902 L 547 543.737071902111 L 137 543.737071902111 Z" stroke-opacity="1" stroke-miterlimit="10" stroke-dasharray=""/><path fill="none" stroke="rgb(255,255,255)" paint-order="fill stroke markers" d=" M 147 219.4032534420989 L 447 219.4032534420989 L 547 526.596746557901 L 147 526.596746557901 Z" stroke-opacity="1" stroke-miterlimit="10" stroke-dasharray=""/><path fill="none" stroke="rgb(255,255,255)" paint-order="fill stroke markers" d=" M 157 236.54357878630879 L 437 236.54357878630879 L 547 509.4564212136912 L 157 509.4564212136912 Z" stroke-opacity="1" stroke-miterlimit="10" stroke-dasharray=""/><path fill="none" stroke="rgb(255,255,255)" paint-order="fill stroke markers" d=" M 167 253.68390413051867 L 427 253.68390413051867 L 547 492.31609586948133 L 167 492.31609586948133 Z" stroke-opacity="1" stroke-miterlimit="10" stroke-dasharray=""/><path fill="none" stroke="rgb(255,255,255)" paint-order="fill stroke markers" d=" M 177 270.82422947472855 L 417 270.82422947472855 L 547 475.17577052527145 L 177 475.17577052527145 Z" stroke-opacity="1" stroke-miterlimit="10" stroke-dasharray=""/><path fill="none" stroke="rgb(255,255,255)" paint-order="fill stroke markers" d=" M 187 287.9645548189385 L 407 287.9645548189385 L 547 458.0354451810615 L 187 458.0354451810615 Z" stroke-opacity="1" stroke-miterlimit="10" stroke-dasharray=""/><path fill="none" stroke="rgb(255,255,255)" paint-order="fill stroke markers" d=" M 197 305.1048801631484 L 397 305.1048801631484 L 547 440.8951198368516 L 197 440.8951198368516 Z" stroke-opacity="1" stroke-miterlimit="10" stroke-dasharray=""/><path fill="none" stroke="rgb(255,255,255)" paint-order="fill stroke markers" d=" M 207 322.24520550735826 L 387 322.24520550735826 L 547 423.75479449264174 L 207 423.75479449264174 Z" stroke-opacity="1" stroke-miterlimit="10" stroke-dasharray=""/><path fill="none" stroke="rgb(255,255,255)" paint-order="fill stroke markers" d=" M 217 339.38553085156815 L 377 339.38553085156815 L 547 406.61446914843185 L 217 406.61446914843185 Z" stroke-opacity="1" stroke-miterlimit="10" stroke-dasharray=""/><path fill="none" stroke="rgb(255,255,255)" paint-order="fill stroke markers" d=" M 227 356.52585619577803 L 367 356.52585619577803 L 547 389.47414380422197 L 227 389.47414380422197 Z" stroke-opacity="1" stroke-miterlimit="10" stroke-dasharray=""/><path fill="none" stroke="rgb(255,255,255)" paint-order="fill stroke markers" d=" M 237 373.6661815399879 L 357 373.6661815399879 L 547 372.3338184600121 L 237 372.3338184600121 Z" stroke-opacity="1" stroke-miterlimit="10" stroke-dasharray=""/><path fill="none" stroke="rgb(255,255,255)" paint-order="fill stroke markers" d=" M 247 390.8065068841978 L 347 390.8065068841978 L 547 355.1934931158022 L 247 355.1934931158022 Z" stroke-opacity="1" stroke-miterlimit="10" stroke-dasharray=""/><path fill="none" stroke="rgb(255,255,255)" paint-order="fill stroke markers" d=" M 257 407.9468322284077 L 337 407.9468322284077 L 547 338.0531677715923 L 257 338.0531677715923 Z" stroke-opacity="1" stroke-miterlimit="10" stroke-dasharray=""/><path fill="none" stroke="rgb(255,255,255)" paint-order="fill stroke markers" d=" M 267 425.08715757261757 L 327 425.08715757261757 L 547 320.91284242738243 L 267 320.91284242738243 Z" stroke-opacity="1" stroke-miterlimit="10" stroke-dasharray=""/><path fill="none" stroke="rgb(255,255,255)" paint-order="fill stroke markers" d=" M 277 442.22748291682746 L 317 442.22748291682746 L 547 303.77251708317254 L 277 303.77251708317254 Z" stroke-opacity="1" stroke-miterlimit="10" stroke-dasharray=""/><path fill="none" stroke="rgb(255,255,255)" paint-order="fill stroke markers" d=" M 287 459.36780826103734 L 307 459.36780826103734 L 547 286.63219173896266 L 287 286.63219173896266 Z" stroke-opacity="1" stroke-miterlimit="10" stroke-dasharray=""/><path fill="none" stroke="rgb(255,255,255)" paint-order="fill stroke markers" d=" M 547 48 L 697 48 L 697 698 L 547 698 Z" stroke-opacity="1" stroke-miterlimit="10" stroke-dasharray=""/><path fill="none" stroke="rgb(255,255,255)" paint-order="fill stroke markers" d=" M 556 65.30867650371786 L 688 65.30867650371786 L 688 698 L 556 680.6913234962822 Z" stroke-opacity="1" stroke-miterlimit="10" stroke-dasharray=""/><path fill="none" stroke="rgb(255,255,255)" paint-order="fill stroke markers" d=" M 565 82.61735300743572 L 679 82.61735300743572 L 679 698 L 565 663.3826469925643 Z" stroke-opacity="1" stroke-miterlimit="10" stroke-dasharray=""/><path fill="none" stroke="rgb(255,255,255)" paint-order="fill stroke markers" d=" M 574 99.92602951115359 L 670 99.92602951115359 L 670 698 L 574 646.0739704888464 Z" stroke-opacity="1" stroke-miterlimit="10" stroke-dasharray=""/><path fill="none" stroke="rgb(255,255,255)" paint-order="fill stroke markers" d=" M 583 117.23470601487145 L 661 117.23470601487145 L 661 698 L 583 628.7652939851286 Z" stroke-opacity="1" stroke-miterlimit="10" stroke-dasharray=""/><path fill="none" stroke="rgb(255,255,255)" paint-order="fill stroke markers" d=" M 592 134.5433825185893 L 652 134.5433825185893 L 652 698 L 592 611.4566174814107 Z" stroke-opacity="1" stroke-miterlimit="10" stroke-dasharray=""/><path fill="none" stroke="rgb(255,255,255)" paint-order="fill stroke markers" d=" M 601 151.85205902230717 L 643 151.85205902230717 L 643 698 L 601 594.1479409776928 Z" stroke-opacity="1" stroke-miterlimit="10" stroke-dasharray=""/><path fill="none" stroke="rgb(255,255,255)" paint-order="fill stroke markers" d=" M 610 169.16073552602504 L 634 169.16073552602504 L 634 698 L 610 576.8392644739749 Z" stroke-opacity="1" stroke-miterlimit="10" stroke-dasharray=""/><path fill="none" stroke="rgb(255,255,255)" paint-order="fill stroke markers" d=" M 619 186.4694120297429 L 625 186.4694120297429 L 625 698 L 619 559.5305879702571 Z" stroke-opacity="1" stroke-miterlimit="10" stroke-dasharray=""/><path fill="none" stroke="rgb(255,255,255)" paint-order="fill stroke markers" d=" M 547 698 L 697 698 L 697 998 L 547 998 Z" stroke-opacity="1" stroke-miterlimit="10" stroke-dasharray=""/><path fill="none" stroke="rgb(255,255,255)" paint-order="fill stroke markers" d=" M 557 710.9322553945048 L 687 710.9322553945048 L 687 985.0677446054952 L 547 985.0677446054952 Z" stroke-opacity="1" stroke-miterlimit="10" stroke-dasharray=""/><path fill="none" stroke="rgb(255,255,255)" paint-order="fill stroke markers" d=" M 567 723.8645107890094 L 677 723.8645107890094 L 677 972.1354892109906 L 547 972.1354892109906 Z" stroke-opacity="1" stroke-miterlimit="10" stroke-dasharray=""/><path fill="none" stroke="rgb(255,255,255)" paint-order="fill stroke markers" d=" M 577 736.7967661835141 L 667 736.7967661835141 L 667 959.2032338164859 L 547 959.2032338164859 Z" stroke-opacity="1" stroke-miterlimit="10" stroke-dasharray=""/><path fill="none" stroke="rgb(255,255,255)" paint-order="fill stroke markers" d=" M 587 749.7290215780189 L 657 749.7290215780189 L 657 946.2709784219811 L 547 946.2709784219811 Z" stroke-opacity="1" stroke-miterlimit="10" stroke-dasharray=""/><path fill="none" stroke="rgb(255,255,255)" paint-order="fill stroke markers" d=" M 597 762.6612769725235 L 647 762.6612769725235 L 647 933.3387230274765 L 547 933.3387230274765 Z" stroke-opacity="1" stroke-miterlimit="10" stroke-dasharray=""/><path fill="none" stroke="rgb(255,255,255)" paint-order="fill stroke markers" d=" M 607 775.5935323670283 L 637 775.5935323670283 L 637 920.4064676329717 L 547 920.4064676329717 Z" stroke-opacity="1" stroke-miterlimit="10" stroke-dasharray=""/><path fill="none" stroke="rgb(255,255,255)" paint-order="fill stroke markers" d=" M 617 788.5257877615329 L 627 788.5257877615329 L 627 907.4742122384671 L 547 907.4742122384671 Z" stroke-opacity="1" stroke-miterlimit="10" stroke-dasharray=""/><path fill="none" stroke="rgb(255,255,255)" paint-order="fill stroke markers" d=" M 47 698 L 547 698 L 547 998 L 47 998 Z" stroke-opacity="1" stroke-miterlimit="10" stroke-dasharray=""/><path fill="none" stroke="rgb(255,255,255)" paint-order="fill stroke markers" d=" M 56 710.7449284050027 L 538 710.7449284050027 L 538 985.2550715949973 L 47 985.2550715949973 Z" stroke-opacity="1" stroke-miterlimit="10" stroke-dasharray=""/><path fill="none" stroke="rgb(255,255,255)" paint-order="fill stroke markers" d=" M 65 723.4898568100054 L 529 723.4898568100054 L 529 972.5101431899946 L 47 972.5101431899946 Z" stroke-opacity="1" stroke-miterlimit="10" stroke-dasharray=""/><path fill="none" stroke="rgb(255,255,255)" paint-order="fill stroke markers" d=" M 74 736.2347852150082 L 520 736.2347852150082 L 520 959.7652147849918 L 47 959.7652147849918 Z" stroke-opacity="1" stroke-miterlimit="10" stroke-dasharray=""/><path fill="none" stroke="rgb(255,255,255)" paint-order="fill stroke markers" d=" M 83 748.9797136200109 L 511 748.9797136200109 L 511 947.0202863799891 L 47 947.0202863799891 Z" stroke-opacity="1" stroke-miterlimit="10" stroke-dasharray=""/><path fill="none" stroke="rgb(255,255,255)" paint-order="fill stroke markers" d=" M 92 761.7246420250136 L 502 761.7246420250136 L 502 934.2753579749864 L 47 934.2753579749864 Z" stroke-opacity="1" stroke-miterlimit="10" stroke-dasharray=""/><path fill="none" stroke="rgb(255,255,255)" paint-order="fill stroke markers" d=" M 101 774.4695704300163 L 493 774.4695704300163 L 493 921.5304295699837 L 47 921.5304295699837 Z" stroke-opacity="1" stroke-miterlimit="10" stroke-dasharray=""/><path fill="none" stroke="rgb(255,255,255)" paint-order="fill stroke markers" d=" M 110 787.2144988350191 L 484 787.2144988350191 L 484 908.7855011649809 L 47 908.7855011649809 Z" stroke-opacity="1" stroke-miterlimit="10" stroke-dasharray=""/><path fill="none" stroke="rgb(255,255,255)" paint-order="fill stroke markers" d=" M 119 799.9594272400218 L 475 799.9594272400218 L 475 896.0405727599782 L 47 896.0405727599782 Z" stroke-opacity="1" stroke-miterlimit="10" stroke-dasharray=""/><path fill="none" stroke="rgb(255,255,255)" paint-order="fill stroke markers" d=" M 128 812.7043556450246 L 466 812.7043556450246 L 466 883.2956443549754 L 47 883.2956443549754 Z" stroke-opacity="1" stroke-miterlimit="10" stroke-dasharray=""/><path fill="none" stroke="rgb(255,255,255)" paint-order="fill stroke markers" d=" M 137 825.4492840500274 L 457 825.4492840500274 L 457 870.5507159499726 L 47 870.5507159499726 Z" stroke-opacity="1" stroke-miterlimit="10" stroke-dasharray=""/><path fill="none" stroke="rgb(255,255,255)" paint-order="fill stroke markers" d=" M 146 838.1942124550301 L 448 838.1942124550301 L 448 857.8057875449699 L 47 857.8057875449699 Z" stroke-opacity="1" stroke-miterlimit="10" stroke-dasharray=""/><path fill="none" stroke="rgb(255,255,255)" paint-order="fill stroke markers" d=" M 155 850.9391408600328 L 439 850.9391408600328 L 439 845.0608591399672 L 47 845.0608591399672 Z" stroke-opacity="1" stroke-miterlimit="10" stroke-dasharray=""/><path fill="none" stroke="rgb(255,255,255)" paint-order="fill stroke markers" d=" M 164 863.6840692650355 L 430 863.6840692650355 L 430 832.3159307349645 L 47 832.3159307349645 Z" stroke-opacity="1" stroke-miterlimit="10" stroke-dasharray=""/><path fill="none" stroke="rgb(255,255,255)" paint-order="fill stroke markers" d=" M 173 876.4289976700383 L 421 876.4289976700383 L 421 819.5710023299617 L 47 819.5710023299617 Z" stroke-opacity="1" stroke-miterlimit="10" stroke-dasharray=""/><path fill="none" stroke="rgb(255,255,255)" paint-order="fill stroke markers" d=" M 182 889.173926075041 L 412 889.173926075041 L 412 806.826073924959 L 47 806.826073924959 Z" stroke-opacity="1" stroke-miterlimit="10" stroke-dasharray=""/><path fill="none" stroke="rgb(255,255,255)" paint-order="fill stroke markers" d=" M 191 901.9188544800437 L 403 901.9188544800437 L 403 794.0811455199563 L 47 794.0811455199563 Z" stroke-opacity="1" stroke-miterlimit="10" stroke-dasharray=""/><path fill="none" stroke="rgb(255,255,255)" paint-order="fill stroke markers" d=" M 200 914.6637828850464 L 394 914.6637828850464 L 394 781.3362171149536 L 47 781.3362171149536 Z" stroke-opacity="1" stroke-miterlimit="10" stroke-dasharray=""/><path fill="none" stroke="rgb(255,255,255)" paint-order="fill stroke markers" d=" M 209 927.4087112900492 L 385 927.4087112900492 L 385 768.5912887099508 L 47 768.5912887099508 Z" stroke-opacity="1" stroke-miterlimit="10" stroke-dasharray=""/><path fill="none" stroke="rgb(255,255,255)" paint-order="fill stroke markers" d=" M 218 940.1536396950519 L 376 940.1536396950519 L 376 755.8463603049481 L 47 755.8463603049481 Z" stroke-opacity="1" stroke-miterlimit="10" stroke-dasharray=""/><path fill="none" stroke="rgb(255,255,255)" paint-order="fill stroke markers" d=" M 227 952.8985681000546 L 367 952.8985681000546 L 367 743.1014318999454 L 47 743.1014318999454 Z" stroke-opacity="1" stroke-miterlimit="10" stroke-dasharray=""/><path fill="none" stroke="rgb(255,255,255)" paint-order="fill stroke markers" d=" M 236 965.6434965050573 L 358 965.6434965050573 L 358 730.3565034949427 L 47 730.3565034949427 Z" stroke-opacity="1" stroke-miterlimit="10" stroke-dasharray=""/><path fill="none" stroke="rgb(255,255,255)" paint-order="fill stroke markers" d=" M 245 978.3884249100602 L 349 978.3884249100602 L 349 717.6115750899398 L 47 717.6115750899398 Z" stroke-opacity="1" stroke-miterlimit="10" stroke-dasharray=""/><path fill="none" stroke="rgb(255,255,255)" paint-order="fill stroke markers" d=" M 254 991.1333533150628 L 340 991.1333533150628 L 340 704.8666466849372 L 47 704.8666466849372 Z" stroke-opacity="1" stroke-miterlimit="10" stroke-dasharray=""/><path fill="none" stroke="rgb(255,255,255)" paint-order="fill stroke markers" d=" M 263 1003.8782817200656 L 331 1003.8782817200656 L 331 692.1217182799344 L 47 692.1217182799344 Z" stroke-opacity="1" stroke-miterlimit="10" stroke-dasharray=""/><path fill="none" stroke="rgb(255,255,255)" paint-order="fill stroke markers" d=" M 272 1016.6232101250682 L 322 1016.6232101250682 L 322 679.3767898749318 L 47 679.3767898749318 Z" stroke-opacity="1" stroke-miterlimit="10" stroke-dasharray=""/><path fill="none" stroke="rgb(255,255,255)" paint-order="fill stroke markers" d=" M 281 1029.368138530071 L 313 1029.368138530071 L 313 666.6318614699289 L 47 666.6318614699289 Z" stroke-opacity="1" stroke-miterlimit="10" stroke-dasharray=""/><path fill="none" stroke="rgb(255,255,255)" paint-order="fill stroke markers" d=" M 290 1042.1130669350737 L 304 1042.1130669350737 L 304 653.8869330649263 L 47 653.8869330649263 Z" stroke-opacity="1" stroke-miterlimit="10" stroke-dasharray=""/></g></svg>