<svg height="1122.51969" viewBox="0.00000 0.00000 793.70079 1122.51969" width="793.70079" xmlns="http://www.w3.org/2000/svg" xmlns:cc="http://creativecommons.org/ns" xmlns:dc="http://purl.org/dc/elements/1.1/" xmlns:inkscape="http://www.inkscape.org/namespaces/inkscape" xmlns:rdf="http://www.w3.org/1999/02/22-rdf-syntax-ns">
<metadata>
<rdf:RDF>
<cc:Work>
<dc:format>
image/svg+xml
</dc:format>
</cc:Work>
</rdf:RDF>
</metadata>
<g id="layer0" inkscape:groupmode="layer" inkscape:label="">
<path d="M318.82568,475.31473 L356.62097,475.31473 L356.62097,513.11 L318.82568,513.11 z" fill="none" stroke="#000000" stroke-width="1.3"/>
<path d="M318.9825,539.7016 L356.67038,542.5492 L353.82278,580.23706 L316.13495,577.38947 z" fill="none" stroke="#000000" stroke-width="1.3"/>
<path d="M334.128,599.2585 L370.03665,587.4665 L381.82864,623.3752 L345.92,635.1672 z" fill="none" stroke="#000000" stroke-width="1.3"/>
<path d="M379.29813,475.31473 L417.0934,475.31473 L417.0934,513.11 L379.29813,513.11 z" fill="none" stroke="#000000" stroke-width="1.3"/>
<path d="M392.35547,543.20514 L429.88495,547.6796 L425.4105,585.2091 L387.881,580.7346 z" fill="none" stroke="#000000" stroke-width="1.3"/>
<path d="M398.7126,610.579 L435.33856,601.2504 L444.6671,637.8764 L408.04114,647.20496 z" fill="none" stroke="#000000" stroke-width="1.3"/>
<path d="M439.77057,475.31473 L477.56586,475.31473 L477.56586,513.11 L439.77057,513.11 z" fill="none" stroke="#000000" stroke-width="1.3"/>
<path d="M435.85062,542.721 L473.64447,543.0489 L473.31653,580.8428 L435.52267,580.51483 z" fill="none" stroke="#000000" stroke-width="1.3"/>
<path d="M425.54816,588.9886 L463.1435,592.8712 L459.2609,630.4665 L421.66556,626.5839 z" fill="none" stroke="#000000" stroke-width="1.3"/>
</g>
</svg>