<?xml version="1.0" encoding="utf-8" ?>
<svg xmlns="http://www.w3.org/2000/svg" xmlns:cc="http://creativecommons.org/ns" xmlns:dc="http://purl.org/dc/elements/1.1/" xmlns:ev="http://www.w3.org/2001/xml-events" xmlns:inkscape="http://www.inkscape.org/namespaces/inkscape" xmlns:rdf="http://www.w3.org/1999/02/22-rdf-syntax-ns" xmlns:sodipodi="http://sodipodi.sourceforge.net/DTD/sodipodi-0.dtd" xmlns:xlink="http://www.w3.org/1999/xlink" baseProfile="tiny" height="13.99645833cm" version="1.2" viewBox="0 0 529.0 529.0" width="13.99645833cm">
  <metadata>
    <rdf:RDF>
      <cc:Work>
        <dc:format>image/svg+xml</dc:format>
        <dc:source>vpype read --attr stroke gaspe007.svg forlayer write gaspe007_layer%_lid%.svg end
</dc:source>
        <dc:date>2024-05-27T16:47:51.377981</dc:date>
      </cc:Work>
    </rdf:RDF>
  </metadata>
  <defs/>
  <g fill="none" id="layer4" inkscape:groupmode="layer" inkscape:label="4" stroke="#000000" stroke-width="1.0" style="display:inline">
    <polygon points="26.38,516.785 26.0483,516.9433 25.6733,517.0383 25.255,517.07 24.8258,517.0442 24.4183,516.9667 24.0325,516.8375 23.675,516.6617 23.3525,516.4442 23.065,516.185 22.815,515.8875 22.605,515.555 22.435,515.1875 22.31,514.79 22.235,514.3675 22.21,513.92 22.235,513.4733 22.31,513.0533 22.435,512.66 22.605,512.2975 22.815,511.97 23.065,511.6775 23.3525,511.4225 23.675,511.2075 24.0325,511.0325 24.4183,510.9033 24.8258,510.8258 25.255,510.8 25.6825,510.8225 26.085,510.89 26.4625,511.0025 26.9725,511.2444 27.4075,511.565 27.76,511.9625 28.0225,512.435 28.1433,512.7867 28.2158,513.1617 28.24,513.56 28.24,516.89 28.24,513.56 28.2158,513.1617 28.1433,512.7867 28.0225,512.435 27.76,511.9625 27.4075,511.565 26.9725,511.2444 26.4625,511.0025 26.085,510.89 25.6825,510.8225 25.255,510.8 24.8258,510.8258 24.4183,510.9033 24.0325,511.0325 23.675,511.2075 23.3525,511.4225 23.065,511.6775 22.815,511.97 22.605,512.2975 22.435,512.66 22.31,513.0533 22.235,513.4733 22.21,513.92 22.235,514.3675 22.31,514.79 22.435,515.1875 22.605,515.555 22.815,515.8875 23.065,516.185 23.3525,516.4442 23.675,516.6617 24.0325,516.8375 24.4183,516.9667 24.8258,517.0442 25.255,517.07 25.6733,517.0383 26.0483,516.9433"/>
    <polygon points="31.165,516.89 31.165,507.71"/>
    <polygon points="34.69,516.755 34.7575,516.59 34.915,516.53 35.0725,516.59 35.14,516.755 35.0725,516.92 34.915,516.98 34.7575,516.92"/>
    <polygon points="34.69,516.755 34.7575,516.92 34.915,516.98 35.0725,516.92 35.14,516.755 35.0725,516.59 34.915,516.53 34.7575,516.59"/>
    <polygon points="38.395,516.89 38.395,512.81 38.4306,512.3806 38.5375,511.9925 38.9425,511.37 39.5575,510.9725 39.9269,510.8656 40.33,510.83 40.7973,510.8684 41.2094,510.9837 41.5661,511.1759 41.8675,511.445 42.107,511.7825 42.2781,512.18 42.3808,512.6375 42.415,513.155 42.415,516.89 42.415,513.155 42.4492,512.6375 42.5519,512.18 42.723,511.7825 42.9625,511.445 43.2639,511.1759 43.6206,510.9837 44.0327,510.8684 44.5,510.83 44.9031,510.8656 45.2725,510.9725 45.88,511.37 46.285,511.9925 46.3975,512.3806 46.435,512.81 46.435,516.89 46.435,512.81 46.3975,512.3806 46.285,511.9925 45.88,511.37 45.2725,510.9725 44.9031,510.8656 44.5,510.83 44.0327,510.8684 43.6206,510.9837 43.2639,511.1759 42.9625,511.445 42.723,511.7825 42.5519,512.18 42.4492,512.6375 42.415,513.155 42.415,516.89 42.415,513.155 42.3808,512.6375 42.2781,512.18 42.107,511.7825 41.8675,511.445 41.5661,511.1759 41.2094,510.9837 40.7973,510.8684 40.33,510.83 39.9269,510.8656 39.5575,510.9725 38.9425,511.37 38.5375,511.9925 38.4306,512.3806 38.395,512.81"/>
    <polygon points="51.58,520.115 51.58,517.07"/>
    <polygon points="49.24,511.055 49.24,514.67 49.2775,515.1612 49.39,515.615 49.5756,516.0219 49.8325,516.3725 50.1606,516.6612 50.56,516.8825 51.0325,517.0231 51.58,517.07 52.1275,517.0231 52.6,516.8825 52.9994,516.6612 53.3275,516.3725 53.5844,516.0219 53.77,515.615 53.8825,515.1612 53.92,514.67 53.92,511.055 53.92,514.67 53.8825,515.1612 53.77,515.615 53.5844,516.0219 53.3275,516.3725 52.9994,516.6612 52.6,516.8825 52.1275,517.0231 51.58,517.07 51.0325,517.0231 50.56,516.8825 50.1606,516.6612 49.8325,516.3725 49.5756,516.0219 49.39,515.615 49.2775,515.1612 49.24,514.67"/>
    <polygon points="57.19,516.755 57.2575,516.59 57.415,516.53 57.5725,516.59 57.64,516.755 57.5725,516.92 57.415,516.98 57.2575,516.92"/>
    <polygon points="57.19,516.755 57.2575,516.92 57.415,516.98 57.5725,516.92 57.64,516.755 57.5725,516.59 57.415,516.53 57.2575,516.59"/>
    <polygon points="60.82,516.89 60.82,514.07 60.8392,513.5458 60.8967,513.0733 60.9925,512.6525 61.1969,512.1125 61.465,511.6775 61.7912,511.3419 62.17,511.1 62.59,510.9388 63.04,510.845 62.59,510.9388 62.17,511.1 61.7912,511.3419 61.465,511.6775 61.1969,512.1125 60.9925,512.6525 60.8967,513.0733 60.8392,513.5458 60.82,514.07"/>
    <polygon points="60.82,516.89 60.82,511.01"/>
    <polygon points="70.795,514.91 70.6507,515.3153 70.4698,515.6792 70.2523,516.0017 69.9982,516.2828 69.7075,516.5225 69.3862,516.7196 69.0403,516.8729 68.6698,516.9824 68.2747,517.0481 67.855,517.07 67.4258,517.045 67.0183,516.97 66.6325,516.845 66.275,516.6742 65.9525,516.4617 65.665,516.2075 65.4142,515.9142 65.2017,515.5842 65.0275,515.2175 64.8983,514.82 64.8208,514.3975 64.795,513.95 64.8208,513.5025 64.8983,513.08 65.0275,512.6825 65.2017,512.3158 65.4142,511.9858 65.665,511.6925 65.9525,511.4383 66.275,511.2258 66.6325,511.055 67.0183,510.93 67.4258,510.855 67.855,510.83 68.2867,510.8553 68.6969,510.9312 69.0855,511.0578 69.4525,511.235 69.8767,511.535 70.1992,511.895 70.42,512.315 66.79,514.325 70.42,512.315 70.1992,511.895 69.8767,511.535 69.4525,511.235 69.0855,511.0578 68.6969,510.9312 68.2867,510.8553 67.855,510.83 67.4258,510.855 67.0183,510.93 66.6325,511.055 66.275,511.2258 65.9525,511.4383 65.665,511.6925 65.4142,511.9858 65.2017,512.3158 65.0275,512.6825 64.8983,513.08 64.8208,513.5025 64.795,513.95 64.8208,514.3975 64.8983,514.82 65.0275,515.2175 65.2017,515.5842 65.4142,515.9142 65.665,516.2075 65.9525,516.4617 66.275,516.6742 66.6325,516.845 67.0183,516.97 67.4258,517.045 67.855,517.07 68.2747,517.0481 68.6698,516.9824 69.0403,516.8729 69.3862,516.7196 69.7075,516.5225 69.9982,516.2828 70.2523,516.0017 70.4698,515.6792 70.6507,515.3153"/>
    <polygon points="78.04,516.755 78.1075,516.5975 78.265,516.53 78.4225,516.5975 78.49,516.755 78.4225,516.9125 78.265,516.98 78.1075,516.9125"/>
    <polygon points="78.04,512.435 78.1075,512.27 78.265,512.21 78.4225,512.27 78.49,512.435 78.4225,512.5925 78.265,512.66 78.1075,512.5925"/>
    <polygon points="78.04,512.435 78.1075,512.5925 78.265,512.66 78.4225,512.5925 78.49,512.435 78.4225,512.27 78.265,512.21 78.1075,512.27"/>
    <polygon points="78.04,516.755 78.1075,516.9125 78.265,516.98 78.4225,516.9125 78.49,516.755 78.4225,516.5975 78.265,516.53 78.1075,516.5975"/>
    <polygon points="82.21,516.755 82.2775,516.5975 82.435,516.53 82.5925,516.5975 82.66,516.755 82.5925,516.9125 82.435,516.98 82.2775,516.9125"/>
    <polygon points="82.21,512.435 82.2775,512.27 82.435,512.21 82.5925,512.27 82.66,512.435 82.5925,512.5925 82.435,512.66 82.2775,512.5925"/>
    <polygon points="82.21,512.435 82.2775,512.5925 82.435,512.66 82.5925,512.5925 82.66,512.435 82.5925,512.27 82.435,512.21 82.2775,512.27"/>
    <polygon points="82.21,516.755 82.2775,516.9125 82.435,516.98 82.5925,516.9125 82.66,516.755 82.5925,516.5975 82.435,516.53 82.2775,516.5975"/>
    <polygon points="89.95,520.19 89.95,514.28 89.9742,513.75 90.0467,513.26 90.1675,512.81 90.3317,512.4033 90.5342,512.0433 90.775,511.73 91.0525,511.4625 91.365,511.24 91.7125,511.0625 92.09,510.9333 92.4925,510.8558 92.92,510.83 93.34,510.8533 93.74,510.9233 94.12,511.04 94.4742,511.2025 94.7967,511.41 95.0875,511.6625 95.3433,511.9583 95.5608,512.2958 95.74,512.675 95.8733,513.0933 95.9533,513.5483 95.98,514.04 95.9542,514.4858 95.8767,514.9033 95.7475,515.2925 95.5742,515.6483 95.3642,515.9658 95.1175,516.245 94.6862,516.5919 94.1875,516.8525 93.8267,516.9733 93.4542,517.0458 93.07,517.07 92.6083,517.045 92.1833,516.97 91.795,516.845 92.1833,516.97 92.6083,517.045 93.07,517.07 93.4542,517.0458 93.8267,516.9733 94.1875,516.8525 94.6863,516.5919 95.1175,516.245 95.3642,515.9658 95.5742,515.6483 95.7475,515.2925 95.8767,514.9033 95.9542,514.4858 95.98,514.04 95.9533,513.5483 95.8733,513.0933 95.74,512.675 95.5608,512.2958 95.3433,511.9583 95.0875,511.6625 94.7967,511.41 94.4742,511.2025 94.12,511.04 93.74,510.9233 93.34,510.8533 92.92,510.83 92.4925,510.8558 92.09,510.9333 91.7125,511.0625 91.365,511.24 91.0525,511.4625 90.775,511.73 90.5342,512.0433 90.3317,512.4033 90.1675,512.81 90.0467,513.26 89.9742,513.75 89.95,514.28"/>
    <polygon points="98.53,516.89 101.5,516.89 101.9613,516.8525 102.415,516.74 102.8425,516.5525 103.225,516.29 103.5513,515.9469 103.81,515.5175 103.935,515.1817 104.01,514.8042 104.035,514.385 104.0053,513.8888 103.9162,513.4442 103.7677,513.0512 103.5598,512.7098 103.2925,512.42 103.0223,512.2183 102.7067,512.0533 102.3456,511.925 101.9392,511.8333 101.4873,511.7783 100.99,511.76 99.04,511.76 99.04,507.71 103.15,507.71 99.04,507.71 99.04,511.76 100.99,511.76 101.4873,511.7783 101.9392,511.8333 102.3456,511.925 102.7067,512.0533 103.0223,512.2183 103.2925,512.42 103.5598,512.7098 103.7677,513.0512 103.9162,513.4442 104.0053,513.8888 104.035,514.385 104.01,514.8042 103.935,515.1817 103.81,515.5175 103.5513,515.9469 103.225,516.29 102.8425,516.5525 102.415,516.74 101.9613,516.8525 101.5,516.89"/>
    <polygon points="107.23,516.755 107.2975,516.59 107.455,516.53 107.6125,516.59 107.68,516.755 107.6125,516.92 107.455,516.98 107.2975,516.92"/>
    <polygon points="107.23,516.755 107.2975,516.92 107.455,516.98 107.6125,516.92 107.68,516.755 107.6125,516.59 107.455,516.53 107.2975,516.59"/>
    <polygon points="109.225,520.145 109.945,520.0475 110.5825,519.7325 110.8356,519.455 111.04,519.0875 111.175,518.6131 111.22,518.015 111.22,511.01 111.22,518.015 111.175,518.6131 111.04,519.0875 110.8356,519.455 110.5825,519.7325 109.945,520.0475"/>
    <polygon points="111.085,508.745 111.22,508.61 111.355,508.745 111.325,508.835 111.22,508.88 111.115,508.835"/>
    <polygon points="111.085,508.745 111.115,508.835 111.22,508.88 111.325,508.835 111.355,508.745 111.22,508.61"/>
    <polygon points="113.95,516.89 116.98,516.89 117.4483,516.8567 117.8333,516.7567 118.135,516.59 118.4275,516.185 118.525,515.57 118.4406,515.0994 118.1875,514.7375 117.8088,514.4562 117.3475,514.2275 117.0025,514.0992 116.6375,513.9842 116.2525,513.8825 115.8675,513.7817 115.5025,513.6692 115.1575,513.545 114.6963,513.3256 114.3175,513.0575 114.0644,512.7144 113.98,512.27 114.115,511.6175 114.4825,511.235 115.015,511.055 115.63,511.01 118.195,511.01 115.63,511.01 115.015,511.055 114.4825,511.235 114.115,511.6175 113.98,512.27 114.0644,512.7144 114.3175,513.0575 114.6963,513.3256 115.1575,513.545 115.5025,513.6692 115.8675,513.7817 116.2525,513.8825 116.6375,513.9842 117.0025,514.0992 117.3475,514.2275 117.8088,514.4562 118.1875,514.7375 118.4406,515.0994 118.525,515.57 118.4275,516.185 118.135,516.59 117.8333,516.7567 117.4483,516.8567 116.98,516.89"/>
    <polygon points="125.56,516.755 125.6275,516.5975 125.785,516.53 125.9425,516.5975 126.01,516.755 125.9425,516.9125 125.785,516.98 125.6275,516.9125"/>
    <polygon points="125.56,512.435 125.6275,512.27 125.785,512.21 125.9425,512.27 126.01,512.435 125.9425,512.5925 125.785,512.66 125.6275,512.5925"/>
    <polygon points="125.56,512.435 125.6275,512.5925 125.785,512.66 125.9425,512.5925 126.01,512.435 125.9425,512.27 125.785,512.21 125.6275,512.27"/>
    <polygon points="125.56,516.755 125.6275,516.9125 125.785,516.98 125.9425,516.9125 126.01,516.755 125.9425,516.5975 125.785,516.53 125.6275,516.5975"/>
    <polygon points="129.73,516.755 129.7975,516.5975 129.955,516.53 130.1125,516.5975 130.18,516.755 130.1125,516.9125 129.955,516.98 129.7975,516.9125"/>
    <polygon points="129.73,512.435 129.7975,512.27 129.955,512.21 130.1125,512.27 130.18,512.435 130.1125,512.5925 129.955,512.66 129.7975,512.5925"/>
    <polygon points="129.73,512.435 129.7975,512.5925 129.955,512.66 130.1125,512.5925 130.18,512.435 130.1125,512.27 129.955,512.21 129.7975,512.27"/>
    <polygon points="129.73,516.755 129.7975,516.9125 129.955,516.98 130.1125,516.9125 130.18,516.755 130.1125,516.5975 129.955,516.53 129.7975,516.5975"/>
    <polygon points="142.675,516.89 141.835,516.89 141.4319,516.8712 141.0325,516.815 140.6369,516.7212 140.245,516.59 139.8653,516.4222 139.5062,516.2188 139.1678,515.9797 138.85,515.705 138.557,515.3956 138.2931,515.0525 138.0583,514.6756 137.8525,514.265 137.7148,513.9128 137.6077,513.5402 137.5312,513.1472 137.4853,512.7338 137.47,512.3 137.4897,511.8875 137.5487,511.475 137.6472,511.0625 137.785,510.65 137.9612,510.2483 138.175,509.8681 138.4262,509.5095 138.715,509.1725 139.0403,508.8617 139.4012,508.5819 139.7978,508.333 140.23,508.115 140.6008,507.9692 140.9932,507.8558 141.4072,507.7748 141.8428,507.7262 142.3,507.71 142.675,507.71 142.3,507.71 141.8428,507.7262 141.4072,507.7748 140.9932,507.8558 140.6008,507.9692 140.23,508.115 139.7978,508.333 139.4012,508.5819 139.0403,508.8617 138.715,509.1725 138.4262,509.5095 138.175,509.8681 137.9612,510.2483 137.785,510.65 137.6472,511.0625 137.5488,511.475 137.4897,511.8875 137.47,512.3 137.4853,512.7338 137.5312,513.1472 137.6077,513.5402 137.7148,513.9128 137.8525,514.265 138.0583,514.6756 138.2931,515.0525 138.557,515.3956 138.85,515.705 139.1678,515.9797 139.5062,516.2188 139.8653,516.4222 140.245,516.59 140.6369,516.7212 141.0325,516.815 141.4319,516.8712 141.835,516.89"/>
    <polygon points="148.93,516.785 148.5983,516.9433 148.2233,517.0383 147.805,517.07 147.3758,517.0442 146.9683,516.9667 146.5825,516.8375 146.225,516.6617 145.9025,516.4442 145.615,516.185 145.365,515.8875 145.155,515.555 144.985,515.1875 144.86,514.79 144.785,514.3675 144.76,513.92 144.785,513.4733 144.86,513.0533 144.985,512.66 145.155,512.2975 145.365,511.97 145.615,511.6775 145.9025,511.4225 146.225,511.2075 146.5825,511.0325 146.9683,510.9033 147.3758,510.8258 147.805,510.8 148.2325,510.8225 148.635,510.89 149.0125,511.0025 149.5225,511.2444 149.9575,511.565 150.31,511.9625 150.5725,512.435 150.6933,512.7867 150.7658,513.1617 150.79,513.56 150.79,516.89 150.79,513.56 150.7658,513.1617 150.6933,512.7867 150.5725,512.435 150.31,511.9625 149.9575,511.565 149.5225,511.2444 149.0125,511.0025 148.635,510.89 148.2325,510.8225 147.805,510.8 147.3758,510.8258 146.9683,510.9033 146.5825,511.0325 146.225,511.2075 145.9025,511.4225 145.615,511.6775 145.365,511.97 145.155,512.2975 144.985,512.66 144.86,513.0533 144.785,513.4733 144.76,513.92 144.785,514.3675 144.86,514.79 144.985,515.1875 145.155,515.555 145.365,515.8875 145.615,516.185 145.9025,516.4442 146.225,516.6617 146.5825,516.8375 146.9683,516.9667 147.3758,517.0442 147.805,517.07 148.2233,517.0383 148.5983,516.9433"/>
    <polygon points="153.445,516.89 153.445,512.81 153.4806,512.3806 153.5875,511.9925 153.9925,511.37 154.6075,510.9725 154.9769,510.8656 155.38,510.83 155.8473,510.8684 156.2594,510.9837 156.6161,511.1759 156.9175,511.445 157.157,511.7825 157.3281,512.18 157.4308,512.6375 157.465,513.155 157.465,516.89 157.465,513.155 157.4992,512.6375 157.6019,512.18 157.773,511.7825 158.0125,511.445 158.3139,511.1759 158.6706,510.9837 159.0827,510.8684 159.55,510.83 159.9531,510.8656 160.3225,510.9725 160.93,511.37 161.335,511.9925 161.4475,512.3806 161.485,512.81 161.485,516.89 161.485,512.81 161.4475,512.3806 161.335,511.9925 160.93,511.37 160.3225,510.9725 159.9531,510.8656 159.55,510.83 159.0827,510.8684 158.6706,510.9837 158.3139,511.1759 158.0125,511.445 157.773,511.7825 157.6019,512.18 157.4992,512.6375 157.465,513.155 157.465,516.89 157.465,513.155 157.4308,512.6375 157.3281,512.18 157.157,511.7825 156.9175,511.445 156.6161,511.1759 156.2594,510.9837 155.8473,510.8684 155.38,510.83 154.9769,510.8656 154.6075,510.9725 153.9925,511.37 153.5875,511.9925 153.4806,512.3806 153.445,512.81"/>
    <polygon points="166.375,516.89 167.65,516.89 168.0794,516.8656 168.5275,516.7925 168.9681,516.6537 169.375,516.4325 169.7313,516.1212 170.02,515.7125 170.1617,515.3783 170.2467,514.9858 170.275,514.535 170.2356,514.0194 170.1175,513.5525 169.9113,513.1419 169.6075,512.795 169.2025,512.5137 168.6925,512.3 168.29,512.2 167.8325,512.14 167.32,512.12 166.375,512.12 167.32,512.12 167.7475,512.0975 168.13,512.03 168.4675,511.9175 168.895,511.685 169.2325,511.3925 169.4856,511.0494 169.66,510.665 169.7613,510.2562 169.795,509.84 169.7538,509.375 169.63,508.94 169.4219,508.5462 169.1275,508.205 168.7506,507.9237 168.295,507.71 167.9483,507.61 167.5683,507.55 167.155,507.53 166.7067,507.5567 166.3017,507.6367 165.94,507.77 165.475,508.0438 165.1,508.385 164.815,508.7844 164.62,509.2325 164.5075,509.7031 164.47,510.17 164.47,516.89 164.47,510.17 164.5075,509.7031 164.62,509.2325 164.815,508.7844 165.1,508.385 165.475,508.0437 165.94,507.77 166.3017,507.6367 166.7067,507.5567 167.155,507.53 167.5683,507.55 167.9483,507.61 168.295,507.71 168.7506,507.9237 169.1275,508.205 169.4219,508.5462 169.63,508.94 169.7538,509.375 169.795,509.84 169.7613,510.2562 169.66,510.665 169.4856,511.0494 169.2325,511.3925 168.895,511.685 168.4675,511.9175 168.13,512.03 167.7475,512.0975 167.32,512.12 166.375,512.12 167.32,512.12 167.8325,512.14 168.29,512.2 168.6925,512.3 169.2025,512.5138 169.6075,512.795 169.9113,513.1419 170.1175,513.5525 170.2356,514.0194 170.275,514.535 170.2467,514.9858 170.1617,515.3783 170.02,515.7125 169.7313,516.1212 169.375,516.4325 168.9681,516.6537 168.5275,516.7925 168.0794,516.8656 167.65,516.89"/>
    <polygon points="176.44,516.785 176.1083,516.9433 175.7333,517.0383 175.315,517.07 174.8858,517.0442 174.4783,516.9667 174.0925,516.8375 173.735,516.6617 173.4125,516.4442 173.125,516.185 172.875,515.8875 172.665,515.555 172.495,515.1875 172.37,514.79 172.295,514.3675 172.27,513.92 172.295,513.4733 172.37,513.0533 172.495,512.66 172.665,512.2975 172.875,511.97 173.125,511.6775 173.4125,511.4225 173.735,511.2075 174.0925,511.0325 174.4783,510.9033 174.8858,510.8258 175.315,510.8 175.7425,510.8225 176.145,510.89 176.5225,511.0025 177.0325,511.2444 177.4675,511.565 177.82,511.9625 178.0825,512.435 178.2033,512.7867 178.2758,513.1617 178.3,513.56 178.3,516.89 178.3,513.56 178.2758,513.1617 178.2033,512.7867 178.0825,512.435 177.82,511.9625 177.4675,511.565 177.0325,511.2444 176.5225,511.0025 176.145,510.89 175.7425,510.8225 175.315,510.8 174.8858,510.8258 174.4783,510.9033 174.0925,511.0325 173.735,511.2075 173.4125,511.4225 173.125,511.6775 172.875,511.97 172.665,512.2975 172.495,512.66 172.37,513.0533 172.295,513.4733 172.27,513.92 172.295,514.3675 172.37,514.79 172.495,515.1875 172.665,515.555 172.875,515.8875 173.125,516.185 173.4125,516.4442 173.735,516.6617 174.0925,516.8375 174.4783,516.9667 174.8858,517.0442 175.315,517.07 175.7333,517.0383 176.1083,516.9433"/>
    <polygon points="180.955,516.89 180.955,512.81 180.9906,512.3806 181.0975,511.9925 181.5025,511.37 182.1175,510.9725 182.4869,510.8656 182.89,510.83 183.3573,510.8684 183.7694,510.9837 184.1261,511.1759 184.4275,511.445 184.667,511.7825 184.8381,512.18 184.9408,512.6375 184.975,513.155 184.975,516.89 184.975,513.155 185.0092,512.6375 185.1119,512.18 185.283,511.7825 185.5225,511.445 185.8239,511.1759 186.1806,510.9837 186.5927,510.8684 187.06,510.83 187.4631,510.8656 187.8325,510.9725 188.44,511.37 188.845,511.9925 188.9575,512.3806 188.995,512.81 188.995,516.89 188.995,512.81 188.9575,512.3806 188.845,511.9925 188.44,511.37 187.8325,510.9725 187.4631,510.8656 187.06,510.83 186.5927,510.8684 186.1806,510.9837 185.8239,511.1759 185.5225,511.445 185.283,511.7825 185.1119,512.18 185.0092,512.6375 184.975,513.155 184.975,516.89 184.975,513.155 184.9408,512.6375 184.8381,512.18 184.667,511.7825 184.4275,511.445 184.1261,511.1759 183.7694,510.9837 183.3573,510.8684 182.89,510.83 182.4869,510.8656 182.1175,510.9725 181.5025,511.37 181.0975,511.9925 180.9906,512.3806 180.955,512.81"/>
    <polygon points="195.58,516.89 198.655,516.89 199.142,516.8591 199.5831,516.7662 199.9783,516.6116 200.3275,516.395 200.613,516.11 200.8169,515.75 200.9392,515.315 200.98,514.805 200.9367,514.3608 200.8067,513.9683 200.59,513.6275 200.3083,513.3258 199.9833,513.0508 199.615,512.8025 199.2133,512.575 198.7883,512.3625 198.34,512.165 197.8917,511.9692 197.4667,511.7617 197.065,511.5425 196.6967,511.3058 196.3717,511.0458 196.09,510.7625 195.8733,510.4433 195.7433,510.0758 195.7,509.66 195.7825,509.0225 196.09,508.3925 196.36,508.1244 196.72,507.905 197.1888,507.7588 197.785,507.71 200.56,507.71 197.785,507.71 197.1888,507.7588 196.72,507.905 196.36,508.1244 196.09,508.3925 195.7825,509.0225 195.7,509.66 195.7433,510.0758 195.8733,510.4433 196.09,510.7625 196.3717,511.0458 196.6967,511.3058 197.065,511.5425 197.4667,511.7617 197.8917,511.9692 198.34,512.165 198.7883,512.3625 199.2133,512.575 199.615,512.8025 199.9833,513.0508 200.3083,513.3258 200.59,513.6275 200.8067,513.9683 200.9367,514.3608 200.98,514.805 200.9392,515.315 200.8169,515.75 200.613,516.11 200.3275,516.395 199.9783,516.6116 199.5831,516.7662 199.142,516.8591 198.655,516.89"/>
    <polygon points="203.605,510.98 206.185,510.98"/>
    <polygon points="206.185,516.89 205.165,516.89 204.7183,516.85 204.3383,516.73 204.025,516.53 203.7917,516.2333 203.6517,515.8233 203.605,515.3 203.605,509.21 203.605,515.3 203.6517,515.8233 203.7917,516.2333 204.025,516.53 204.3383,516.73 204.7183,516.85 205.165,516.89"/>
    <polygon points="209.14,511.01 209.14,516.89"/>
    <polygon points="209.005,508.745 209.14,508.61 209.275,508.745 209.245,508.835 209.14,508.88 209.035,508.835"/>
    <polygon points="209.005,508.745 209.035,508.835 209.14,508.88 209.245,508.835 209.275,508.745 209.14,508.61"/>
    <polygon points="216.085,516.89 215.605,516.89 215.1933,516.8667 214.7983,516.7967 214.42,516.68 214.0658,516.5208 213.7433,516.3233 213.4525,516.0875 213.1967,515.8142 212.9792,515.5042 212.8,515.1575 212.6667,514.78 212.5867,514.3775 212.56,513.95 212.5875,513.5225 212.67,513.12 212.8075,512.7425 212.99,512.395 213.2075,512.0825 213.46,511.805 213.8912,511.4581 214.375,511.1975 214.8925,511.0344 215.425,510.98 216.085,510.98 215.425,510.98 214.8925,511.0344 214.375,511.1975 213.8912,511.4581 213.46,511.805 213.2075,512.0825 212.99,512.395 212.8075,512.7425 212.67,513.12 212.5875,513.5225 212.56,513.95 212.5867,514.3775 212.6667,514.78 212.8,515.1575 212.9792,515.5042 213.1967,515.8142 213.4525,516.0875 213.7433,516.3233 214.0658,516.5208 214.42,516.68 214.7983,516.7967 215.1933,516.8667 215.605,516.89"/>
    <polygon points="220.66,513.65 218.5,513.65 220.66,513.65 221.1517,513.7033 221.5867,513.8633 221.965,514.13 222.1947,514.3962 222.3588,514.715 222.4572,515.0862 222.49,515.51 222.49,516.89 222.49,515.51 222.4572,515.0862 222.3588,514.715 222.1947,514.3962 221.965,514.13 221.5867,513.8633 221.1517,513.7033"/>
    <polygon points="219.715,513.65 218.5,513.65 219.715,513.65 220.4425,513.5375 220.975,513.2375 221.3725,512.7875 221.725,512.225 222.43,511.01 221.725,512.225 221.3725,512.7875 220.975,513.2375 220.4425,513.5375"/>
    <polygon points="218.5,516.89 218.5,507.71"/>
    <polygon points="231.52,519.53 230.23,519.53 230.23,507.71 231.52,507.71 230.23,507.71 230.23,519.53"/>
    <polygon points="236.125,520.13 236.5366,520.2219 236.9313,520.2875 237.3091,520.3269 237.67,520.34 238.1942,520.3125 238.6667,520.23 239.0875,520.0925 239.4592,519.9075 239.7842,519.6825 240.0625,519.4175 240.295,519.1167 240.4825,518.7842 240.625,518.42 240.725,518.0317 240.785,517.6267 240.805,517.205 240.805,513.92 240.7733,513.5075 240.6983,513.11 240.58,512.7275 240.4217,512.3683 240.2267,512.0408 239.995,511.745 239.7275,511.4842 239.425,511.2617 239.0875,511.0775 238.7183,510.94 238.3208,510.8575 237.895,510.83 237.475,510.8542 237.075,510.9267 236.695,511.0475 236.3417,511.2142 236.0217,511.4242 235.735,511.6775 235.4842,511.9742 235.2717,512.3142 235.0975,512.6975 234.9683,513.12 234.8908,513.5775 234.865,514.07 234.8925,514.515 234.975,514.93 235.1125,515.315 235.2958,515.6667 235.5158,515.9817 235.7725,516.26 236.0642,516.5 236.3892,516.7 236.7475,516.86 237.13,516.9767 237.5275,517.0467 237.94,517.07 238.4575,517.025 238.96,516.89 238.4575,517.025 237.94,517.07 237.5275,517.0467 237.13,516.9767 236.7475,516.86 236.3892,516.7 236.0642,516.5 235.7725,516.26 235.5158,515.9817 235.2958,515.6667 235.1125,515.315 234.975,514.93 234.8925,514.515 234.865,514.07 234.8908,513.5775 234.9683,513.12 235.0975,512.6975 235.2717,512.3142 235.4842,511.9742 235.735,511.6775 236.0217,511.4242 236.3417,511.2142 236.695,511.0475 237.075,510.9267 237.475,510.8542 237.895,510.83 238.3208,510.8575 238.7183,510.94 239.0875,511.0775 239.425,511.2617 239.7275,511.4842 239.995,511.745 240.2267,512.0408 240.4217,512.3683 240.58,512.7275 240.6983,513.11 240.7733,513.5075 240.805,513.92 240.805,517.205 240.785,517.6267 240.725,518.0317 240.625,518.42 240.4825,518.7842 240.295,519.1167 240.0625,519.4175 239.7842,519.6825 239.4592,519.9075 239.0875,520.0925 238.6667,520.23 238.1942,520.3125 237.67,520.34 237.3091,520.3269 236.9313,520.2875 236.5366,520.2219"/>
    <polygon points="247.285,516.785 246.9533,516.9433 246.5783,517.0383 246.16,517.07 245.7308,517.0442 245.3233,516.9667 244.9375,516.8375 244.58,516.6617 244.2575,516.4442 243.97,516.185 243.72,515.8875 243.51,515.555 243.34,515.1875 243.215,514.79 243.14,514.3675 243.115,513.92 243.14,513.4733 243.215,513.0533 243.34,512.66 243.51,512.2975 243.72,511.97 243.97,511.6775 244.2575,511.4225 244.58,511.2075 244.9375,511.0325 245.3233,510.9033 245.7308,510.8258 246.16,510.8 246.5875,510.8225 246.99,510.89 247.3675,511.0025 247.8775,511.2444 248.3125,511.565 248.665,511.9625 248.9275,512.435 249.0483,512.7867 249.1208,513.1617 249.145,513.56 249.145,516.89 249.145,513.56 249.1208,513.1617 249.0483,512.7867 248.9275,512.435 248.665,511.9625 248.3125,511.565 247.8775,511.2444 247.3675,511.0025 246.99,510.89 246.5875,510.8225 246.16,510.8 245.7308,510.8258 245.3233,510.9033 244.9375,511.0325 244.58,511.2075 244.2575,511.4225 243.97,511.6775 243.72,511.97 243.51,512.2975 243.34,512.66 243.215,513.0533 243.14,513.4733 243.115,513.92 243.14,514.3675 243.215,514.79 243.34,515.1875 243.51,515.555 243.72,515.8875 243.97,516.185 244.2575,516.4442 244.58,516.6617 244.9375,516.8375 245.3233,516.9667 245.7308,517.0442 246.16,517.07 246.5783,517.0383 246.9533,516.9433"/>
    <polygon points="251.485,516.89 254.515,516.89 254.9833,516.8567 255.3683,516.7567 255.67,516.59 255.9625,516.185 256.06,515.57 255.9756,515.0994 255.7225,514.7375 255.3438,514.4562 254.8825,514.2275 254.5375,514.0992 254.1725,513.9842 253.7875,513.8825 253.4025,513.7817 253.0375,513.6692 252.6925,513.545 252.2313,513.3256 251.8525,513.0575 251.5994,512.7144 251.515,512.27 251.65,511.6175 252.0175,511.235 252.55,511.055 253.165,511.01 255.73,511.01 253.165,511.01 252.55,511.055 252.0175,511.235 251.65,511.6175 251.515,512.27 251.5994,512.7144 251.8525,513.0575 252.2312,513.3256 252.6925,513.545 253.0375,513.6692 253.4025,513.7817 253.7875,513.8825 254.1725,513.9842 254.5375,514.0992 254.8825,514.2275 255.3438,514.4562 255.7225,514.7375 255.9756,515.0994 256.06,515.57 255.9625,516.185 255.67,516.59 255.3683,516.7567 254.9833,516.8567 254.515,516.89"/>
    <polygon points="258.325,520.19 258.325,514.28 258.3492,513.75 258.4217,513.26 258.5425,512.81 258.7067,512.4033 258.9092,512.0433 259.15,511.73 259.4275,511.4625 259.74,511.24 260.0875,511.0625 260.465,510.9333 260.8675,510.8558 261.295,510.83 261.715,510.8533 262.115,510.9233 262.495,511.04 262.8492,511.2025 263.1717,511.41 263.4625,511.6625 263.7183,511.9583 263.9358,512.2958 264.115,512.675 264.2483,513.0933 264.3283,513.5483 264.355,514.04 264.3292,514.4858 264.2517,514.9033 264.1225,515.2925 263.9492,515.6483 263.7392,515.9658 263.4925,516.245 263.0613,516.5919 262.5625,516.8525 262.2017,516.9733 261.8292,517.0458 261.445,517.07 260.9833,517.045 260.5583,516.97 260.17,516.845 260.5583,516.97 260.9833,517.045 261.445,517.07 261.8292,517.0458 262.2017,516.9733 262.5625,516.8525 263.0613,516.5919 263.4925,516.245 263.7392,515.9658 263.9492,515.6483 264.1225,515.2925 264.2517,514.9033 264.3292,514.4858 264.355,514.04 264.3283,513.5483 264.2483,513.0933 264.115,512.675 263.9358,512.2958 263.7183,511.9583 263.4625,511.6625 263.1717,511.41 262.8492,511.2025 262.495,511.04 262.115,510.9233 261.715,510.8533 261.295,510.83 260.8675,510.8558 260.465,510.9333 260.0875,511.0625 259.74,511.24 259.4275,511.4625 259.15,511.73 258.9092,512.0433 258.7067,512.4033 258.5425,512.81 258.4217,513.26 258.3492,513.75 258.325,514.28"/>
    <polygon points="272.53,514.91 272.3857,515.3153 272.2048,515.6792 271.9873,516.0017 271.7332,516.2828 271.4425,516.5225 271.1212,516.7196 270.7753,516.8729 270.4048,516.9824 270.0097,517.0481 269.59,517.07 269.1608,517.045 268.7533,516.97 268.3675,516.845 268.01,516.6742 267.6875,516.4617 267.4,516.2075 267.1492,515.9142 266.9367,515.5842 266.7625,515.2175 266.6333,514.82 266.5558,514.3975 266.53,513.95 266.5558,513.5025 266.6333,513.08 266.7625,512.6825 266.9367,512.3158 267.1492,511.9858 267.4,511.6925 267.6875,511.4383 268.01,511.2258 268.3675,511.055 268.7533,510.93 269.1608,510.855 269.59,510.83 270.0217,510.8553 270.4319,510.9312 270.8205,511.0578 271.1875,511.235 271.6117,511.535 271.9342,511.895 272.155,512.315 268.525,514.325 272.155,512.315 271.9342,511.895 271.6117,511.535 271.1875,511.235 270.8205,511.0578 270.4319,510.9312 270.0217,510.8553 269.59,510.83 269.1608,510.855 268.7533,510.93 268.3675,511.055 268.01,511.2258 267.6875,511.4383 267.4,511.6925 267.1492,511.9858 266.9367,512.3158 266.7625,512.6825 266.6333,513.08 266.5558,513.5025 266.53,513.95 266.5558,514.3975 266.6333,514.82 266.7625,515.2175 266.9367,515.5842 267.1492,515.9142 267.4,516.2075 267.6875,516.4617 268.01,516.6742 268.3675,516.845 268.7533,516.97 269.1608,517.045 269.59,517.07 270.0097,517.0481 270.4048,516.9824 270.7753,516.8729 271.1212,516.7196 271.4425,516.5225 271.7332,516.2828 271.9873,516.0017 272.2048,515.6792 272.3857,515.3153"/>
    <polygon points="279.175,513.83 279.175,510.71 279.1958,510.2617 279.2583,509.8367 279.3625,509.435 279.5083,509.0625 279.6958,508.725 279.925,508.4225 280.1933,508.1592 280.4983,507.9392 280.84,507.7625 281.2183,507.6333 281.6333,507.5558 282.085,507.53 282.5367,507.5567 282.9517,507.6367 283.33,507.77 283.6717,507.95 283.9767,508.17 284.245,508.43 284.4742,508.7283 284.6617,509.0633 284.8075,509.435 284.9117,509.8367 284.9742,510.2617 284.995,510.71 284.995,513.83 284.9742,514.2792 284.9117,514.7067 284.8075,515.1125 284.6617,515.49 284.4742,515.8325 284.245,516.14 283.9767,516.4092 283.6717,516.6367 283.33,516.8225 282.9517,516.96 282.5367,517.0425 282.085,517.07 281.6333,517.0425 281.2183,516.96 280.84,516.8225 280.4983,516.6367 280.1933,516.4092 279.925,516.14 279.6958,515.8325 279.5083,515.49 279.3625,515.1125 279.2583,514.7067 279.1958,514.2792"/>
    <polygon points="279.175,510.71 279.175,513.83 279.1958,514.2792 279.2583,514.7067 279.3625,515.1125 279.5083,515.49 279.6958,515.8325 279.925,516.14 280.1933,516.4092 280.4983,516.6367 280.84,516.8225 281.2183,516.96 281.6333,517.0425 282.085,517.07 282.5367,517.0425 282.9517,516.96 283.33,516.8225 283.6717,516.6367 283.9767,516.4092 284.245,516.14 284.4742,515.8325 284.6617,515.49 284.8075,515.1125 284.9117,514.7067 284.9742,514.2792 284.995,513.83 284.995,510.71 284.9742,510.2617 284.9117,509.8367 284.8075,509.435 284.6617,509.0633 284.4742,508.7283 284.245,508.43 283.9767,508.17 283.6717,507.95 283.33,507.77 282.9517,507.6367 282.5367,507.5567 282.085,507.53 281.6333,507.5558 281.2183,507.6333 280.84,507.7625 280.4983,507.9392 280.1933,508.1592 279.925,508.4225 279.6958,508.725 279.5083,509.0625 279.3625,509.435 279.2583,509.8367 279.1958,510.2617"/>
    <polygon points="287.515,513.83 287.515,510.71 287.5358,510.2617 287.5983,509.8367 287.7025,509.435 287.8483,509.0625 288.0358,508.725 288.265,508.4225 288.5333,508.1592 288.8383,507.9392 289.18,507.7625 289.5583,507.6333 289.9733,507.5558 290.425,507.53 290.8767,507.5567 291.2917,507.6367 291.67,507.77 292.0117,507.95 292.3167,508.17 292.585,508.43 292.8142,508.7283 293.0017,509.0633 293.1475,509.435 293.2517,509.8367 293.3142,510.2617 293.335,510.71 293.335,513.83 293.3142,514.2792 293.2517,514.7067 293.1475,515.1125 293.0017,515.49 292.8142,515.8325 292.585,516.14 292.3167,516.4092 292.0117,516.6367 291.67,516.8225 291.2917,516.96 290.8767,517.0425 290.425,517.07 289.9733,517.0425 289.5583,516.96 289.18,516.8225 288.8383,516.6367 288.5333,516.4092 288.265,516.14 288.0358,515.8325 287.8483,515.49 287.7025,515.1125 287.5983,514.7067 287.5358,514.2792"/>
    <polygon points="287.515,510.71 287.515,513.83 287.5358,514.2792 287.5983,514.7067 287.7025,515.1125 287.8483,515.49 288.0358,515.8325 288.265,516.14 288.5333,516.4092 288.8383,516.6367 289.18,516.8225 289.5583,516.96 289.9733,517.0425 290.425,517.07 290.8767,517.0425 291.2917,516.96 291.67,516.8225 292.0117,516.6367 292.3167,516.4092 292.585,516.14 292.8142,515.8325 293.0017,515.49 293.1475,515.1125 293.2517,514.7067 293.3142,514.2792 293.335,513.83 293.335,510.71 293.3142,510.2617 293.2517,509.8367 293.1475,509.435 293.0017,509.0633 292.8142,508.7283 292.585,508.43 292.3167,508.17 292.0117,507.95 291.67,507.77 291.2917,507.6367 290.8767,507.5567 290.425,507.53 289.9733,507.5558 289.5583,507.6333 289.18,507.7625 288.8383,507.9392 288.5333,508.1592 288.265,508.4225 288.0358,508.725 287.8483,509.0625 287.7025,509.435 287.5983,509.8367 287.5358,510.2617"/>
    <polygon points="297.61,516.89 300.925,509.45 301.1406,508.94 301.2775,508.61 301.375,508.25 301.1575,507.845 300.565,507.71 295.915,507.71 300.565,507.71 301.1575,507.845 301.375,508.25 301.2775,508.61 301.1406,508.94 300.925,509.45"/>
    <polygon points="304.63,519.5 304.9417,519.1939 305.2319,518.8756 305.5005,518.5452 305.7475,518.2025 305.973,517.8495 306.1769,517.4881 306.3592,517.1183 306.52,516.74 306.6602,516.3542 306.7806,515.9619 306.8814,515.563 306.9625,515.1575 307.0248,514.7492 307.0694,514.3419 307.0961,513.9355 307.105,513.53 307.0959,513.116 307.0684,512.7064 307.0227,512.3013 306.9587,511.9006 306.8765,511.5044 306.7759,511.1127 306.6571,510.7254 306.52,510.3425 306.3625,509.9676 306.1825,509.6042 305.98,509.2523 305.755,508.9119 305.5075,508.5829 305.2375,508.2655 304.945,507.9595 304.63,507.665 304.945,507.9595 305.2375,508.2655 305.5075,508.5829 305.755,508.9119 305.98,509.2523 306.1825,509.6042 306.3625,509.9676 306.52,510.3425 306.6571,510.7254 306.7759,511.1127 306.8765,511.5044 306.9587,511.9006 307.0227,512.3013 307.0684,512.7064 307.0959,513.116 307.105,513.53 307.0961,513.9355 307.0694,514.3419 307.0248,514.7492 306.9625,515.1575 306.8814,515.563 306.7806,515.9619 306.6602,516.3542 306.52,516.74 306.3592,517.1183 306.1769,517.4881 305.973,517.8495 305.7475,518.2025 305.5005,518.5452 305.2319,518.8756 304.9417,519.1939"/>
    <polygon points="310.63,516.755 310.6975,516.59 310.855,516.53 311.0125,516.59 311.08,516.755 311.0125,516.92 310.855,516.98 310.6975,516.92"/>
    <polygon points="310.63,516.755 310.6975,516.92 310.855,516.98 311.0125,516.92 311.08,516.755 311.0125,516.59 310.855,516.53 310.6975,516.59"/>
    <polygon points="327.97,516.89 326.935,508.505 326.8825,508.1975 326.785,507.875 326.6275,507.6275 326.395,507.53 326.1325,507.6425 325.9375,507.9125 325.795,508.25 325.69,508.565 323.5,515.75 323.3612,516.155 323.215,516.53 322.945,516.89 322.675,516.53 322.5325,516.155 322.405,515.75 320.215,508.565 320.11,508.235 319.96,507.8975 319.7575,507.635 319.495,507.53 319.2625,507.6275 319.105,507.875 319.0075,508.1975 318.955,508.505 317.92,516.89 318.955,508.505 319.0075,508.1975 319.105,507.875 319.2625,507.6275 319.495,507.53 319.7575,507.635 319.96,507.8975 320.11,508.235 320.215,508.565 322.405,515.75 322.5325,516.155 322.675,516.53 322.945,516.89 323.215,516.53 323.3612,516.155 323.5,515.75 325.69,508.565 325.795,508.25 325.9375,507.9125 326.1325,507.6425 326.395,507.53 326.6275,507.6275 326.785,507.875 326.8825,508.1975 326.935,508.505"/>
    <polygon points="334.0,516.785 333.6683,516.9433 333.2933,517.0383 332.875,517.07 332.4458,517.0442 332.0383,516.9667 331.6525,516.8375 331.295,516.6617 330.9725,516.4442 330.685,516.185 330.435,515.8875 330.225,515.555 330.055,515.1875 329.93,514.79 329.855,514.3675 329.83,513.92 329.855,513.4733 329.93,513.0533 330.055,512.66 330.225,512.2975 330.435,511.97 330.685,511.6775 330.9725,511.4225 331.295,511.2075 331.6525,511.0325 332.0383,510.9033 332.4458,510.8258 332.875,510.8 333.3025,510.8225 333.705,510.89 334.0825,511.0025 334.5925,511.2444 335.0275,511.565 335.38,511.9625 335.6425,512.435 335.7633,512.7867 335.8358,513.1617 335.86,513.56 335.86,516.89 335.86,513.56 335.8358,513.1617 335.7633,512.7867 335.6425,512.435 335.38,511.9625 335.0275,511.565 334.5925,511.2444 334.0825,511.0025 333.705,510.89 333.3025,510.8225 332.875,510.8 332.4458,510.8258 332.0383,510.9033 331.6525,511.0325 331.295,511.2075 330.9725,511.4225 330.685,511.6775 330.435,511.97 330.225,512.2975 330.055,512.66 329.93,513.0533 329.855,513.4733 329.83,513.92 329.855,514.3675 329.93,514.79 330.055,515.1875 330.225,515.555 330.435,515.8875 330.685,516.185 330.9725,516.4442 331.295,516.6617 331.6525,516.8375 332.0383,516.9667 332.4458,517.0442 332.875,517.07 333.2933,517.0383 333.6683,516.9433"/>
    <polygon points="340.87,520.115 340.87,517.07"/>
    <polygon points="338.53,511.055 338.53,514.67 338.5675,515.1612 338.68,515.615 338.8656,516.0219 339.1225,516.3725 339.4506,516.6612 339.85,516.8825 340.3225,517.0231 340.87,517.07 341.4175,517.0231 341.89,516.8825 342.2894,516.6612 342.6175,516.3725 342.8744,516.0219 343.06,515.615 343.1725,515.1612 343.21,514.67 343.21,511.055 343.21,514.67 343.1725,515.1612 343.06,515.615 342.8744,516.0219 342.6175,516.3725 342.2894,516.6612 341.89,516.8825 341.4175,517.0231 340.87,517.07 340.3225,517.0231 339.85,516.8825 339.4506,516.6612 339.1225,516.3725 338.8656,516.0219 338.68,515.615 338.5675,515.1612 338.53,514.67"/>
    <polygon points="355.765,516.89 350.68,516.89 350.065,516.7625 349.93,516.425 349.945,516.335 350.0425,516.215 350.275,516.0125 350.695,515.675 353.995,513.095 354.3231,512.8194 354.6475,512.5325 354.9512,512.225 355.2175,511.8875 355.4406,511.5181 355.615,511.115 355.7275,510.6725 355.765,510.185 355.7375,509.7375 355.655,509.335 355.5175,508.9775 355.2344,508.52 354.88,508.1525 354.4675,507.8731 354.01,507.68 353.53,507.5675 353.05,507.53 352.5362,507.5675 352.015,507.68 351.5162,507.875 351.07,508.16 350.6894,508.5406 350.3875,509.0225 350.2417,509.4017 350.1542,509.8292 350.125,510.305 350.1683,510.7583 350.2983,511.1983 350.515,511.625 350.8083,512.0167 351.1683,512.3517 351.595,512.63 351.1683,512.3517 350.8083,512.0167 350.515,511.625 350.2983,511.1983 350.1683,510.7583 350.125,510.305 350.1542,509.8292 350.2417,509.4017 350.3875,509.0225 350.6894,508.5406 351.07,508.16 351.5162,507.875 352.015,507.68 352.5362,507.5675 353.05,507.53 353.53,507.5675 354.01,507.68 354.4675,507.8731 354.88,508.1525 355.2344,508.52 355.5175,508.9775 355.655,509.335 355.7375,509.7375 355.765,510.185 355.7275,510.6725 355.615,511.115 355.4406,511.5181 355.2175,511.8875 354.9512,512.225 354.6475,512.5325 354.3231,512.8194 353.995,513.095 350.695,515.675 350.275,516.0125 350.0425,516.215 349.945,516.335 349.93,516.425 350.065,516.7625 350.68,516.89"/>
    <polygon points="358.39,513.83 358.39,510.71 358.4108,510.2617 358.4733,509.8367 358.5775,509.435 358.7233,509.0625 358.9108,508.725 359.14,508.4225 359.4083,508.1592 359.7133,507.9392 360.055,507.7625 360.4333,507.6333 360.8483,507.5558 361.3,507.53 361.7517,507.5567 362.1667,507.6367 362.545,507.77 362.8867,507.95 363.1917,508.17 363.46,508.43 363.6892,508.7283 363.8767,509.0633 364.0225,509.435 364.1267,509.8367 364.1892,510.2617 364.21,510.71 364.21,513.83 364.1892,514.2792 364.1267,514.7067 364.0225,515.1125 363.8767,515.49 363.6892,515.8325 363.46,516.14 363.1917,516.4092 362.8867,516.6367 362.545,516.8225 362.1667,516.96 361.7517,517.0425 361.3,517.07 360.8483,517.0425 360.4333,516.96 360.055,516.8225 359.7133,516.6367 359.4083,516.4092 359.14,516.14 358.9108,515.8325 358.7233,515.49 358.5775,515.1125 358.4733,514.7067 358.4108,514.2792"/>
    <polygon points="358.39,510.71 358.39,513.83 358.4108,514.2792 358.4733,514.7067 358.5775,515.1125 358.7233,515.49 358.9108,515.8325 359.14,516.14 359.4083,516.4092 359.7133,516.6367 360.055,516.8225 360.4333,516.96 360.8483,517.0425 361.3,517.07 361.7517,517.0425 362.1667,516.96 362.545,516.8225 362.8867,516.6367 363.1917,516.4092 363.46,516.14 363.6892,515.8325 363.8767,515.49 364.0225,515.1125 364.1267,514.7067 364.1892,514.2792 364.21,513.83 364.21,510.71 364.1892,510.2617 364.1267,509.8367 364.0225,509.435 363.8767,509.0633 363.6892,508.7283 363.46,508.43 363.1917,508.17 362.8867,507.95 362.545,507.77 362.1667,507.6367 361.7517,507.5567 361.3,507.53 360.8483,507.5558 360.4333,507.6333 360.055,507.7625 359.7133,507.9392 359.4083,508.1592 359.14,508.4225 358.9108,508.725 358.7233,509.0625 358.5775,509.435 358.4733,509.8367 358.4108,510.2617"/>
    <polygon points="372.445,516.89 367.36,516.89 366.745,516.7625 366.61,516.425 366.625,516.335 366.7225,516.215 366.955,516.0125 367.375,515.675 370.675,513.095 371.0031,512.8194 371.3275,512.5325 371.6312,512.225 371.8975,511.8875 372.1206,511.5181 372.295,511.115 372.4075,510.6725 372.445,510.185 372.4175,509.7375 372.335,509.335 372.1975,508.9775 371.9144,508.52 371.56,508.1525 371.1475,507.8731 370.69,507.68 370.21,507.5675 369.73,507.53 369.2162,507.5675 368.695,507.68 368.1962,507.875 367.75,508.16 367.3694,508.5406 367.0675,509.0225 366.9217,509.4017 366.8342,509.8292 366.805,510.305 366.8483,510.7583 366.9783,511.1983 367.195,511.625 367.4883,512.0167 367.8483,512.3517 368.275,512.63 367.8483,512.3517 367.4883,512.0167 367.195,511.625 366.9783,511.1983 366.8483,510.7583 366.805,510.305 366.8342,509.8292 366.9217,509.4017 367.0675,509.0225 367.3694,508.5406 367.75,508.16 368.1962,507.875 368.695,507.68 369.2162,507.5675 369.73,507.53 370.21,507.5675 370.69,507.68 371.1475,507.8731 371.56,508.1525 371.9144,508.52 372.1975,508.9775 372.335,509.335 372.4175,509.7375 372.445,510.185 372.4075,510.6725 372.295,511.115 372.1206,511.5181 371.8975,511.8875 371.6312,512.225 371.3275,512.5325 371.0031,512.8194 370.675,513.095 367.375,515.675 366.955,516.0125 366.7225,516.215 366.625,516.335 366.61,516.425 366.745,516.7625 367.36,516.89"/>
    <polygon points="379.435,516.89 379.435,509.27"/>
    <polygon points="378.205,507.71 374.995,513.47 374.8225,513.815 374.77,514.025 374.935,514.3625 375.265,514.46 381.07,514.46 375.265,514.46 374.935,514.3625 374.77,514.025 374.8225,513.815 374.995,513.47"/>
    <polygon points="384.355,519.53 385.645,519.53 385.645,507.71 384.355,507.71 385.645,507.71 385.645,519.53"/>
  </g>
</svg>
